<svg width="25" height="24" viewBox="0 0 25 24" fill="none" xmlns="http://www.w3.org/2000/svg">
<g clip-path="url(#clip0_60_284)">
<path fill-rule="evenodd" clip-rule="evenodd" d="M12.28 1.59843C12.5728 1.46719 12.9077 1.46719 13.2004 1.59843L24.0754 6.47343C24.48 6.65475 24.7402 7.05672 24.7402 7.5C24.7402 7.94328 24.48 8.34525 24.0754 8.52657L20.2402 10.2458V14.4375C20.2402 15.9734 19.0243 17.061 17.7511 17.6976C16.4106 18.3679 14.6374 18.75 12.7402 18.75C12.3233 18.75 11.9141 18.7315 11.5155 18.6961C10.8966 18.6409 10.4396 18.0947 10.4947 17.4758C10.5498 16.8569 11.0961 16.3998 11.715 16.455C12.0468 16.4846 12.3894 16.5 12.7402 16.5C14.3639 16.5 15.7782 16.1685 16.7449 15.6852C17.779 15.1682 17.9902 14.662 17.9902 14.4375V11.2544L13.2004 13.4016C12.9077 13.5328 12.5728 13.5328 12.28 13.4016L6.74023 10.9182V13.4125C7.18429 13.5705 7.60239 13.8259 7.95762 14.1811C8.61484 14.8383 8.99023 15.7692 8.99023 16.875V21.375C8.99023 21.6735 8.8717 21.9596 8.66071 22.1706C8.44972 22.3815 8.16357 22.5001 7.86519 22.5L3.36519 22.4998C2.74389 22.4998 2.24023 21.9961 2.24023 21.3748V16.8748C2.24023 15.7692 2.61564 14.8382 3.27288 14.181C3.62809 13.8258 4.04617 13.5705 4.49023 13.4125V9.90958L1.40505 8.52657C1.00055 8.34525 0.740234 7.94328 0.740234 7.5C0.740234 7.05672 1.00055 6.65475 1.40505 6.47343L12.28 1.59843ZM4.61547 7.5L12.7402 11.1421L20.865 7.5L12.7402 3.85786L4.61547 7.5ZM4.49023 16.8748C4.49023 16.2931 4.67733 15.9585 4.86384 15.772C5.06094 15.5749 5.331 15.4688 5.61522 15.4688C5.89944 15.4688 6.1695 15.5749 6.3666 15.772C6.55312 15.9586 6.74023 16.2933 6.74023 16.875V20.25H4.49023V16.8748Z" fill="#EF3B85"/>
</g>
<defs>
<clipPath id="clip0_60_284">
<rect width="24" height="24" fill="white" transform="translate(0.740234)"/>
</clipPath>
</defs>
</svg>
