<svg width="73" height="66" viewBox="0 0 73 66" fill="none" xmlns="http://www.w3.org/2000/svg">
    <rect x="1" y="0.905518" width="71" height="64" rx="15.5" stroke="#DADADA"/>
    <path d="M11.7197 30.4055H12.8717L9.85969 22.0895H8.59969L5.57569 30.4055H6.72769L7.39969 28.5455H11.0477L11.7197 30.4055ZM10.7357 27.6575H7.71169L9.22369 23.4335L10.7357 27.6575ZM13.7816 27.1055C13.7816 29.1935 15.1136 30.5135 16.9856 30.5135C18.6176 30.5135 19.6856 29.6015 20.0216 28.2935H18.8456C18.6056 29.1215 17.9576 29.5895 16.9856 29.5895C15.7856 29.5895 14.8976 28.7375 14.8976 27.1055C14.8976 25.4975 15.7856 24.6455 16.9856 24.6455C17.9576 24.6455 18.6176 25.1495 18.8456 25.9415H20.0216C19.6856 24.5615 18.6176 23.7215 16.9856 23.7215C15.1136 23.7215 13.7816 25.0415 13.7816 27.1055ZM21.0707 27.0935C21.0707 29.1335 22.4267 30.5135 24.1787 30.5135C25.3907 30.5135 26.2427 29.8895 26.6387 29.1815V30.4055H27.7427V23.8295H26.6387V25.0295C26.2547 24.3455 25.4147 23.7215 24.1907 23.7215C22.4267 23.7215 21.0707 25.0415 21.0707 27.0935ZM26.6387 27.1055C26.6387 28.6535 25.6067 29.5535 24.4067 29.5535C23.2067 29.5535 22.1867 28.6415 22.1867 27.0935C22.1867 25.5455 23.2067 24.6695 24.4067 24.6695C25.6067 24.6695 26.6387 25.5815 26.6387 27.1055ZM29.1801 27.0935C29.1801 29.1335 30.5361 30.5135 32.3001 30.5135C33.5001 30.5135 34.3521 29.9015 34.7481 29.1695V30.4055H35.8521V21.5255H34.7481V25.0055C34.2921 24.2495 33.3441 23.7215 32.3121 23.7215C30.5361 23.7215 29.1801 25.0415 29.1801 27.0935ZM34.7481 27.1055C34.7481 28.6535 33.7161 29.5535 32.5161 29.5535C31.3161 29.5535 30.2961 28.6415 30.2961 27.0935C30.2961 25.5455 31.3161 24.6695 32.5161 24.6695C33.7161 24.6695 34.7481 25.5815 34.7481 27.1055ZM40.4934 24.6455C41.6214 24.6455 42.5814 25.3535 42.5694 26.6375H38.4174C38.5374 25.3535 39.4254 24.6455 40.4934 24.6455ZM43.5654 28.3775H42.3894C42.1494 29.0855 41.5254 29.5895 40.5414 29.5895C39.4254 29.5895 38.4894 28.8575 38.4054 27.5255H43.6614C43.6854 27.2975 43.6974 27.1055 43.6974 26.8655C43.6974 25.0655 42.4494 23.7215 40.5414 23.7215C38.6214 23.7215 37.2894 25.0295 37.2894 27.1055C37.2894 29.1935 38.6694 30.5135 40.5414 30.5135C42.1734 30.5135 43.2294 29.5775 43.5654 28.3775ZM54.6308 30.4055H55.7108V26.5295C55.7108 24.6455 54.5468 23.7095 53.0468 23.7095C52.0388 23.7095 51.1028 24.2255 50.7188 25.1735C50.2868 24.1895 49.3868 23.7095 48.3068 23.7095C47.4428 23.7095 46.6628 24.0815 46.2308 24.7775V23.8295H45.1388V30.4055H46.2308V26.7815C46.2308 25.3655 46.9868 24.6575 48.0908 24.6575C49.1708 24.6575 49.8908 25.3415 49.8908 26.6855V30.4055H50.9708V26.7815C50.9708 25.3655 51.7268 24.6575 52.8308 24.6575C53.9108 24.6575 54.6308 25.3415 54.6308 26.6855V30.4055ZM57.5021 30.4055H58.5941V23.8295H57.5021V30.4055ZM58.0661 22.7615C58.4621 22.7615 58.7861 22.4375 58.7861 22.0175C58.7861 21.5975 58.4621 21.2735 58.0661 21.2735C57.6461 21.2735 57.3221 21.5975 57.3221 22.0175C57.3221 22.4375 57.6461 22.7615 58.0661 22.7615ZM60.0473 27.1055C60.0473 29.1935 61.3793 30.5135 63.2513 30.5135C64.8833 30.5135 65.9513 29.6015 66.2873 28.2935H65.1113C64.8713 29.1215 64.2233 29.5895 63.2513 29.5895C62.0513 29.5895 61.1633 28.7375 61.1633 27.1055C61.1633 25.4975 62.0513 24.6455 63.2513 24.6455C64.2233 24.6455 64.8833 25.1495 65.1113 25.9415H66.2873C65.9513 24.5615 64.8833 23.7215 63.2513 23.7215C61.3793 23.7215 60.0473 25.0415 60.0473 27.1055ZM19.237 36.0415H16.633V44.4055H19.237C21.985 44.4055 23.677 42.8335 23.677 40.2415C23.677 37.6495 21.985 36.0415 19.237 36.0415ZM17.725 43.5055V36.9295H19.237C21.421 36.9295 22.561 38.2015 22.561 40.2415C22.561 42.2815 21.421 43.5055 19.237 43.5055H17.725ZM27.9134 38.6455C29.0414 38.6455 30.0014 39.3535 29.9894 40.6375H25.8374C25.9574 39.3535 26.8454 38.6455 27.9134 38.6455ZM30.9854 42.3775H29.8094C29.5694 43.0855 28.9454 43.5895 27.9614 43.5895C26.8454 43.5895 25.9094 42.8575 25.8254 41.5255H31.0814C31.1054 41.2975 31.1174 41.1055 31.1174 40.8655C31.1174 39.0655 29.8694 37.7215 27.9614 37.7215C26.0414 37.7215 24.7094 39.0295 24.7094 41.1055C24.7094 43.1935 26.0894 44.5135 27.9614 44.5135C29.5934 44.5135 30.6494 43.5775 30.9854 42.3775ZM32.7988 42.6055C32.7988 43.9255 33.4588 44.4055 34.6228 44.4055H35.6068V43.4815H34.8028C34.1308 43.4815 33.8908 43.2535 33.8908 42.6055V38.7295H35.6068V37.8295H33.8908V36.1735H32.7988V37.8295H31.9468V38.7295H32.7988V42.6055ZM36.5219 41.0935C36.5219 43.1335 37.8779 44.5135 39.6299 44.5135C40.8419 44.5135 41.6939 43.8895 42.0899 43.1815V44.4055H43.1939V37.8295H42.0899V39.0295C41.7059 38.3455 40.8659 37.7215 39.6419 37.7215C37.8779 37.7215 36.5219 39.0415 36.5219 41.0935ZM42.0899 41.1055C42.0899 42.6535 41.0579 43.5535 39.8579 43.5535C38.6579 43.5535 37.6379 42.6415 37.6379 41.0935C37.6379 39.5455 38.6579 38.6695 39.8579 38.6695C41.0579 38.6695 42.0899 39.5815 42.0899 41.1055ZM45.0392 44.4055H46.1312V37.8295H45.0392V44.4055ZM45.6032 36.7615C45.9992 36.7615 46.3232 36.4375 46.3232 36.0175C46.3232 35.5975 45.9992 35.2735 45.6032 35.2735C45.1832 35.2735 44.8592 35.5975 44.8592 36.0175C44.8592 36.4375 45.1832 36.7615 45.6032 36.7615ZM47.9924 44.4055H49.0844V35.5255H47.9924V44.4055ZM55.6735 42.6175C55.6255 40.2655 51.8095 41.1175 51.8095 39.5575C51.8095 39.0295 52.2895 38.6455 53.0935 38.6455C53.9695 38.6455 54.4735 39.1255 54.5215 39.7855H55.6135C55.5415 38.5015 54.5815 37.7215 53.1295 37.7215C51.6655 37.7215 50.7175 38.5495 50.7175 39.5575C50.7175 42.0055 54.6055 41.1535 54.6055 42.6175C54.6055 43.1575 54.1255 43.5895 53.2615 43.5895C52.3375 43.5895 51.7735 43.1095 51.7135 42.4735H50.5855C50.6575 43.6735 51.7375 44.5135 53.2735 44.5135C54.7255 44.5135 55.6735 43.6975 55.6735 42.6175Z" fill="#DADADA"/>
</svg>
