<svg width="73" height="65" viewBox="0 0 73 65" fill="none" xmlns="http://www.w3.org/2000/svg">
    <rect x="0.5" width="72" height="65" rx="16" fill="#EF3B85"/>
    <path d="M10.8357 28.512H7.69166L7.18766 30H5.03966L8.08766 21.576H10.4637L13.5117 30H11.3397L10.8357 28.512ZM10.3077 26.928L9.26366 23.844L8.23166 26.928H10.3077ZM14.0313 26.652C14.0313 25.956 14.1713 25.348 14.4513 24.828C14.7393 24.308 15.1353 23.908 15.6393 23.628C16.1513 23.348 16.7353 23.208 17.3913 23.208C18.2313 23.208 18.9313 23.428 19.4913 23.868C20.0593 24.308 20.4313 24.928 20.6073 25.728H18.4233C18.2393 25.216 17.8833 24.96 17.3553 24.96C16.9793 24.96 16.6793 25.108 16.4553 25.404C16.2313 25.692 16.1193 26.108 16.1193 26.652C16.1193 27.196 16.2313 27.616 16.4553 27.912C16.6793 28.2 16.9793 28.344 17.3553 28.344C17.8833 28.344 18.2393 28.088 18.4233 27.576H20.6073C20.4313 28.36 20.0593 28.976 19.4913 29.424C18.9233 29.872 18.2233 30.096 17.3913 30.096C16.7353 30.096 16.1513 29.956 15.6393 29.676C15.1353 29.396 14.7393 28.996 14.4513 28.476C14.1713 27.956 14.0313 27.348 14.0313 26.652ZM21.2969 26.64C21.2969 25.952 21.4249 25.348 21.6809 24.828C21.9449 24.308 22.3009 23.908 22.7489 23.628C23.1969 23.348 23.6969 23.208 24.2489 23.208C24.7209 23.208 25.1329 23.304 25.4849 23.496C25.8449 23.688 26.1209 23.94 26.3129 24.252V23.304H28.3649V30H26.3129V29.052C26.1129 29.364 25.8329 29.616 25.4729 29.808C25.1209 30 24.7089 30.096 24.2369 30.096C23.6929 30.096 23.1969 29.956 22.7489 29.676C22.3009 29.388 21.9449 28.984 21.6809 28.464C21.4249 27.936 21.2969 27.328 21.2969 26.64ZM26.3129 26.652C26.3129 26.14 26.1689 25.736 25.8809 25.44C25.6009 25.144 25.2569 24.996 24.8489 24.996C24.4409 24.996 24.0929 25.144 23.8049 25.44C23.5249 25.728 23.3849 26.128 23.3849 26.64C23.3849 27.152 23.5249 27.56 23.8049 27.864C24.0929 28.16 24.4409 28.308 24.8489 28.308C25.2569 28.308 25.6009 28.16 25.8809 27.864C26.1689 27.568 26.3129 27.164 26.3129 26.652ZM29.4415 26.64C29.4415 25.952 29.5695 25.348 29.8255 24.828C30.0895 24.308 30.4455 23.908 30.8935 23.628C31.3415 23.348 31.8415 23.208 32.3935 23.208C32.8335 23.208 33.2335 23.3 33.5935 23.484C33.9615 23.668 34.2495 23.916 34.4575 24.228V21.12H36.5095V30H34.4575V29.04C34.2655 29.36 33.9895 29.616 33.6295 29.808C33.2775 30 32.8655 30.096 32.3935 30.096C31.8415 30.096 31.3415 29.956 30.8935 29.676C30.4455 29.388 30.0895 28.984 29.8255 28.464C29.5695 27.936 29.4415 27.328 29.4415 26.64ZM34.4575 26.652C34.4575 26.14 34.3135 25.736 34.0255 25.44C33.7455 25.144 33.4015 24.996 32.9935 24.996C32.5855 24.996 32.2375 25.144 31.9495 25.44C31.6695 25.728 31.5295 26.128 31.5295 26.64C31.5295 27.152 31.6695 27.56 31.9495 27.864C32.2375 28.16 32.5855 28.308 32.9935 28.308C33.4015 28.308 33.7455 28.16 34.0255 27.864C34.3135 27.568 34.4575 27.164 34.4575 26.652ZM44.306 26.544C44.306 26.736 44.294 26.936 44.27 27.144H39.626C39.658 27.56 39.79 27.88 40.022 28.104C40.262 28.32 40.554 28.428 40.898 28.428C41.41 28.428 41.766 28.212 41.966 27.78H44.15C44.038 28.22 43.834 28.616 43.538 28.968C43.25 29.32 42.886 29.596 42.446 29.796C42.006 29.996 41.514 30.096 40.97 30.096C40.314 30.096 39.73 29.956 39.218 29.676C38.706 29.396 38.306 28.996 38.018 28.476C37.73 27.956 37.586 27.348 37.586 26.652C37.586 25.956 37.726 25.348 38.006 24.828C38.294 24.308 38.694 23.908 39.206 23.628C39.718 23.348 40.306 23.208 40.97 23.208C41.618 23.208 42.194 23.344 42.698 23.616C43.202 23.888 43.594 24.276 43.874 24.78C44.162 25.284 44.306 25.872 44.306 26.544ZM42.206 26.004C42.206 25.652 42.086 25.372 41.846 25.164C41.606 24.956 41.306 24.852 40.946 24.852C40.602 24.852 40.31 24.952 40.07 25.152C39.838 25.352 39.694 25.636 39.638 26.004H42.206ZM53.9325 23.232C54.7645 23.232 55.4245 23.484 55.9125 23.988C56.4085 24.492 56.6565 25.192 56.6565 26.088V30H54.6165V26.364C54.6165 25.932 54.5005 25.6 54.2685 25.368C54.0445 25.128 53.7325 25.008 53.3325 25.008C52.9325 25.008 52.6165 25.128 52.3845 25.368C52.1605 25.6 52.0485 25.932 52.0485 26.364V30H50.0085V26.364C50.0085 25.932 49.8925 25.6 49.6605 25.368C49.4365 25.128 49.1245 25.008 48.7245 25.008C48.3245 25.008 48.0085 25.128 47.7765 25.368C47.5525 25.6 47.4405 25.932 47.4405 26.364V30H45.3885V23.304H47.4405V24.144C47.6485 23.864 47.9205 23.644 48.2565 23.484C48.5925 23.316 48.9725 23.232 49.3965 23.232C49.9005 23.232 50.3485 23.34 50.7405 23.556C51.1405 23.772 51.4525 24.08 51.6765 24.48C51.9085 24.112 52.2245 23.812 52.6245 23.58C53.0245 23.348 53.4605 23.232 53.9325 23.232ZM59.1237 22.608C58.7637 22.608 58.4677 22.504 58.2357 22.296C58.0117 22.08 57.8997 21.816 57.8997 21.504C57.8997 21.184 58.0117 20.92 58.2357 20.712C58.4677 20.496 58.7637 20.388 59.1237 20.388C59.4757 20.388 59.7637 20.496 59.9877 20.712C60.2197 20.92 60.3357 21.184 60.3357 21.504C60.3357 21.816 60.2197 22.08 59.9877 22.296C59.7637 22.504 59.4757 22.608 59.1237 22.608ZM60.1437 23.304V30H58.0917V23.304H60.1437ZM61.2227 26.652C61.2227 25.956 61.3627 25.348 61.6427 24.828C61.9307 24.308 62.3267 23.908 62.8307 23.628C63.3427 23.348 63.9267 23.208 64.5827 23.208C65.4227 23.208 66.1227 23.428 66.6827 23.868C67.2507 24.308 67.6227 24.928 67.7987 25.728H65.6147C65.4307 25.216 65.0747 24.96 64.5467 24.96C64.1707 24.96 63.8707 25.108 63.6467 25.404C63.4227 25.692 63.3107 26.108 63.3107 26.652C63.3107 27.196 63.4227 27.616 63.6467 27.912C63.8707 28.2 64.1707 28.344 64.5467 28.344C65.0747 28.344 65.4307 28.088 65.6147 27.576H67.7987C67.6227 28.36 67.2507 28.976 66.6827 29.424C66.1147 29.872 65.4147 30.096 64.5827 30.096C63.9267 30.096 63.3427 29.956 62.8307 29.676C62.3267 29.396 61.9307 28.996 61.6427 28.476C61.3627 27.956 61.2227 27.348 61.2227 26.652ZM18.9488 35.576C19.8368 35.576 20.6128 35.752 21.2768 36.104C21.9408 36.456 22.4528 36.952 22.8128 37.592C23.1808 38.224 23.3648 38.956 23.3648 39.788C23.3648 40.612 23.1808 41.344 22.8128 41.984C22.4528 42.624 21.9368 43.12 21.2648 43.472C20.6008 43.824 19.8288 44 18.9488 44H15.7928V35.576H18.9488ZM18.8168 42.224C19.5928 42.224 20.1968 42.012 20.6288 41.588C21.0608 41.164 21.2768 40.564 21.2768 39.788C21.2768 39.012 21.0608 38.408 20.6288 37.976C20.1968 37.544 19.5928 37.328 18.8168 37.328H17.8448V42.224H18.8168ZM30.8236 40.544C30.8236 40.736 30.8116 40.936 30.7876 41.144H26.1436C26.1756 41.56 26.3076 41.88 26.5396 42.104C26.7796 42.32 27.0716 42.428 27.4156 42.428C27.9276 42.428 28.2836 42.212 28.4836 41.78H30.6676C30.5556 42.22 30.3516 42.616 30.0556 42.968C29.7676 43.32 29.4036 43.596 28.9636 43.796C28.5236 43.996 28.0316 44.096 27.4876 44.096C26.8316 44.096 26.2476 43.956 25.7356 43.676C25.2236 43.396 24.8236 42.996 24.5356 42.476C24.2476 41.956 24.1036 41.348 24.1036 40.652C24.1036 39.956 24.2436 39.348 24.5236 38.828C24.8116 38.308 25.2116 37.908 25.7236 37.628C26.2356 37.348 26.8236 37.208 27.4876 37.208C28.1356 37.208 28.7116 37.344 29.2156 37.616C29.7196 37.888 30.1116 38.276 30.3916 38.78C30.6796 39.284 30.8236 39.872 30.8236 40.544ZM28.7236 40.004C28.7236 39.652 28.6036 39.372 28.3636 39.164C28.1236 38.956 27.8236 38.852 27.4636 38.852C27.1196 38.852 26.8276 38.952 26.5876 39.152C26.3556 39.352 26.2116 39.636 26.1556 40.004H28.7236ZM35.6381 42.26V44H34.5941C33.8501 44 33.2701 43.82 32.8541 43.46C32.4381 43.092 32.2301 42.496 32.2301 41.672V39.008H31.4141V37.304H32.2301V35.672H34.2821V37.304H35.6261V39.008H34.2821V41.696C34.2821 41.896 34.3301 42.04 34.4261 42.128C34.5221 42.216 34.6821 42.26 34.9061 42.26H35.6381ZM36.3731 40.64C36.3731 39.952 36.5011 39.348 36.7571 38.828C37.0211 38.308 37.3771 37.908 37.8251 37.628C38.2731 37.348 38.7731 37.208 39.3251 37.208C39.7971 37.208 40.2091 37.304 40.5611 37.496C40.9211 37.688 41.1971 37.94 41.3891 38.252V37.304H43.4411V44H41.3891V43.052C41.1891 43.364 40.9091 43.616 40.5491 43.808C40.1971 44 39.7851 44.096 39.3131 44.096C38.7691 44.096 38.2731 43.956 37.8251 43.676C37.3771 43.388 37.0211 42.984 36.7571 42.464C36.5011 41.936 36.3731 41.328 36.3731 40.64ZM41.3891 40.652C41.3891 40.14 41.2451 39.736 40.9571 39.44C40.6771 39.144 40.3331 38.996 39.9251 38.996C39.5171 38.996 39.1691 39.144 38.8811 39.44C38.6011 39.728 38.4611 40.128 38.4611 40.64C38.4611 41.152 38.6011 41.56 38.8811 41.864C39.1691 42.16 39.5171 42.308 39.9251 42.308C40.3331 42.308 40.6771 42.16 40.9571 41.864C41.2451 41.568 41.3891 41.164 41.3891 40.652ZM45.9576 36.608C45.5976 36.608 45.3016 36.504 45.0696 36.296C44.8456 36.08 44.7336 35.816 44.7336 35.504C44.7336 35.184 44.8456 34.92 45.0696 34.712C45.3016 34.496 45.5976 34.388 45.9576 34.388C46.3096 34.388 46.5976 34.496 46.8216 34.712C47.0536 34.92 47.1696 35.184 47.1696 35.504C47.1696 35.816 47.0536 36.08 46.8216 36.296C46.5976 36.504 46.3096 36.608 45.9576 36.608ZM46.9776 37.304V44H44.9256V37.304H46.9776ZM50.5167 35.12V44H48.4647V35.12H50.5167ZM54.7278 44.096C54.1438 44.096 53.6238 43.996 53.1678 43.796C52.7118 43.596 52.3518 43.324 52.0878 42.98C51.8238 42.628 51.6758 42.236 51.6438 41.804H53.6718C53.6958 42.036 53.8038 42.224 53.9958 42.368C54.1878 42.512 54.4238 42.584 54.7038 42.584C54.9598 42.584 55.1558 42.536 55.2918 42.44C55.4358 42.336 55.5078 42.204 55.5078 42.044C55.5078 41.852 55.4078 41.712 55.2078 41.624C55.0078 41.528 54.6838 41.424 54.2358 41.312C53.7558 41.2 53.3558 41.084 53.0358 40.964C52.7158 40.836 52.4398 40.64 52.2078 40.376C51.9758 40.104 51.8598 39.74 51.8598 39.284C51.8598 38.9 51.9638 38.552 52.1718 38.24C52.3878 37.92 52.6998 37.668 53.1078 37.484C53.5238 37.3 54.0158 37.208 54.5838 37.208C55.4238 37.208 56.0838 37.416 56.5638 37.832C57.0518 38.248 57.3318 38.8 57.4038 39.488H55.5078C55.4758 39.256 55.3718 39.072 55.1958 38.936C55.0278 38.8 54.8038 38.732 54.5238 38.732C54.2838 38.732 54.0998 38.78 53.9718 38.876C53.8438 38.964 53.7798 39.088 53.7798 39.248C53.7798 39.44 53.8798 39.584 54.0798 39.68C54.2878 39.776 54.6078 39.872 55.0398 39.968C55.5358 40.096 55.9398 40.224 56.2518 40.352C56.5638 40.472 56.8358 40.672 57.0678 40.952C57.3078 41.224 57.4318 41.592 57.4398 42.056C57.4398 42.448 57.3278 42.8 57.1038 43.112C56.8878 43.416 56.5718 43.656 56.1558 43.832C55.7478 44.008 55.2718 44.096 54.7278 44.096Z" fill="white"/>
</svg>
