<svg width="73" height="66" viewBox="0 0 73 66" fill="none" xmlns="http://www.w3.org/2000/svg">
    <rect x="1" y="0.905518" width="71" height="64" rx="15.5" stroke="#DADADA"/>
    <path d="M16.8368 27.5455H13.1888L12.5168 29.4055H11.3647L14.3888 21.0895H15.6488L18.6608 29.4055H17.5088L16.8368 27.5455ZM16.5248 26.6575L15.0128 22.4335L13.5008 26.6575H16.5248ZM19.5707 26.1055C19.5707 25.4255 19.7067 24.8335 19.9787 24.3295C20.2507 23.8175 20.6267 23.4215 21.1067 23.1415C21.5947 22.8615 22.1507 22.7215 22.7747 22.7215C23.5827 22.7215 24.2467 22.9175 24.7667 23.3095C25.2947 23.7015 25.6427 24.2455 25.8107 24.9415H24.6347C24.5227 24.5415 24.3027 24.2255 23.9747 23.9935C23.6547 23.7615 23.2547 23.6455 22.7747 23.6455C22.1507 23.6455 21.6467 23.8615 21.2627 24.2935C20.8787 24.7175 20.6867 25.3215 20.6867 26.1055C20.6867 26.8975 20.8787 27.5095 21.2627 27.9415C21.6467 28.3735 22.1507 28.5895 22.7747 28.5895C23.2547 28.5895 23.6547 28.4775 23.9747 28.2535C24.2947 28.0295 24.5147 27.7095 24.6347 27.2935H25.8107C25.6347 27.9655 25.2827 28.5055 24.7547 28.9135C24.2267 29.3135 23.5667 29.5135 22.7747 29.5135C22.1507 29.5135 21.5947 29.3735 21.1067 29.0935C20.6267 28.8135 20.2507 28.4175 19.9787 27.9055C19.7067 27.3935 19.5707 26.7935 19.5707 26.1055ZM26.8598 26.1055C26.8598 25.4255 26.9958 24.8335 27.2678 24.3295C27.5398 23.8175 27.9158 23.4215 28.3958 23.1415C28.8838 22.8615 29.4398 22.7215 30.0638 22.7215C30.8718 22.7215 31.5358 22.9175 32.0558 23.3095C32.5838 23.7015 32.9318 24.2455 33.0998 24.9415H31.9238C31.8118 24.5415 31.5918 24.2255 31.2638 23.9935C30.9438 23.7615 30.5438 23.6455 30.0638 23.6455C29.4398 23.6455 28.9358 23.8615 28.5518 24.2935C28.1678 24.7175 27.9758 25.3215 27.9758 26.1055C27.9758 26.8975 28.1678 27.5095 28.5518 27.9415C28.9358 28.3735 29.4398 28.5895 30.0638 28.5895C30.5438 28.5895 30.9438 28.4775 31.2638 28.2535C31.5838 28.0295 31.8038 27.7095 31.9238 27.2935H33.0998C32.9238 27.9655 32.5718 28.5055 32.0438 28.9135C31.5158 29.3135 30.8558 29.5135 30.0638 29.5135C29.4398 29.5135 28.8838 29.3735 28.3958 29.0935C27.9158 28.8135 27.5398 28.4175 27.2678 27.9055C26.9958 27.3935 26.8598 26.7935 26.8598 26.1055ZM37.4248 29.5135C36.8088 29.5135 36.2488 29.3735 35.7448 29.0935C35.2488 28.8135 34.8568 28.4175 34.5688 27.9055C34.2888 27.3855 34.1488 26.7855 34.1488 26.1055C34.1488 25.4335 34.2928 24.8415 34.5808 24.3295C34.8768 23.8095 35.2768 23.4135 35.7808 23.1415C36.2848 22.8615 36.8488 22.7215 37.4728 22.7215C38.0968 22.7215 38.6608 22.8615 39.1648 23.1415C39.6688 23.4135 40.0648 23.8055 40.3528 24.3175C40.6488 24.8295 40.7968 25.4255 40.7968 26.1055C40.7968 26.7855 40.6448 27.3855 40.3408 27.9055C40.0448 28.4175 39.6408 28.8135 39.1288 29.0935C38.6168 29.3735 38.0488 29.5135 37.4248 29.5135ZM37.4248 28.5535C37.8168 28.5535 38.1848 28.4615 38.5288 28.2775C38.8728 28.0935 39.1488 27.8175 39.3568 27.4495C39.5728 27.0815 39.6808 26.6335 39.6808 26.1055C39.6808 25.5775 39.5768 25.1295 39.3688 24.7615C39.1608 24.3935 38.8888 24.1215 38.5528 23.9455C38.2168 23.7615 37.8528 23.6695 37.4608 23.6695C37.0608 23.6695 36.6928 23.7615 36.3568 23.9455C36.0288 24.1215 35.7648 24.3935 35.5648 24.7615C35.3648 25.1295 35.2648 25.5775 35.2648 26.1055C35.2648 26.6415 35.3608 27.0935 35.5528 27.4615C35.7528 27.8295 36.0168 28.1055 36.3448 28.2895C36.6728 28.4655 37.0328 28.5535 37.4248 28.5535ZM48.0646 22.8295V29.4055H46.9726V28.4335C46.7646 28.7695 46.4726 29.0335 46.0966 29.2255C45.7286 29.4095 45.3206 29.5015 44.8726 29.5015C44.3606 29.5015 43.9006 29.3975 43.4926 29.1895C43.0846 28.9735 42.7606 28.6535 42.5206 28.2295C42.2886 27.8055 42.1726 27.2895 42.1726 26.6815V22.8295H43.2526V26.5375C43.2526 27.1855 43.4166 27.6855 43.7446 28.0375C44.0726 28.3815 44.5206 28.5535 45.0886 28.5535C45.6726 28.5535 46.1326 28.3735 46.4686 28.0135C46.8046 27.6535 46.9726 27.1295 46.9726 26.4415V22.8295H48.0646ZM53.1124 22.7095C53.9124 22.7095 54.5604 22.9535 55.0564 23.4415C55.5524 23.9215 55.8004 24.6175 55.8004 25.5295V29.4055H54.7204V25.6855C54.7204 25.0295 54.5564 24.5295 54.2284 24.1855C53.9004 23.8335 53.4524 23.6575 52.8844 23.6575C52.3084 23.6575 51.8484 23.8375 51.5044 24.1975C51.1684 24.5575 51.0004 25.0815 51.0004 25.7695V29.4055H49.9084V22.8295H51.0004V23.7655C51.2164 23.4295 51.5084 23.1695 51.8764 22.9855C52.2524 22.8015 52.6644 22.7095 53.1124 22.7095ZM58.9162 23.7295V27.6055C58.9162 27.9255 58.9842 28.1535 59.1202 28.2895C59.2562 28.4175 59.4922 28.4815 59.8282 28.4815H60.6322V29.4055H59.6482C59.0402 29.4055 58.5842 29.2655 58.2802 28.9855C57.9762 28.7055 57.8242 28.2455 57.8242 27.6055V23.7295H56.9722V22.8295H57.8242V21.1735H58.9162V22.8295H60.6322V23.7295H58.9162ZM19.237 35.0415C20.149 35.0415 20.937 35.2135 21.601 35.5575C22.273 35.8935 22.785 36.3775 23.137 37.0095C23.497 37.6415 23.677 38.3855 23.677 39.2415C23.677 40.0975 23.497 40.8415 23.137 41.4735C22.785 42.0975 22.273 42.5775 21.601 42.9135C20.937 43.2415 20.149 43.4055 19.237 43.4055H16.633V35.0415H19.237ZM19.237 42.5055C20.317 42.5055 21.141 42.2215 21.709 41.6535C22.277 41.0775 22.561 40.2735 22.561 39.2415C22.561 38.2015 22.273 37.3895 21.697 36.8055C21.129 36.2215 20.309 35.9295 19.237 35.9295H17.725V42.5055H19.237ZM31.1174 39.8655C31.1174 40.0735 31.1054 40.2935 31.0814 40.5255H25.8254C25.8654 41.1735 26.0854 41.6815 26.4854 42.0495C26.8934 42.4095 27.3854 42.5895 27.9614 42.5895C28.4334 42.5895 28.8254 42.4815 29.1374 42.2655C29.4574 42.0415 29.6814 41.7455 29.8094 41.3775H30.9854C30.8094 42.0095 30.4574 42.5255 29.9294 42.9255C29.4014 43.3175 28.7454 43.5135 27.9614 43.5135C27.3374 43.5135 26.7774 43.3735 26.2814 43.0935C25.7934 42.8135 25.4094 42.4175 25.1294 41.9055C24.8494 41.3855 24.7094 40.7855 24.7094 40.1055C24.7094 39.4255 24.8454 38.8295 25.1174 38.3175C25.3894 37.8055 25.7694 37.4135 26.2574 37.1415C26.7534 36.8615 27.3214 36.7215 27.9614 36.7215C28.5854 36.7215 29.1374 36.8575 29.6174 37.1295C30.0974 37.4015 30.4654 37.7775 30.7214 38.2575C30.9854 38.7295 31.1174 39.2655 31.1174 39.8655ZM29.9894 39.6375C29.9894 39.2215 29.8974 38.8655 29.7134 38.5695C29.5294 38.2655 29.2774 38.0375 28.9574 37.8855C28.6454 37.7255 28.2974 37.6455 27.9134 37.6455C27.3614 37.6455 26.8894 37.8215 26.4974 38.1735C26.1134 38.5255 25.8934 39.0135 25.8374 39.6375H29.9894ZM33.8908 37.7295V41.6055C33.8908 41.9255 33.9588 42.1535 34.0948 42.2895C34.2308 42.4175 34.4668 42.4815 34.8028 42.4815H35.6068V43.4055H34.6228C34.0148 43.4055 33.5588 43.2655 33.2548 42.9855C32.9508 42.7055 32.7988 42.2455 32.7988 41.6055V37.7295H31.9468V36.8295H32.7988V35.1735H33.8908V36.8295H35.6068V37.7295H33.8908ZM36.5219 40.0935C36.5219 39.4215 36.6579 38.8335 36.9299 38.3295C37.2019 37.8175 37.5739 37.4215 38.0459 37.1415C38.5259 36.8615 39.0579 36.7215 39.6419 36.7215C40.2179 36.7215 40.7179 36.8455 41.1419 37.0935C41.5659 37.3415 41.8819 37.6535 42.0899 38.0295V36.8295H43.1939V43.4055H42.0899V42.1815C41.8739 42.5655 41.5499 42.8855 41.1179 43.1415C40.6939 43.3895 40.1979 43.5135 39.6299 43.5135C39.0459 43.5135 38.5179 43.3695 38.0459 43.0815C37.5739 42.7935 37.2019 42.3895 36.9299 41.8695C36.6579 41.3495 36.5219 40.7575 36.5219 40.0935ZM42.0899 40.1055C42.0899 39.6095 41.9899 39.1775 41.7899 38.8095C41.5899 38.4415 41.3179 38.1615 40.9739 37.9695C40.6379 37.7695 40.2659 37.6695 39.8579 37.6695C39.4499 37.6695 39.0779 37.7655 38.7419 37.9575C38.4059 38.1495 38.1379 38.4295 37.9379 38.7975C37.7379 39.1655 37.6379 39.5975 37.6379 40.0935C37.6379 40.5975 37.7379 41.0375 37.9379 41.4135C38.1379 41.7815 38.4059 42.0655 38.7419 42.2655C39.0779 42.4575 39.4499 42.5535 39.8579 42.5535C40.2659 42.5535 40.6379 42.4575 40.9739 42.2655C41.3179 42.0655 41.5899 41.7815 41.7899 41.4135C41.9899 41.0375 42.0899 40.6015 42.0899 40.1055ZM45.6032 35.7615C45.3952 35.7615 45.2192 35.6895 45.0752 35.5455C44.9312 35.4015 44.8592 35.2255 44.8592 35.0175C44.8592 34.8095 44.9312 34.6335 45.0752 34.4895C45.2192 34.3455 45.3952 34.2735 45.6032 34.2735C45.8032 34.2735 45.9712 34.3455 46.1072 34.4895C46.2512 34.6335 46.3232 34.8095 46.3232 35.0175C46.3232 35.2255 46.2512 35.4015 46.1072 35.5455C45.9712 35.6895 45.8032 35.7615 45.6032 35.7615ZM46.1312 36.8295V43.4055H45.0392V36.8295H46.1312ZM49.0844 34.5255V43.4055H47.9924V34.5255H49.0844ZM53.2735 43.5135C52.7695 43.5135 52.3175 43.4295 51.9175 43.2615C51.5175 43.0855 51.2015 42.8455 50.9695 42.5415C50.7375 42.2295 50.6095 41.8735 50.5855 41.4735H51.7135C51.7455 41.8015 51.8975 42.0695 52.1695 42.2775C52.4495 42.4855 52.8135 42.5895 53.2615 42.5895C53.6775 42.5895 54.0055 42.4975 54.2455 42.3135C54.4855 42.1295 54.6055 41.8975 54.6055 41.6175C54.6055 41.3295 54.4775 41.1175 54.2215 40.9815C53.9655 40.8375 53.5695 40.6975 53.0335 40.5615C52.5455 40.4335 52.1455 40.3055 51.8335 40.1775C51.5295 40.0415 51.2655 39.8455 51.0415 39.5895C50.8255 39.3255 50.7175 38.9815 50.7175 38.5575C50.7175 38.2215 50.8175 37.9135 51.0175 37.6335C51.2175 37.3535 51.5015 37.1335 51.8695 36.9735C52.2375 36.8055 52.6575 36.7215 53.1295 36.7215C53.8575 36.7215 54.4455 36.9055 54.8935 37.2735C55.3415 37.6415 55.5815 38.1455 55.6135 38.7855H54.5215C54.4975 38.4415 54.3575 38.1655 54.1015 37.9575C53.8535 37.7495 53.5175 37.6455 53.0935 37.6455C52.7015 37.6455 52.3895 37.7295 52.1575 37.8975C51.9255 38.0655 51.8095 38.2855 51.8095 38.5575C51.8095 38.7735 51.8775 38.9535 52.0135 39.0975C52.1575 39.2335 52.3335 39.3455 52.5415 39.4335C52.7575 39.5135 53.0535 39.6055 53.4295 39.7095C53.9015 39.8375 54.2855 39.9655 54.5815 40.0935C54.8775 40.2135 55.1295 40.3975 55.3375 40.6455C55.5535 40.8935 55.6655 41.2175 55.6735 41.6175C55.6735 41.9775 55.5735 42.3015 55.3735 42.5895C55.1735 42.8775 54.8895 43.1055 54.5215 43.2735C54.1615 43.4335 53.7455 43.5135 53.2735 43.5135Z" fill="#DADADA"/>
</svg>
