<svg width="25" height="24" viewBox="0 0 25 24" fill="none" xmlns="http://www.w3.org/2000/svg">
<path d="M17.7402 11H18.7402C19.0055 11 19.2598 10.8946 19.4473 10.7071C19.6349 10.5196 19.7402 10.2652 19.7402 10V9C19.7402 8.73478 19.6349 8.48043 19.4473 8.29289C19.2598 8.10536 19.0055 8 18.7402 8H17.7402C17.475 8 17.2207 8.10536 17.0331 8.29289C16.8456 8.48043 16.7402 8.73478 16.7402 9V10C16.7402 10.2652 16.8456 10.5196 17.0331 10.7071C17.2207 10.8946 17.475 11 17.7402 11ZM6.74023 12H11.7402C12.0055 12 12.2598 11.8946 12.4473 11.7071C12.6349 11.5196 12.7402 11.2652 12.7402 11C12.7402 10.7348 12.6349 10.4804 12.4473 10.2929C12.2598 10.1054 12.0055 10 11.7402 10H6.74023C6.47502 10 6.22066 10.1054 6.03313 10.2929C5.84559 10.4804 5.74023 10.7348 5.74023 11C5.74023 11.2652 5.84559 11.5196 6.03313 11.7071C6.22066 11.8946 6.47502 12 6.74023 12ZM22.7402 4H2.74023C2.47502 4 2.22066 4.10536 2.03313 4.29289C1.84559 4.48043 1.74023 4.73478 1.74023 5V19C1.74023 19.2652 1.84559 19.5196 2.03313 19.7071C2.22066 19.8946 2.47502 20 2.74023 20H22.7402C23.0055 20 23.2598 19.8946 23.4473 19.7071C23.6349 19.5196 23.7402 19.2652 23.7402 19V5C23.7402 4.73478 23.6349 4.48043 23.4473 4.29289C23.2598 4.10536 23.0055 4 22.7402 4V4ZM21.7402 18H3.74023V6H21.7402V18ZM6.74023 16H11.7402C12.0055 16 12.2598 15.8946 12.4473 15.7071C12.6349 15.5196 12.7402 15.2652 12.7402 15C12.7402 14.7348 12.6349 14.4804 12.4473 14.2929C12.2598 14.1054 12.0055 14 11.7402 14H6.74023C6.47502 14 6.22066 14.1054 6.03313 14.2929C5.84559 14.4804 5.74023 14.7348 5.74023 15C5.74023 15.2652 5.84559 15.5196 6.03313 15.7071C6.22066 15.8946 6.47502 16 6.74023 16Z" fill="#EF3B85"/>
</svg>
