<svg width="72" height="65" viewBox="0 0 72 65" fill="none" xmlns="http://www.w3.org/2000/svg">
    <rect width="72" height="65" rx="16" fill="#EF3B85"/>
    <path d="M15.4548 27.512H12.3108L11.8068 29H9.6588L12.7068 20.576H15.0828L18.1308 29H15.9588L15.4548 27.512ZM14.9268 25.928L13.8828 22.844L12.8508 25.928H14.9268ZM18.6505 25.652C18.6505 24.956 18.7905 24.348 19.0705 23.828C19.3585 23.308 19.7545 22.908 20.2585 22.628C20.7705 22.348 21.3545 22.208 22.0105 22.208C22.8505 22.208 23.5505 22.428 24.1105 22.868C24.6785 23.308 25.0505 23.928 25.2265 24.728H23.0425C22.8585 24.216 22.5025 23.96 21.9745 23.96C21.5985 23.96 21.2985 24.108 21.0745 24.404C20.8505 24.692 20.7385 25.108 20.7385 25.652C20.7385 26.196 20.8505 26.616 21.0745 26.912C21.2985 27.2 21.5985 27.344 21.9745 27.344C22.5025 27.344 22.8585 27.088 23.0425 26.576H25.2265C25.0505 27.36 24.6785 27.976 24.1105 28.424C23.5425 28.872 22.8425 29.096 22.0105 29.096C21.3545 29.096 20.7705 28.956 20.2585 28.676C19.7545 28.396 19.3585 27.996 19.0705 27.476C18.7905 26.956 18.6505 26.348 18.6505 25.652ZM25.9161 25.652C25.9161 24.956 26.0561 24.348 26.3361 23.828C26.6241 23.308 27.0201 22.908 27.5241 22.628C28.0361 22.348 28.6201 22.208 29.2761 22.208C30.1161 22.208 30.8161 22.428 31.3761 22.868C31.9441 23.308 32.3161 23.928 32.4921 24.728H30.3081C30.1241 24.216 29.7681 23.96 29.2401 23.96C28.8641 23.96 28.5641 24.108 28.3401 24.404C28.1161 24.692 28.0041 25.108 28.0041 25.652C28.0041 26.196 28.1161 26.616 28.3401 26.912C28.5641 27.2 28.8641 27.344 29.2401 27.344C29.7681 27.344 30.1241 27.088 30.3081 26.576H32.4921C32.3161 27.36 31.9441 27.976 31.3761 28.424C30.8081 28.872 30.1081 29.096 29.2761 29.096C28.6201 29.096 28.0361 28.956 27.5241 28.676C27.0201 28.396 26.6241 27.996 26.3361 27.476C26.0561 26.956 25.9161 26.348 25.9161 25.652ZM36.6377 29.096C35.9817 29.096 35.3897 28.956 34.8617 28.676C34.3417 28.396 33.9297 27.996 33.6257 27.476C33.3297 26.956 33.1817 26.348 33.1817 25.652C33.1817 24.964 33.3337 24.36 33.6377 23.84C33.9417 23.312 34.3577 22.908 34.8857 22.628C35.4137 22.348 36.0057 22.208 36.6617 22.208C37.3177 22.208 37.9097 22.348 38.4377 22.628C38.9657 22.908 39.3817 23.312 39.6857 23.84C39.9897 24.36 40.1417 24.964 40.1417 25.652C40.1417 26.34 39.9857 26.948 39.6737 27.476C39.3697 27.996 38.9497 28.396 38.4137 28.676C37.8857 28.956 37.2937 29.096 36.6377 29.096ZM36.6377 27.32C37.0297 27.32 37.3617 27.176 37.6337 26.888C37.9137 26.6 38.0537 26.188 38.0537 25.652C38.0537 25.116 37.9177 24.704 37.6457 24.416C37.3817 24.128 37.0537 23.984 36.6617 23.984C36.2617 23.984 35.9297 24.128 35.6657 24.416C35.4017 24.696 35.2697 25.108 35.2697 25.652C35.2697 26.188 35.3977 26.6 35.6537 26.888C35.9177 27.176 36.2457 27.32 36.6377 27.32ZM47.8423 22.304V29H45.7903V28.088C45.5823 28.384 45.2983 28.624 44.9383 28.808C44.5863 28.984 44.1943 29.072 43.7623 29.072C43.2503 29.072 42.7983 28.96 42.4063 28.736C42.0143 28.504 41.7103 28.172 41.4943 27.74C41.2783 27.308 41.1703 26.8 41.1703 26.216V22.304H43.2103V25.94C43.2103 26.388 43.3263 26.736 43.5583 26.984C43.7903 27.232 44.1023 27.356 44.4943 27.356C44.8943 27.356 45.2103 27.232 45.4423 26.984C45.6743 26.736 45.7903 26.388 45.7903 25.94V22.304H47.8423ZM53.3963 22.232C54.1803 22.232 54.8043 22.488 55.2683 23C55.7403 23.504 55.9763 24.2 55.9763 25.088V29H53.9363V25.364C53.9363 24.916 53.8203 24.568 53.5883 24.32C53.3563 24.072 53.0443 23.948 52.6523 23.948C52.2603 23.948 51.9483 24.072 51.7163 24.32C51.4843 24.568 51.3683 24.916 51.3683 25.364V29H49.3163V22.304H51.3683V23.192C51.5763 22.896 51.8563 22.664 52.2083 22.496C52.5603 22.32 52.9563 22.232 53.3963 22.232ZM61.1342 27.26V29H60.0902C59.3462 29 58.7662 28.82 58.3502 28.46C57.9342 28.092 57.7262 27.496 57.7262 26.672V24.008H56.9102V22.304H57.7262V20.672H59.7782V22.304H61.1222V24.008H59.7782V26.696C59.7782 26.896 59.8262 27.04 59.9222 27.128C60.0182 27.216 60.1782 27.26 60.4022 27.26H61.1342ZM17.9488 34.576C18.8368 34.576 19.6128 34.752 20.2768 35.104C20.9408 35.456 21.4528 35.952 21.8128 36.592C22.1808 37.224 22.3648 37.956 22.3648 38.788C22.3648 39.612 22.1808 40.344 21.8128 40.984C21.4528 41.624 20.9368 42.12 20.2648 42.472C19.6008 42.824 18.8288 43 17.9488 43H14.7928V34.576H17.9488ZM17.8168 41.224C18.5928 41.224 19.1968 41.012 19.6288 40.588C20.0608 40.164 20.2768 39.564 20.2768 38.788C20.2768 38.012 20.0608 37.408 19.6288 36.976C19.1968 36.544 18.5928 36.328 17.8168 36.328H16.8448V41.224H17.8168ZM29.8236 39.544C29.8236 39.736 29.8116 39.936 29.7876 40.144H25.1436C25.1756 40.56 25.3076 40.88 25.5396 41.104C25.7796 41.32 26.0716 41.428 26.4156 41.428C26.9276 41.428 27.2836 41.212 27.4836 40.78H29.6676C29.5556 41.22 29.3516 41.616 29.0556 41.968C28.7676 42.32 28.4036 42.596 27.9636 42.796C27.5236 42.996 27.0316 43.096 26.4876 43.096C25.8316 43.096 25.2476 42.956 24.7356 42.676C24.2236 42.396 23.8236 41.996 23.5356 41.476C23.2476 40.956 23.1036 40.348 23.1036 39.652C23.1036 38.956 23.2436 38.348 23.5236 37.828C23.8116 37.308 24.2116 36.908 24.7236 36.628C25.2356 36.348 25.8236 36.208 26.4876 36.208C27.1356 36.208 27.7116 36.344 28.2156 36.616C28.7196 36.888 29.1116 37.276 29.3916 37.78C29.6796 38.284 29.8236 38.872 29.8236 39.544ZM27.7236 39.004C27.7236 38.652 27.6036 38.372 27.3636 38.164C27.1236 37.956 26.8236 37.852 26.4636 37.852C26.1196 37.852 25.8276 37.952 25.5876 38.152C25.3556 38.352 25.2116 38.636 25.1556 39.004H27.7236ZM34.6381 41.26V43H33.5941C32.8501 43 32.2701 42.82 31.8541 42.46C31.4381 42.092 31.2301 41.496 31.2301 40.672V38.008H30.4141V36.304H31.2301V34.672H33.2821V36.304H34.6261V38.008H33.2821V40.696C33.2821 40.896 33.3301 41.04 33.4261 41.128C33.5221 41.216 33.6821 41.26 33.9061 41.26H34.6381ZM35.3731 39.64C35.3731 38.952 35.5011 38.348 35.7571 37.828C36.0211 37.308 36.3771 36.908 36.8251 36.628C37.2731 36.348 37.7731 36.208 38.3251 36.208C38.7971 36.208 39.2091 36.304 39.5611 36.496C39.9211 36.688 40.1971 36.94 40.3891 37.252V36.304H42.4411V43H40.3891V42.052C40.1891 42.364 39.9091 42.616 39.5491 42.808C39.1971 43 38.7851 43.096 38.3131 43.096C37.7691 43.096 37.2731 42.956 36.8251 42.676C36.3771 42.388 36.0211 41.984 35.7571 41.464C35.5011 40.936 35.3731 40.328 35.3731 39.64ZM40.3891 39.652C40.3891 39.14 40.2451 38.736 39.9571 38.44C39.6771 38.144 39.3331 37.996 38.9251 37.996C38.5171 37.996 38.1691 38.144 37.8811 38.44C37.6011 38.728 37.4611 39.128 37.4611 39.64C37.4611 40.152 37.6011 40.56 37.8811 40.864C38.1691 41.16 38.5171 41.308 38.9251 41.308C39.3331 41.308 39.6771 41.16 39.9571 40.864C40.2451 40.568 40.3891 40.164 40.3891 39.652ZM44.9576 35.608C44.5976 35.608 44.3016 35.504 44.0696 35.296C43.8456 35.08 43.7336 34.816 43.7336 34.504C43.7336 34.184 43.8456 33.92 44.0696 33.712C44.3016 33.496 44.5976 33.388 44.9576 33.388C45.3096 33.388 45.5976 33.496 45.8216 33.712C46.0536 33.92 46.1696 34.184 46.1696 34.504C46.1696 34.816 46.0536 35.08 45.8216 35.296C45.5976 35.504 45.3096 35.608 44.9576 35.608ZM45.9776 36.304V43H43.9256V36.304H45.9776ZM49.5167 34.12V43H47.4647V34.12H49.5167ZM53.7278 43.096C53.1438 43.096 52.6238 42.996 52.1678 42.796C51.7118 42.596 51.3518 42.324 51.0878 41.98C50.8238 41.628 50.6758 41.236 50.6438 40.804H52.6718C52.6958 41.036 52.8038 41.224 52.9958 41.368C53.1878 41.512 53.4238 41.584 53.7038 41.584C53.9598 41.584 54.1558 41.536 54.2918 41.44C54.4358 41.336 54.5078 41.204 54.5078 41.044C54.5078 40.852 54.4078 40.712 54.2078 40.624C54.0078 40.528 53.6838 40.424 53.2358 40.312C52.7558 40.2 52.3558 40.084 52.0358 39.964C51.7158 39.836 51.4398 39.64 51.2078 39.376C50.9758 39.104 50.8598 38.74 50.8598 38.284C50.8598 37.9 50.9638 37.552 51.1718 37.24C51.3878 36.92 51.6998 36.668 52.1078 36.484C52.5238 36.3 53.0158 36.208 53.5838 36.208C54.4238 36.208 55.0838 36.416 55.5638 36.832C56.0518 37.248 56.3318 37.8 56.4038 38.488H54.5078C54.4758 38.256 54.3718 38.072 54.1958 37.936C54.0278 37.8 53.8038 37.732 53.5238 37.732C53.2838 37.732 53.0998 37.78 52.9718 37.876C52.8438 37.964 52.7798 38.088 52.7798 38.248C52.7798 38.44 52.8798 38.584 53.0798 38.68C53.2878 38.776 53.6078 38.872 54.0398 38.968C54.5358 39.096 54.9398 39.224 55.2518 39.352C55.5638 39.472 55.8358 39.672 56.0678 39.952C56.3078 40.224 56.4318 40.592 56.4398 41.056C56.4398 41.448 56.3278 41.8 56.1038 42.112C55.8878 42.416 55.5718 42.656 55.1558 42.832C54.7478 43.008 54.2718 43.096 53.7278 43.096Z" fill="white"/>
</svg>
