<svg width="20" height="20" viewBox="0 0 20 20" fill="none" xmlns="http://www.w3.org/2000/svg">
<path d="M12.5447 10.3417C13.0458 9.80356 13.3281 9.09782 13.3364 8.36254C13.3364 7.56888 13.0211 6.80772 12.4599 6.24652C11.8987 5.68532 11.1375 5.37004 10.3439 5.37004C9.5502 5.37004 8.78905 5.68532 8.22784 6.24652C7.66664 6.80772 7.35136 7.56888 7.35136 8.36254C7.35962 9.09782 7.64192 9.80356 8.14303 10.3417C7.44529 10.6891 6.84487 11.2046 6.39575 11.8416C5.94663 12.4787 5.66291 13.2174 5.57011 13.9913C5.54701 14.2012 5.60827 14.4118 5.74041 14.5766C5.87254 14.7414 6.06473 14.8469 6.27469 14.87C6.48466 14.8931 6.69519 14.8319 6.85999 14.6997C7.02479 14.5676 7.13035 14.3754 7.15344 14.1655C7.24792 13.3984 7.61961 12.6924 8.19851 12.1805C8.77741 11.6685 9.52355 11.3859 10.2964 11.3859C11.0692 11.3859 11.8153 11.6685 12.3942 12.1805C12.9731 12.6924 13.3448 13.3984 13.4393 14.1655C13.4613 14.3684 13.5609 14.5551 13.7173 14.6864C13.8736 14.8177 14.0747 14.8835 14.2784 14.87H14.3655C14.5731 14.8462 14.7627 14.7412 14.8932 14.5781C15.0237 14.415 15.0845 14.2069 15.0622 13.9992C14.9763 13.2294 14.7015 12.4927 14.2623 11.8546C13.8231 11.2165 13.2331 10.6968 12.5447 10.3417V10.3417ZM10.3201 9.7717C10.0414 9.7717 9.76895 9.68906 9.53722 9.53422C9.30548 9.37937 9.12487 9.15929 9.01821 8.9018C8.91155 8.64431 8.88365 8.36097 8.93802 8.08762C8.99239 7.81427 9.1266 7.56318 9.32368 7.36611C9.52075 7.16903 9.77184 7.03482 10.0452 6.98045C10.3185 6.92607 10.6019 6.95398 10.8594 7.06064C11.1169 7.16729 11.3369 7.34791 11.4918 7.57965C11.6466 7.81138 11.7293 8.08383 11.7293 8.36254C11.7293 8.73627 11.5808 9.0947 11.3165 9.35897C11.0523 9.62324 10.6938 9.7717 10.3201 9.7717V9.7717ZM15.8618 2.20337H4.77844C4.14855 2.20337 3.54446 2.45359 3.09906 2.89899C2.65366 3.34439 2.40344 3.94848 2.40344 4.57837V15.6617C2.40344 16.2916 2.65366 16.8957 3.09906 17.3411C3.54446 17.7865 4.14855 18.0367 4.77844 18.0367H15.8618C16.4917 18.0367 17.0958 17.7865 17.5412 17.3411C17.9866 16.8957 18.2368 16.2916 18.2368 15.6617V4.57837C18.2368 3.94848 17.9866 3.34439 17.5412 2.89899C17.0958 2.45359 16.4917 2.20337 15.8618 2.20337ZM16.6534 15.6617C16.6534 15.8717 16.57 16.073 16.4216 16.2215C16.2731 16.37 16.0717 16.4534 15.8618 16.4534H4.77844C4.56848 16.4534 4.36712 16.37 4.21865 16.2215C4.07018 16.073 3.98678 15.8717 3.98678 15.6617V4.57837C3.98678 4.36841 4.07018 4.16704 4.21865 4.01858C4.36712 3.87011 4.56848 3.7867 4.77844 3.7867H15.8618C16.0717 3.7867 16.2731 3.87011 16.4216 4.01858C16.57 4.16704 16.6534 4.36841 16.6534 4.57837V15.6617Z" fill="#535353"/>
</svg>
