<svg width="20" height="20" viewBox="0 0 17 18" fill="none" xmlns="http://www.w3.org/2000/svg">
    <path
        d="M10.7667 6.26496L7.19175 9.84829L5.81675 8.47329C5.74204 8.38606 5.65011 8.31521 5.54673 8.26519C5.44334 8.21517 5.33073 8.18706 5.21596 8.18263C5.1012 8.1782 4.98675 8.19753 4.87981 8.23943C4.77288 8.28133 4.67575 8.34487 4.59454 8.42609C4.51333 8.5073 4.44978 8.60442 4.40789 8.71136C4.36599 8.8183 4.34665 8.93274 4.35109 9.04751C4.35552 9.16227 4.38363 9.27488 4.43365 9.37827C4.48367 9.48166 4.55452 9.57359 4.64175 9.64829L6.60008 11.615C6.67795 11.6922 6.7703 11.7533 6.87183 11.7948C6.97336 11.8362 7.08208 11.8573 7.19175 11.8566C7.41037 11.8557 7.61987 11.7689 7.77508 11.615L11.9417 7.44829C12.0199 7.37083 12.0819 7.27866 12.1242 7.17711C12.1665 7.07556 12.1882 6.96664 12.1882 6.85663C12.1882 6.74662 12.1665 6.6377 12.1242 6.53615C12.0819 6.4346 12.0199 6.34243 11.9417 6.26496C11.7856 6.10975 11.5744 6.02263 11.3542 6.02263C11.1341 6.02263 10.9229 6.10975 10.7667 6.26496ZM8.50008 0.606628C6.85191 0.606628 5.24074 1.09537 3.87033 2.01105C2.49992 2.92673 1.43182 4.22821 0.801089 5.75093C0.170359 7.27365 0.005331 8.94921 0.326874 10.5657C0.648418 12.1822 1.44209 13.6671 2.60753 14.8325C3.77297 15.998 5.25782 16.7916 6.87433 17.1132C8.49084 17.4347 10.1664 17.2697 11.6891 16.639C13.2118 16.0082 14.5133 14.9401 15.429 13.5697C16.3447 12.1993 16.8334 10.5881 16.8334 8.93996C16.8334 7.84561 16.6179 6.76198 16.1991 5.75093C15.7803 4.73989 15.1665 3.82123 14.3926 3.04741C13.6188 2.27358 12.7002 1.65975 11.6891 1.24097C10.6781 0.822176 9.59443 0.606628 8.50008 0.606628V0.606628ZM8.50008 15.6066C7.18154 15.6066 5.89261 15.2156 4.79628 14.4831C3.69995 13.7505 2.84547 12.7094 2.34089 11.4912C1.8363 10.273 1.70428 8.93257 1.96152 7.63936C2.21875 6.34615 2.85369 5.15827 3.78604 4.22592C4.71839 3.29357 5.90628 2.65863 7.19948 2.40139C8.49269 2.14416 9.83313 2.27618 11.0513 2.78076C12.2695 3.28535 13.3107 4.13983 14.0432 5.23616C14.7758 6.33249 15.1667 7.62142 15.1667 8.93996C15.1667 10.7081 14.4644 12.4038 13.2141 13.654C11.9639 14.9042 10.2682 15.6066 8.50008 15.6066V15.6066Z"
        fill="#15B412" />
</svg>