<svg width="21" height="21" viewBox="0 0 21 21" fill="none" xmlns="http://www.w3.org/2000/svg">
    <path d="M13.01 6.79L8.72004 11.09L7.07004 9.44C6.9804 9.33532 6.87008 9.2503 6.74601 9.19027C6.62195 9.13025 6.48682 9.09652 6.3491 9.0912C6.21138 9.08588 6.07405 9.10909 5.94572 9.15936C5.8174 9.20964 5.70085 9.28589 5.60339 9.38335C5.50594 9.4808 5.42968 9.59735 5.37941 9.72568C5.32913 9.854 5.30593 9.99133 5.31124 10.1291C5.31656 10.2668 5.35029 10.4019 5.41032 10.526C5.47034 10.65 5.55536 10.7604 5.66004 10.85L8.01004 13.21C8.10348 13.3027 8.2143 13.376 8.33614 13.4258C8.45797 13.4755 8.58844 13.5008 8.72004 13.5C8.98238 13.4989 9.23378 13.3947 9.42004 13.21L14.42 8.21C14.5138 8.11704 14.5882 8.00644 14.6389 7.88458C14.6897 7.76272 14.7158 7.63201 14.7158 7.5C14.7158 7.36799 14.6897 7.23728 14.6389 7.11542C14.5882 6.99356 14.5138 6.88296 14.42 6.79C14.2327 6.60375 13.9792 6.49921 13.715 6.49921C13.4509 6.49921 13.1974 6.60375 13.01 6.79ZM10.29 0C8.31223 0 6.37883 0.58649 4.73434 1.6853C3.08985 2.78412 1.80812 4.3459 1.05125 6.17317C0.294372 8.00043 0.0963386 10.0111 0.482191 11.9509C0.868043 13.8907 1.82045 15.6725 3.21898 17.0711C4.6175 18.4696 6.39933 19.422 8.33914 19.8079C10.279 20.1937 12.2896 19.9957 14.1169 19.2388C15.9441 18.4819 17.5059 17.2002 18.6047 15.5557C19.7036 13.9112 20.29 11.9778 20.29 10C20.29 8.68678 20.0314 7.38642 19.5288 6.17317C19.0263 4.95991 18.2897 3.85752 17.3611 2.92893C16.4325 2.00035 15.3301 1.26375 14.1169 0.761205C12.9036 0.258658 11.6033 0 10.29 0V0ZM10.29 18C8.70779 18 7.16107 17.5308 5.84548 16.6518C4.52989 15.7727 3.50451 14.5233 2.89901 13.0615C2.29351 11.5997 2.13508 9.99113 2.44376 8.43928C2.75244 6.88743 3.51437 5.46197 4.63319 4.34315C5.75201 3.22433 7.17747 2.4624 8.72932 2.15372C10.2812 1.84504 11.8897 2.00346 13.3515 2.60896C14.8133 3.21447 16.0627 4.23984 16.9418 5.55544C17.8209 6.87103 18.29 8.41775 18.29 10C18.29 12.1217 17.4472 14.1566 15.9469 15.6569C14.4466 17.1571 12.4118 18 10.29 18V18Z" fill="#15B412"/>
</svg>
