<svg width="21" height="20" viewBox="0 0 21 20" fill="none" xmlns="http://www.w3.org/2000/svg">
<path d="M18.0265 9.20833L10.3682 16.8667C9.42996 17.8049 8.15748 18.3319 6.83066 18.3319C5.50384 18.3319 4.23136 17.8049 3.29316 16.8667C2.35496 15.9285 1.82788 14.656 1.82788 13.3292C1.82788 12.0023 2.35496 10.7299 3.29316 9.79167L10.9515 2.13333C11.577 1.50786 12.4253 1.15648 13.3098 1.15648C14.1944 1.15648 15.0427 1.50786 15.6682 2.13333C16.2936 2.7588 16.645 3.60712 16.645 4.49167C16.645 5.37621 16.2936 6.22453 15.6682 6.85L8.00149 14.5083C7.68876 14.8211 7.2646 14.9968 6.82233 14.9968C6.38005 14.9968 5.9559 14.8211 5.64316 14.5083C5.33043 14.1956 5.15473 13.7714 5.15473 13.3292C5.15473 12.8869 5.33043 12.4627 5.64316 12.15L12.7182 5.08333" stroke="#BEBEBE" stroke-width="1.2" stroke-linecap="round" stroke-linejoin="round"/>
</svg>
