<svg width="25" height="25" viewBox="0 0 25 25" fill="none" xmlns="http://www.w3.org/2000/svg">
<path d="M2.71377 9.84773L3.71377 9.26106V11.4744H21.0471V9.28106L22.0338 9.84773C22.1861 9.92743 22.3634 9.94518 22.5285 9.89727C22.6937 9.84936 22.8339 9.7395 22.92 9.59063C23.006 9.44177 23.0312 9.26541 22.9903 9.0984C22.9494 8.93139 22.8455 8.78664 22.7004 8.69439L12.3804 2.75439L2.0471 8.69439C1.96743 8.73607 1.89702 8.79343 1.84009 8.86303C1.78316 8.93263 1.7409 9.01302 1.71585 9.09937C1.6908 9.18572 1.68348 9.27625 1.69432 9.36551C1.70516 9.45476 1.73394 9.5409 1.77894 9.61875C1.82394 9.69659 1.88421 9.76453 1.95615 9.81847C2.02808 9.87242 2.11018 9.91125 2.19751 9.93264C2.28484 9.95403 2.3756 9.95754 2.46432 9.94295C2.55304 9.92835 2.63789 9.89596 2.71377 9.84773ZM12.2804 5.54773C12.3615 5.50092 12.4535 5.47627 12.5471 5.47627C12.6407 5.47627 12.7327 5.50092 12.8138 5.54773L17.2938 8.14106H15.1471L12.5471 6.64773L9.9471 8.14106H7.8071L12.2804 5.54773Z" fill="#EF3B85"/>
<path d="M22.2803 18.8078H21.7136V18.2411C21.7136 18.0378 21.6328 17.8428 21.4891 17.699C21.3453 17.5552 21.1503 17.4744 20.947 17.4744H19.047V12.5611H16.3803V17.4744H13.7136V12.5611H11.047V17.4744H8.38029V12.5611H5.71362V17.4744H3.81362C3.61029 17.4744 3.41529 17.5552 3.27151 17.699C3.12773 17.8428 3.04696 18.0378 3.04696 18.2411V18.8078H2.48029C2.27696 18.8078 2.08195 18.8885 1.93817 19.0323C1.7944 19.1761 1.71362 19.3711 1.71362 19.5744V21.4744H23.047V19.5744C23.047 19.3711 22.9662 19.1761 22.8224 19.0323C22.6786 18.8885 22.4836 18.8078 22.2803 18.8078Z" fill="#EF3B85"/>
</svg>
