<svg width="72" height="65" viewBox="0 0 72 65" fill="none" xmlns="http://www.w3.org/2000/svg">
    <rect width="72" height="65" rx="16" fill="#EF3B85"/>
    <path d="M26.0647 25.68C26.5527 25.784 26.9447 26.028 27.2407 26.412C27.5367 26.788 27.6847 27.22 27.6847 27.708C27.6847 28.412 27.4367 28.972 26.9407 29.388C26.4527 29.796 25.7687 30 24.8887 30H20.9647V21.576H24.7567C25.6127 21.576 26.2807 21.772 26.7607 22.164C27.2487 22.556 27.4927 23.088 27.4927 23.76C27.4927 24.256 27.3607 24.668 27.0967 24.996C26.8407 25.324 26.4967 25.552 26.0647 25.68ZM23.0167 24.984H24.3607C24.6967 24.984 24.9527 24.912 25.1287 24.768C25.3127 24.616 25.4047 24.396 25.4047 24.108C25.4047 23.82 25.3127 23.6 25.1287 23.448C24.9527 23.296 24.6967 23.22 24.3607 23.22H23.0167V24.984ZM24.5287 28.344C24.8727 28.344 25.1367 28.268 25.3207 28.116C25.5127 27.956 25.6087 27.728 25.6087 27.432C25.6087 27.136 25.5087 26.904 25.3087 26.736C25.1167 26.568 24.8487 26.484 24.5047 26.484H23.0167V28.344H24.5287ZM28.4669 26.64C28.4669 25.952 28.5949 25.348 28.8509 24.828C29.1149 24.308 29.4709 23.908 29.9189 23.628C30.3669 23.348 30.8669 23.208 31.4189 23.208C31.8909 23.208 32.3029 23.304 32.6549 23.496C33.0149 23.688 33.2909 23.94 33.4829 24.252V23.304H35.5349V30H33.4829V29.052C33.2829 29.364 33.0029 29.616 32.6429 29.808C32.2909 30 31.8789 30.096 31.4069 30.096C30.8629 30.096 30.3669 29.956 29.9189 29.676C29.4709 29.388 29.1149 28.984 28.8509 28.464C28.5949 27.936 28.4669 27.328 28.4669 26.64ZM33.4829 26.652C33.4829 26.14 33.3389 25.736 33.0509 25.44C32.7709 25.144 32.4269 24.996 32.0189 24.996C31.6109 24.996 31.2629 25.144 30.9749 25.44C30.6949 25.728 30.5549 26.128 30.5549 26.64C30.5549 27.152 30.6949 27.56 30.9749 27.864C31.2629 28.16 31.6109 28.308 32.0189 28.308C32.4269 28.308 32.7709 28.16 33.0509 27.864C33.3389 27.568 33.4829 27.164 33.4829 26.652ZM41.0994 23.232C41.8834 23.232 42.5074 23.488 42.9714 24C43.4434 24.504 43.6794 25.2 43.6794 26.088V30H41.6394V26.364C41.6394 25.916 41.5234 25.568 41.2914 25.32C41.0594 25.072 40.7474 24.948 40.3554 24.948C39.9634 24.948 39.6514 25.072 39.4194 25.32C39.1874 25.568 39.0714 25.916 39.0714 26.364V30H37.0194V23.304H39.0714V24.192C39.2794 23.896 39.5594 23.664 39.9114 23.496C40.2634 23.32 40.6594 23.232 41.0994 23.232ZM49.1973 30L47.1573 27.192V30H45.1053V21.12H47.1573V26.028L49.1853 23.304H51.7173L48.9333 26.664L51.7413 30H49.1973ZM18.4488 35.576C19.3368 35.576 20.1128 35.752 20.7768 36.104C21.4408 36.456 21.9528 36.952 22.3128 37.592C22.6808 38.224 22.8648 38.956 22.8648 39.788C22.8648 40.612 22.6808 41.344 22.3128 41.984C21.9528 42.624 21.4368 43.12 20.7648 43.472C20.1008 43.824 19.3288 44 18.4488 44H15.2928V35.576H18.4488ZM18.3168 42.224C19.0928 42.224 19.6968 42.012 20.1288 41.588C20.5608 41.164 20.7768 40.564 20.7768 39.788C20.7768 39.012 20.5608 38.408 20.1288 37.976C19.6968 37.544 19.0928 37.328 18.3168 37.328H17.3448V42.224H18.3168ZM30.3236 40.544C30.3236 40.736 30.3116 40.936 30.2876 41.144H25.6436C25.6756 41.56 25.8076 41.88 26.0396 42.104C26.2796 42.32 26.5716 42.428 26.9156 42.428C27.4276 42.428 27.7836 42.212 27.9836 41.78H30.1676C30.0556 42.22 29.8516 42.616 29.5556 42.968C29.2676 43.32 28.9036 43.596 28.4636 43.796C28.0236 43.996 27.5316 44.096 26.9876 44.096C26.3316 44.096 25.7476 43.956 25.2356 43.676C24.7236 43.396 24.3236 42.996 24.0356 42.476C23.7476 41.956 23.6036 41.348 23.6036 40.652C23.6036 39.956 23.7436 39.348 24.0236 38.828C24.3116 38.308 24.7116 37.908 25.2236 37.628C25.7356 37.348 26.3236 37.208 26.9876 37.208C27.6356 37.208 28.2116 37.344 28.7156 37.616C29.2196 37.888 29.6116 38.276 29.8916 38.78C30.1796 39.284 30.3236 39.872 30.3236 40.544ZM28.2236 40.004C28.2236 39.652 28.1036 39.372 27.8636 39.164C27.6236 38.956 27.3236 38.852 26.9636 38.852C26.6196 38.852 26.3276 38.952 26.0876 39.152C25.8556 39.352 25.7116 39.636 25.6556 40.004H28.2236ZM35.1381 42.26V44H34.0941C33.3501 44 32.7701 43.82 32.3541 43.46C31.9381 43.092 31.7301 42.496 31.7301 41.672V39.008H30.9141V37.304H31.7301V35.672H33.7821V37.304H35.1261V39.008H33.7821V41.696C33.7821 41.896 33.8301 42.04 33.9261 42.128C34.0221 42.216 34.1821 42.26 34.4061 42.26H35.1381ZM35.8731 40.64C35.8731 39.952 36.0011 39.348 36.2571 38.828C36.5211 38.308 36.8771 37.908 37.3251 37.628C37.7731 37.348 38.2731 37.208 38.8251 37.208C39.2971 37.208 39.7091 37.304 40.0611 37.496C40.4211 37.688 40.6971 37.94 40.8891 38.252V37.304H42.9411V44H40.8891V43.052C40.6891 43.364 40.4091 43.616 40.0491 43.808C39.6971 44 39.2851 44.096 38.8131 44.096C38.2691 44.096 37.7731 43.956 37.3251 43.676C36.8771 43.388 36.5211 42.984 36.2571 42.464C36.0011 41.936 35.8731 41.328 35.8731 40.64ZM40.8891 40.652C40.8891 40.14 40.7451 39.736 40.4571 39.44C40.1771 39.144 39.8331 38.996 39.4251 38.996C39.0171 38.996 38.6691 39.144 38.3811 39.44C38.1011 39.728 37.9611 40.128 37.9611 40.64C37.9611 41.152 38.1011 41.56 38.3811 41.864C38.6691 42.16 39.0171 42.308 39.4251 42.308C39.8331 42.308 40.1771 42.16 40.4571 41.864C40.7451 41.568 40.8891 41.164 40.8891 40.652ZM45.4576 36.608C45.0976 36.608 44.8016 36.504 44.5696 36.296C44.3456 36.08 44.2336 35.816 44.2336 35.504C44.2336 35.184 44.3456 34.92 44.5696 34.712C44.8016 34.496 45.0976 34.388 45.4576 34.388C45.8096 34.388 46.0976 34.496 46.3216 34.712C46.5536 34.92 46.6696 35.184 46.6696 35.504C46.6696 35.816 46.5536 36.08 46.3216 36.296C46.0976 36.504 45.8096 36.608 45.4576 36.608ZM46.4776 37.304V44H44.4256V37.304H46.4776ZM50.0167 35.12V44H47.9647V35.12H50.0167ZM54.2278 44.096C53.6438 44.096 53.1238 43.996 52.6678 43.796C52.2118 43.596 51.8518 43.324 51.5878 42.98C51.3238 42.628 51.1758 42.236 51.1438 41.804H53.1718C53.1958 42.036 53.3038 42.224 53.4958 42.368C53.6878 42.512 53.9238 42.584 54.2038 42.584C54.4598 42.584 54.6558 42.536 54.7918 42.44C54.9358 42.336 55.0078 42.204 55.0078 42.044C55.0078 41.852 54.9078 41.712 54.7078 41.624C54.5078 41.528 54.1838 41.424 53.7358 41.312C53.2558 41.2 52.8558 41.084 52.5358 40.964C52.2158 40.836 51.9398 40.64 51.7078 40.376C51.4758 40.104 51.3598 39.74 51.3598 39.284C51.3598 38.9 51.4638 38.552 51.6718 38.24C51.8878 37.92 52.1998 37.668 52.6078 37.484C53.0238 37.3 53.5158 37.208 54.0838 37.208C54.9238 37.208 55.5838 37.416 56.0638 37.832C56.5518 38.248 56.8318 38.8 56.9038 39.488H55.0078C54.9758 39.256 54.8718 39.072 54.6958 38.936C54.5278 38.8 54.3038 38.732 54.0238 38.732C53.7838 38.732 53.5998 38.78 53.4718 38.876C53.3438 38.964 53.2798 39.088 53.2798 39.248C53.2798 39.44 53.3798 39.584 53.5798 39.68C53.7878 39.776 54.1078 39.872 54.5398 39.968C55.0358 40.096 55.4398 40.224 55.7518 40.352C56.0638 40.472 56.3358 40.672 56.5678 40.952C56.8078 41.224 56.9318 41.592 56.9398 42.056C56.9398 42.448 56.8278 42.8 56.6038 43.112C56.3878 43.416 56.0718 43.656 55.6558 43.832C55.2478 44.008 54.7718 44.096 54.2278 44.096Z" fill="white"/>
</svg>
