<svg width="73" height="66" viewBox="0 0 73 66" fill="none" xmlns="http://www.w3.org/2000/svg">
    <rect x="1" y="0.905518" width="71" height="64" rx="15.5" stroke="#DADADA"/>
    <path d="M25.9162 27.0535C25.9162 27.9655 25.2682 28.5055 24.1882 28.5055H22.2562V25.5535H24.1522C25.2202 25.5535 25.9162 26.1295 25.9162 27.0535ZM25.7002 23.2975C25.7002 24.1495 25.1122 24.6535 24.0922 24.6535H22.2562V21.9415H24.0682C25.1362 21.9415 25.7002 22.4695 25.7002 23.2975ZM27.0082 27.1615C27.0082 26.1295 26.2642 25.2535 25.3522 25.0975C26.1562 24.8335 26.8162 24.2215 26.8162 23.1655C26.8162 22.0015 25.9282 21.0415 24.1642 21.0415H21.1642V29.4055H24.2842C26.0122 29.4055 27.0082 28.4215 27.0082 27.1615ZM28.1156 26.0935C28.1156 28.1335 29.4716 29.5135 31.2236 29.5135C32.4356 29.5135 33.2876 28.8895 33.6836 28.1815V29.4055H34.7876V22.8295H33.6836V24.0295C33.2996 23.3455 32.4596 22.7215 31.2356 22.7215C29.4716 22.7215 28.1156 24.0415 28.1156 26.0935ZM33.6836 26.1055C33.6836 27.6535 32.6516 28.5535 31.4516 28.5535C30.2516 28.5535 29.2316 27.6415 29.2316 26.0935C29.2316 24.5455 30.2516 23.6695 31.4516 23.6695C32.6516 23.6695 33.6836 24.5815 33.6836 26.1055ZM41.445 29.4055H42.525V25.5295C42.525 23.6455 41.361 22.7095 39.837 22.7095C38.949 22.7095 38.157 23.0815 37.725 23.7655V22.8295H36.633V29.4055H37.725V25.7695C37.725 24.3535 38.493 23.6575 39.609 23.6575C40.713 23.6575 41.445 24.3415 41.445 25.6855V29.4055ZM44.3088 29.4055H45.4008V26.5015L47.9808 29.4055H49.4688L46.3608 26.1055L49.4568 22.8295H47.9328L45.4008 25.7455V20.5255H44.3088V29.4055ZM19.737 35.0415H17.133V43.4055H19.737C22.485 43.4055 24.177 41.8335 24.177 39.2415C24.177 36.6495 22.485 35.0415 19.737 35.0415ZM18.225 42.5055V35.9295H19.737C21.921 35.9295 23.061 37.2015 23.061 39.2415C23.061 41.2815 21.921 42.5055 19.737 42.5055H18.225ZM28.4134 37.6455C29.5414 37.6455 30.5014 38.3535 30.4894 39.6375H26.3374C26.4574 38.3535 27.3454 37.6455 28.4134 37.6455ZM31.4854 41.3775H30.3094C30.0694 42.0855 29.4454 42.5895 28.4614 42.5895C27.3454 42.5895 26.4094 41.8575 26.3254 40.5255H31.5814C31.6054 40.2975 31.6174 40.1055 31.6174 39.8655C31.6174 38.0655 30.3694 36.7215 28.4614 36.7215C26.5414 36.7215 25.2094 38.0295 25.2094 40.1055C25.2094 42.1935 26.5894 43.5135 28.4614 43.5135C30.0934 43.5135 31.1494 42.5775 31.4854 41.3775ZM33.2988 41.6055C33.2988 42.9255 33.9588 43.4055 35.1228 43.4055H36.1068V42.4815H35.3028C34.6308 42.4815 34.3908 42.2535 34.3908 41.6055V37.7295H36.1068V36.8295H34.3908V35.1735H33.2988V36.8295H32.4468V37.7295H33.2988V41.6055ZM37.0219 40.0935C37.0219 42.1335 38.3779 43.5135 40.1299 43.5135C41.3419 43.5135 42.1939 42.8895 42.5899 42.1815V43.4055H43.6939V36.8295H42.5899V38.0295C42.2059 37.3455 41.3659 36.7215 40.1419 36.7215C38.3779 36.7215 37.0219 38.0415 37.0219 40.0935ZM42.5899 40.1055C42.5899 41.6535 41.5579 42.5535 40.3579 42.5535C39.1579 42.5535 38.1379 41.6415 38.1379 40.0935C38.1379 38.5455 39.1579 37.6695 40.3579 37.6695C41.5579 37.6695 42.5899 38.5815 42.5899 40.1055ZM45.5392 43.4055H46.6312V36.8295H45.5392V43.4055ZM46.1032 35.7615C46.4992 35.7615 46.8232 35.4375 46.8232 35.0175C46.8232 34.5975 46.4992 34.2735 46.1032 34.2735C45.6832 34.2735 45.3592 34.5975 45.3592 35.0175C45.3592 35.4375 45.6832 35.7615 46.1032 35.7615ZM48.4924 43.4055H49.5844V34.5255H48.4924V43.4055ZM56.1735 41.6175C56.1255 39.2655 52.3095 40.1175 52.3095 38.5575C52.3095 38.0295 52.7895 37.6455 53.5935 37.6455C54.4695 37.6455 54.9735 38.1255 55.0215 38.7855H56.1135C56.0415 37.5015 55.0815 36.7215 53.6295 36.7215C52.1655 36.7215 51.2175 37.5495 51.2175 38.5575C51.2175 41.0055 55.1055 40.1535 55.1055 41.6175C55.1055 42.1575 54.6255 42.5895 53.7615 42.5895C52.8375 42.5895 52.2735 42.1095 52.2135 41.4735H51.0855C51.1575 42.6735 52.2375 43.5135 53.7735 43.5135C55.2255 43.5135 56.1735 42.6975 56.1735 41.6175Z" fill="#DADADA"/>
</svg>
