<svg width="25" height="24" viewBox="0 0 25 24" fill="none" xmlns="http://www.w3.org/2000/svg">
<path d="M21.7402 10C21.8716 10 22.0016 9.97419 22.123 9.92395C22.2443 9.8737 22.3546 9.80005 22.4474 9.70718C22.5403 9.61432 22.6139 9.50406 22.6642 9.38272C22.7144 9.26138 22.7403 9.13133 22.7402 9V6C22.7403 5.79017 22.6743 5.58565 22.5516 5.41544C22.4289 5.24524 22.2557 5.11799 22.0566 5.05176L13.0566 2.05176C12.8512 1.9834 12.6292 1.9834 12.4238 2.05176L3.42382 5.05176C3.22473 5.11799 3.05154 5.24524 2.92884 5.41544C2.80614 5.58565 2.74015 5.79017 2.74023 6V9C2.7402 9.13133 2.76604 9.26138 2.81629 9.38272C2.86653 9.50406 2.94019 9.61432 3.03305 9.70718C3.12592 9.80005 3.23617 9.8737 3.35751 9.92395C3.47885 9.97419 3.6089 10 3.74023 10H4.74023V17.1843C4.15697 17.3897 3.6516 17.7707 3.2935 18.2748C2.9354 18.779 2.74214 19.3816 2.74023 20V22C2.7402 22.1313 2.76604 22.2614 2.81629 22.3827C2.86653 22.5041 2.94019 22.6143 3.03305 22.7072C3.12592 22.8 3.23617 22.8737 3.35751 22.9239C3.47885 22.9742 3.6089 23 3.74023 23H21.7402C21.8716 23 22.0016 22.9742 22.123 22.9239C22.2443 22.8737 22.3546 22.8 22.4474 22.7072C22.5403 22.6143 22.6139 22.5041 22.6642 22.3827C22.7144 22.2614 22.7403 22.1313 22.7402 22V20C22.7383 19.3816 22.5451 18.779 22.187 18.2748C21.8289 17.7707 21.3235 17.3897 20.7402 17.1843V10H21.7402ZM20.7402 21H4.74023V20C4.7405 19.7349 4.84594 19.4807 5.03342 19.2932C5.2209 19.1057 5.4751 19.0003 5.74023 19H19.7402C20.0054 19.0003 20.2596 19.1057 20.447 19.2932C20.6345 19.4807 20.74 19.7349 20.7402 20V21ZM6.74023 17V10H8.74023V17H6.74023ZM10.7402 17V10H14.7402V17H10.7402ZM16.7402 17V10H18.7402V17H16.7402ZM4.74023 8V6.7207L12.7402 4.0537L20.7402 6.7207V8H4.74023Z" fill="#EF3B85"/>
</svg>
