<svg width="20" height="22" viewBox="0 0 20 22" fill="none" xmlns="http://www.w3.org/2000/svg">
<path d="M1.33037 3.65412H18.4304C18.6823 3.65412 18.924 3.49964 19.1021 3.22467C19.2803 2.94971 19.3804 2.57677 19.3804 2.1879C19.3804 1.79903 19.2803 1.4261 19.1021 1.15113C18.924 0.876156 18.6823 0.72168 18.4304 0.72168H1.33037C1.07842 0.72168 0.836779 0.876156 0.65862 1.15113C0.48046 1.4261 0.380371 1.79903 0.380371 2.1879C0.380371 2.57677 0.48046 2.94971 0.65862 3.22467C0.836779 3.49964 1.07842 3.65412 1.33037 3.65412ZM18.4304 18.3163H1.33037C1.07842 18.3163 0.836779 18.4708 0.65862 18.7458C0.48046 19.0207 0.380371 19.3937 0.380371 19.7826C0.380371 20.1714 0.48046 20.5444 0.65862 20.8193C0.836779 21.0943 1.07842 21.2488 1.33037 21.2488H18.4304C18.6823 21.2488 18.924 21.0943 19.1021 20.8193C19.2803 20.5444 19.3804 20.1714 19.3804 19.7826C19.3804 19.3937 19.2803 19.0207 19.1021 18.7458C18.924 18.4708 18.6823 18.3163 18.4304 18.3163ZM18.4304 12.4514H1.33037C1.07842 12.4514 0.836779 12.6059 0.65862 12.8809C0.48046 13.1559 0.380371 13.5288 0.380371 13.9177C0.380371 14.3065 0.48046 14.6795 0.65862 14.9544C0.836779 15.2294 1.07842 15.3839 1.33037 15.3839H18.4304C18.6823 15.3839 18.924 15.2294 19.1021 14.9544C19.2803 14.6795 19.3804 14.3065 19.3804 13.9177C19.3804 13.5288 19.2803 13.1559 19.1021 12.8809C18.924 12.6059 18.6823 12.4514 18.4304 12.4514ZM18.4304 6.58656H1.33037C1.07842 6.58656 0.836779 6.74104 0.65862 7.01601C0.48046 7.29098 0.380371 7.66392 0.380371 8.05278C0.380371 8.44165 0.48046 8.81459 0.65862 9.08956C0.836779 9.36453 1.07842 9.519 1.33037 9.519H18.4304C18.6823 9.519 18.924 9.36453 19.1021 9.08956C19.2803 8.81459 19.3804 8.44165 19.3804 8.05278C19.3804 7.66392 19.2803 7.29098 19.1021 7.01601C18.924 6.74104 18.6823 6.58656 18.4304 6.58656Z" fill="black"/>
</svg>
