<svg width="20" height="19" viewBox="0 0 20 19" fill="none" xmlns="http://www.w3.org/2000/svg">
<path d="M9.88029 15.0417C10.0369 15.0417 10.1899 14.9953 10.3201 14.9083C10.4503 14.8213 10.5518 14.6976 10.6117 14.553C10.6716 14.4083 10.6873 14.2491 10.6567 14.0956C10.6262 13.942 10.5508 13.8009 10.4401 13.6902C10.3294 13.5795 10.1883 13.5041 10.0347 13.4736C9.88117 13.443 9.72199 13.4587 9.57733 13.5186C9.43267 13.5785 9.30903 13.68 9.22204 13.8102C9.13505 13.9404 9.08862 14.0934 9.08862 14.25C9.08862 14.46 9.17203 14.6613 9.3205 14.8098C9.46896 14.9583 9.67033 15.0417 9.88029 15.0417ZM13.8386 15.0417C13.9952 15.0417 14.1483 14.9953 14.2785 14.9083C14.4086 14.8213 14.5101 14.6976 14.57 14.553C14.6299 14.4083 14.6456 14.2491 14.6151 14.0956C14.5845 13.942 14.5091 13.8009 14.3984 13.6902C14.2877 13.5795 14.1466 13.5041 13.9931 13.4736C13.8395 13.443 13.6803 13.4587 13.5357 13.5186C13.391 13.5785 13.2674 13.68 13.1804 13.8102C13.0934 13.9404 13.047 14.0934 13.047 14.25C13.047 14.46 13.1304 14.6613 13.2788 14.8098C13.4273 14.9583 13.6287 15.0417 13.8386 15.0417ZM13.8386 11.875C13.9952 11.875 14.1483 11.8286 14.2785 11.7416C14.4086 11.6546 14.5101 11.531 14.57 11.3863C14.6299 11.2417 14.6456 11.0825 14.6151 10.9289C14.5845 10.7753 14.5091 10.6343 14.3984 10.5236C14.2877 10.4128 14.1466 10.3374 13.9931 10.3069C13.8395 10.2764 13.6803 10.292 13.5357 10.3519C13.391 10.4119 13.2674 10.5133 13.1804 10.6435C13.0934 10.7737 13.047 10.9268 13.047 11.0834C13.047 11.2933 13.1304 11.4947 13.2788 11.6431C13.4273 11.7916 13.6287 11.875 13.8386 11.875ZM9.88029 11.875C10.0369 11.875 10.1899 11.8286 10.3201 11.7416C10.4503 11.6546 10.5518 11.531 10.6117 11.3863C10.6716 11.2417 10.6873 11.0825 10.6567 10.9289C10.6262 10.7753 10.5508 10.6343 10.4401 10.5236C10.3294 10.4128 10.1883 10.3374 10.0347 10.3069C9.88117 10.2764 9.72199 10.292 9.57733 10.3519C9.43267 10.4119 9.30903 10.5133 9.22204 10.6435C9.13505 10.7737 9.08862 10.9268 9.08862 11.0834C9.08862 11.2933 9.17203 11.4947 9.3205 11.6431C9.46896 11.7916 9.67033 11.875 9.88029 11.875ZM15.422 2.37502H14.6303V1.58335C14.6303 1.37339 14.5469 1.17203 14.3984 1.02356C14.25 0.875094 14.0486 0.791687 13.8386 0.791687C13.6287 0.791687 13.4273 0.875094 13.2788 1.02356C13.1304 1.17203 13.047 1.37339 13.047 1.58335V2.37502H6.71362V1.58335C6.71362 1.37339 6.63022 1.17203 6.48175 1.02356C6.33328 0.875094 6.13192 0.791687 5.92196 0.791687C5.71199 0.791687 5.51063 0.875094 5.36216 1.02356C5.2137 1.17203 5.13029 1.37339 5.13029 1.58335V2.37502H4.33862C3.70873 2.37502 3.10464 2.62524 2.65924 3.07064C2.21385 3.51604 1.96362 4.12013 1.96362 4.75002V15.8334C1.96362 16.4632 2.21385 17.0673 2.65924 17.5127C3.10464 17.9581 3.70873 18.2084 4.33862 18.2084H15.422C16.0518 18.2084 16.6559 17.9581 17.1013 17.5127C17.5467 17.0673 17.797 16.4632 17.797 15.8334V4.75002C17.797 4.12013 17.5467 3.51604 17.1013 3.07064C16.6559 2.62524 16.0518 2.37502 15.422 2.37502ZM16.2136 15.8334C16.2136 16.0433 16.1302 16.2447 15.9818 16.3931C15.8333 16.5416 15.6319 16.625 15.422 16.625H4.33862C4.12866 16.625 3.9273 16.5416 3.77883 16.3931C3.63036 16.2447 3.54696 16.0433 3.54696 15.8334V8.70835H16.2136V15.8334ZM16.2136 7.12502H3.54696V4.75002C3.54696 4.54006 3.63036 4.33869 3.77883 4.19023C3.9273 4.04176 4.12866 3.95835 4.33862 3.95835H5.13029V4.75002C5.13029 4.95998 5.2137 5.16135 5.36216 5.30981C5.51063 5.45828 5.71199 5.54169 5.92196 5.54169C6.13192 5.54169 6.33328 5.45828 6.48175 5.30981C6.63022 5.16135 6.71362 4.95998 6.71362 4.75002V3.95835H13.047V4.75002C13.047 4.95998 13.1304 5.16135 13.2788 5.30981C13.4273 5.45828 13.6287 5.54169 13.8386 5.54169C14.0486 5.54169 14.25 5.45828 14.3984 5.30981C14.5469 5.16135 14.6303 4.95998 14.6303 4.75002V3.95835H15.422C15.6319 3.95835 15.8333 4.04176 15.9818 4.19023C16.1302 4.33869 16.2136 4.54006 16.2136 4.75002V7.12502ZM5.92196 11.875C6.07853 11.875 6.23159 11.8286 6.36178 11.7416C6.49197 11.6546 6.59344 11.531 6.65336 11.3863C6.71328 11.2417 6.72896 11.0825 6.69841 10.9289C6.66787 10.7753 6.59247 10.6343 6.48175 10.5236C6.37103 10.4128 6.22997 10.3374 6.0764 10.3069C5.92283 10.2764 5.76366 10.292 5.619 10.3519C5.47434 10.4119 5.3507 10.5133 5.26371 10.6435C5.17672 10.7737 5.13029 10.9268 5.13029 11.0834C5.13029 11.2933 5.2137 11.4947 5.36216 11.6431C5.51063 11.7916 5.71199 11.875 5.92196 11.875ZM5.92196 15.0417C6.07853 15.0417 6.23159 14.9953 6.36178 14.9083C6.49197 14.8213 6.59344 14.6976 6.65336 14.553C6.71328 14.4083 6.72896 14.2491 6.69841 14.0956C6.66787 13.942 6.59247 13.8009 6.48175 13.6902C6.37103 13.5795 6.22997 13.5041 6.0764 13.4736C5.92283 13.443 5.76366 13.4587 5.619 13.5186C5.47434 13.5785 5.3507 13.68 5.26371 13.8102C5.17672 13.9404 5.13029 14.0934 5.13029 14.25C5.13029 14.46 5.2137 14.6613 5.36216 14.8098C5.51063 14.9583 5.71199 15.0417 5.92196 15.0417Z" fill="#535353"/>
</svg>
