<svg width="17" height="18" viewBox="0 0 17 18" fill="none" xmlns="http://www.w3.org/2000/svg">
<path d="M10.5506 5.1547H13.0566L12.5036 5.72623C12.3732 5.86009 12.3 6.04116 12.3 6.2299C12.3 6.41864 12.3732 6.59971 12.5036 6.73356C12.6347 6.86662 12.8121 6.94131 12.9971 6.94131C13.182 6.94131 13.3594 6.86662 13.4906 6.73356L15.2406 4.94751C15.3709 4.81366 15.4441 4.63259 15.4441 4.44385C15.4441 4.25511 15.3709 4.07404 15.2406 3.94018L13.4906 2.15413C13.3567 2.03709 13.1844 1.97593 13.0082 1.98288C12.8321 1.98982 12.6649 2.06436 12.5403 2.1916C12.4156 2.31883 12.3426 2.48939 12.3358 2.66919C12.329 2.84899 12.3889 3.0248 12.5036 3.16147L13.0566 3.72586H10.5506C10.3649 3.72586 10.1869 3.80113 10.0556 3.93511C9.92432 4.06909 9.85057 4.2508 9.85057 4.44028C9.85057 4.62975 9.92432 4.81147 10.0556 4.94545C10.1869 5.07943 10.3649 5.1547 10.5506 5.1547ZM13.7006 9.75556C13.5466 9.75556 13.3856 9.70555 13.2316 9.66983C12.9197 9.59969 12.6132 9.50657 12.3146 9.3912C11.9898 9.27063 11.6329 9.27689 11.3124 9.40878C10.9919 9.54067 10.7305 9.78887 10.5786 10.1056L10.4246 10.4271C9.74277 10.04 9.11626 9.55926 8.56257 8.99827C8.01291 8.43318 7.54185 7.79376 7.16257 7.09792L7.45657 6.89788C7.76693 6.74279 8.01012 6.47604 8.13935 6.14895C8.26858 5.82186 8.27471 5.45755 8.15657 5.12612C8.04543 4.82065 7.95423 4.508 7.88357 4.19023C7.84857 4.03306 7.82057 3.86874 7.79957 3.70442C7.71457 3.2012 7.45631 2.74549 7.07131 2.41935C6.68631 2.09322 6.19986 1.9181 5.69957 1.92552H3.59957C3.2979 1.92263 2.99915 1.98611 2.72367 2.11165C2.44819 2.23718 2.20245 2.42182 2.00318 2.653C1.8039 2.88418 1.65577 3.15646 1.56887 3.45132C1.48196 3.74617 1.45833 4.05668 1.49958 4.36169C1.87249 7.35467 3.21179 10.1355 5.30593 12.2651C7.40007 14.3946 10.1297 15.7513 13.0636 16.121H13.3296C13.8458 16.1218 14.3441 15.9285 14.7296 15.5781C14.951 15.3759 15.1279 15.1281 15.2486 14.851C15.3693 14.5739 15.4309 14.2739 15.4296 13.9706V11.8274C15.421 11.3311 15.2439 10.8533 14.9286 10.4755C14.6133 10.0976 14.1792 9.84316 13.7006 9.75556ZM14.0506 14.0421C14.0504 14.1435 14.0292 14.2438 13.9881 14.3361C13.9471 14.4285 13.8872 14.5109 13.8126 14.5779C13.7344 14.6468 13.6429 14.6983 13.5441 14.7291C13.4452 14.7598 13.3412 14.7692 13.2386 14.7565C10.617 14.4134 8.18194 13.1894 6.31747 11.2775C4.45301 9.36555 3.26526 6.87454 2.94157 4.19737C2.93043 4.09272 2.9402 3.98686 2.97028 3.88617C3.00035 3.78548 3.05012 3.69206 3.11657 3.61155C3.18217 3.53534 3.26292 3.47427 3.35344 3.43239C3.44396 3.3905 3.54219 3.36878 3.64157 3.36865H5.74157C5.90436 3.36495 6.06331 3.41928 6.19107 3.5223C6.31884 3.62531 6.40742 3.77056 6.44157 3.93304C6.46957 4.12831 6.50457 4.32121 6.54657 4.51172C6.62744 4.88832 6.73505 5.25842 6.86857 5.61907L5.88857 6.08344C5.80478 6.12268 5.72941 6.17842 5.66678 6.24747C5.60416 6.31652 5.55551 6.39751 5.52364 6.4858C5.49177 6.57409 5.4773 6.66793 5.48107 6.76194C5.48483 6.85595 5.50675 6.94828 5.54557 7.03362C6.55301 9.236 8.28764 11.0064 10.4456 12.0346C10.616 12.106 10.8071 12.106 10.9776 12.0346C11.0649 12.0027 11.1451 11.9534 11.2136 11.8897C11.2821 11.8259 11.3375 11.7489 11.3766 11.6631L11.8106 10.6629C12.1724 10.795 12.5418 10.9047 12.9166 10.9915C13.1032 11.0344 13.2922 11.0701 13.4836 11.0987C13.6428 11.1335 13.7851 11.2239 13.886 11.3543C13.987 11.4847 14.0402 11.647 14.0366 11.8131L14.0506 14.0421Z" fill="white"/>
</svg>
