<svg width="25" height="25" viewBox="0 0 25 25" fill="none" xmlns="http://www.w3.org/2000/svg">
<path d="M19.7101 13.9449C19.4901 13.9449 19.2601 13.8749 19.0401 13.8249C18.5946 13.7268 18.1568 13.5964 17.7301 13.4349C17.2662 13.2662 16.7563 13.2749 16.2984 13.4595C15.8406 13.6442 15.4672 13.9916 15.2501 14.4349L15.0301 14.8849C14.0561 14.3431 13.1611 13.6702 12.3701 12.8849C11.5849 12.094 10.9119 11.1989 10.3701 10.2249L10.7901 9.94494C11.2335 9.72785 11.5809 9.35447 11.7655 8.89663C11.9501 8.43879 11.9589 7.92885 11.7901 7.46494C11.6313 7.03736 11.5011 6.59973 11.4001 6.15494C11.3501 5.93494 11.3101 5.70494 11.2801 5.47494C11.1587 4.77056 10.7897 4.13268 10.2397 3.67618C9.68974 3.21967 8.99482 2.97455 8.28012 2.98494H5.28012C4.84915 2.98089 4.42237 3.06975 4.02883 3.24547C3.63529 3.42118 3.28423 3.67963 2.99955 4.00322C2.71487 4.3268 2.50325 4.70793 2.37911 5.12065C2.25496 5.53337 2.2212 5.968 2.28012 6.39494C2.81286 10.5843 4.72615 14.4768 7.71777 17.4576C10.7094 20.4383 14.6088 22.3374 18.8001 22.8549H19.1801C19.9175 22.856 20.6295 22.5855 21.1801 22.0949C21.4965 21.812 21.7492 21.4651 21.9216 21.0773C22.094 20.6894 22.1821 20.2694 22.1801 19.8449V16.8449C22.1679 16.1503 21.9149 15.4815 21.4645 14.9526C21.014 14.4237 20.3939 14.0676 19.7101 13.9449ZM20.2101 19.9449C20.2099 20.0869 20.1795 20.2272 20.1209 20.3566C20.0623 20.4859 19.9768 20.6012 19.8701 20.6949C19.7587 20.7919 19.6281 20.8644 19.4868 20.9074C19.3455 20.9505 19.1967 20.9633 19.0501 20.9449C15.305 20.4647 11.8264 18.7514 9.16284 16.0752C6.49932 13.399 4.80253 9.91227 4.34012 6.16494C4.32421 6.01845 4.33815 5.87027 4.38112 5.72933C4.42409 5.58839 4.49519 5.45762 4.59012 5.34494C4.68383 5.23827 4.79918 5.15278 4.9285 5.09415C5.05782 5.03553 5.19814 5.00512 5.34012 5.00494H8.34012C8.57267 4.99976 8.79974 5.07582 8.98226 5.22001C9.16478 5.3642 9.29133 5.56751 9.34012 5.79494C9.38012 6.06827 9.43012 6.33827 9.49012 6.60494C9.60564 7.13208 9.75938 7.65012 9.95012 8.15494L8.55012 8.80494C8.43042 8.85986 8.32274 8.93788 8.23328 9.03453C8.14381 9.13118 8.07432 9.24455 8.02879 9.36813C7.98326 9.49171 7.96259 9.62307 7.96797 9.75466C7.97334 9.88625 8.00466 10.0155 8.06012 10.1349C9.49932 13.2177 11.9774 15.6957 15.0601 17.1349C15.3036 17.235 15.5767 17.235 15.8201 17.1349C15.9448 17.0903 16.0594 17.0214 16.1573 16.9321C16.2551 16.8429 16.3343 16.735 16.3901 16.6149L17.0101 15.2149C17.5271 15.3998 18.0547 15.5534 18.5901 15.6749C18.8568 15.7349 19.1268 15.7849 19.4001 15.8249C19.6276 15.8737 19.8309 16.0003 19.975 16.1828C20.1192 16.3653 20.1953 16.5924 20.1901 16.8249L20.2101 19.9449Z" fill="white"/>
</svg>
