<svg width="26" height="22" viewBox="0 0 26 22" fill="none" xmlns="http://www.w3.org/2000/svg">
<path d="M21.8604 4.12503H20.2604L19.8604 2.87503C19.601 2.14157 19.12 1.50691 18.484 1.05898C17.8479 0.611051 17.0883 0.372029 16.3104 0.375028H9.91035C9.12479 0.376498 8.35952 0.624632 7.72256 1.08441C7.0856 1.54419 6.60911 2.19239 6.36035 2.93753L5.96035 4.18753H4.36035C3.36579 4.18753 2.41196 4.58262 1.7087 5.28588C1.00544 5.98914 0.610352 6.94297 0.610352 7.93753V17.9375C0.610352 18.9321 1.00544 19.8859 1.7087 20.5892C2.41196 21.2924 3.36579 21.6875 4.36035 21.6875H21.8604C22.8549 21.6875 23.8087 21.2924 24.512 20.5892C25.2153 19.8859 25.6104 18.9321 25.6104 17.9375V7.93753C25.6186 7.43984 25.5278 6.94547 25.343 6.48326C25.1583 6.02105 24.8834 5.60025 24.5343 5.24538C24.1853 4.89052 23.7691 4.60869 23.31 4.41634C22.8509 4.22399 22.3581 4.12496 21.8604 4.12503ZM23.1104 17.875C23.1104 18.2065 22.9787 18.5245 22.7442 18.7589C22.5098 18.9933 22.1919 19.125 21.8604 19.125H4.36035C4.02883 19.125 3.71089 18.9933 3.47647 18.7589C3.24205 18.5245 3.11035 18.2065 3.11035 17.875V7.87503C3.11035 7.54351 3.24205 7.22557 3.47647 6.99114C3.71089 6.75672 4.02883 6.62503 4.36035 6.62503H6.86035C7.13293 6.63926 7.40268 6.56387 7.62839 6.41039C7.85411 6.2569 8.02338 6.03375 8.11035 5.77503L8.78535 3.72503C8.86921 3.47675 9.02897 3.26111 9.24206 3.10858C9.45516 2.95605 9.7108 2.87435 9.97285 2.87503H16.3729C16.6349 2.87435 16.8905 2.95605 17.1036 3.10858C17.3167 3.26111 17.4765 3.47675 17.5604 3.72503L18.2354 5.77503C18.3156 6.01346 18.4658 6.22214 18.6666 6.37379C18.8673 6.52544 19.1091 6.613 19.3604 6.62503H21.8604C22.1919 6.62503 22.5098 6.75672 22.7442 6.99114C22.9787 7.22557 23.1104 7.54351 23.1104 7.87503V17.875ZM13.1104 6.62503C12.1214 6.62503 11.1547 6.91827 10.3325 7.46768C9.51026 8.01709 8.86939 8.79798 8.49095 9.71161C8.11252 10.6252 8.0135 11.6306 8.20642 12.6005C8.39935 13.5704 8.87555 14.4613 9.57482 15.1606C10.2741 15.8598 11.165 16.336 12.1349 16.529C13.1048 16.7219 14.1101 16.6229 15.0238 16.2444C15.9374 15.866 16.7183 15.2251 17.2677 14.4029C17.8171 13.5806 18.1104 12.6139 18.1104 11.625C18.1104 10.2989 17.5836 9.02718 16.6459 8.08949C15.7082 7.15181 14.4364 6.62503 13.1104 6.62503V6.62503ZM13.1104 14.125C12.6159 14.125 12.1325 13.9784 11.7214 13.7037C11.3103 13.429 10.9899 13.0386 10.8007 12.5817C10.6114 12.1249 10.5619 11.6223 10.6584 11.1373C10.7549 10.6523 10.993 10.2069 11.3426 9.85726C11.6922 9.50763 12.1377 9.26953 12.6226 9.17306C13.1076 9.0766 13.6102 9.12611 14.0671 9.31533C14.5239 9.50455 14.9143 9.82498 15.189 10.2361C15.4637 10.6472 15.6104 11.1306 15.6104 11.625C15.6104 12.2881 15.347 12.924 14.8781 13.3928C14.4093 13.8616 13.7734 14.125 13.1104 14.125Z" fill="black"/>
</svg>
