<svg width="21" height="21" viewBox="0 0 21 21" fill="none" xmlns="http://www.w3.org/2000/svg">
<path d="M13.3718 7.30833C13.2943 7.23023 13.2022 7.16823 13.1006 7.12592C12.9991 7.08362 12.8902 7.06183 12.7801 7.06183C12.6701 7.06183 12.5612 7.08362 12.4597 7.12592C12.3581 7.16823 12.266 7.23023 12.1885 7.30833L10.2801 9.225L8.37182 7.30833C8.2149 7.15141 8.00207 7.06326 7.78015 7.06326C7.55823 7.06326 7.3454 7.15141 7.18848 7.30833C7.03156 7.46525 6.94341 7.67808 6.94341 7.9C6.94341 8.12192 7.03156 8.33475 7.18848 8.49167L9.10515 10.4L7.18848 12.3083C7.11037 12.3858 7.04838 12.478 7.00607 12.5795C6.96377 12.6811 6.94198 12.79 6.94198 12.9C6.94198 13.01 6.96377 13.1189 7.00607 13.2205C7.04838 13.322 7.11037 13.4142 7.18848 13.4917C7.26595 13.5698 7.35812 13.6318 7.45967 13.6741C7.56122 13.7164 7.67014 13.7382 7.78015 13.7382C7.89016 13.7382 7.99908 13.7164 8.10063 13.6741C8.20218 13.6318 8.29435 13.5698 8.37182 13.4917L10.2801 11.575L12.1885 13.4917C12.266 13.5698 12.3581 13.6318 12.4597 13.6741C12.5612 13.7164 12.6701 13.7382 12.7801 13.7382C12.8902 13.7382 12.9991 13.7164 13.1006 13.6741C13.2022 13.6318 13.2943 13.5698 13.3718 13.4917C13.4499 13.4142 13.5119 13.322 13.5542 13.2205C13.5965 13.1189 13.6183 13.01 13.6183 12.9C13.6183 12.79 13.5965 12.6811 13.5542 12.5795C13.5119 12.478 13.4499 12.3858 13.3718 12.3083L11.4551 10.4L13.3718 8.49167C13.4499 8.4142 13.5119 8.32203 13.5542 8.22048C13.5965 8.11893 13.6183 8.01001 13.6183 7.9C13.6183 7.78999 13.5965 7.68107 13.5542 7.57952C13.5119 7.47797 13.4499 7.3858 13.3718 7.30833ZM16.1718 4.50833C15.4031 3.71241 14.4836 3.07756 13.4669 2.64082C12.4502 2.20408 11.3567 1.97419 10.2502 1.96458C9.14366 1.95496 8.04633 2.16581 7.0222 2.58482C5.99806 3.00383 5.06763 3.6226 4.28519 4.40504C3.50275 5.18748 2.88398 6.11791 2.46497 7.14205C2.04596 8.16618 1.83511 9.26351 1.84473 10.37C1.85434 11.4765 2.08423 12.57 2.52097 13.5867C2.95771 14.6034 3.59256 15.5229 4.38848 16.2917C5.15721 17.0876 6.07674 17.7224 7.09344 18.1592C8.11014 18.5959 9.20364 18.8258 10.3101 18.8354C11.4166 18.845 12.514 18.6342 13.5381 18.2152C14.5622 17.7962 15.4927 17.1774 16.2751 16.395C17.0575 15.6125 17.6763 14.6821 18.0953 13.6579C18.5143 12.6338 18.7252 11.5365 18.7156 10.43C18.706 9.32349 18.4761 8.22999 18.0393 7.21329C17.6026 6.19659 16.9677 5.27706 16.1718 4.50833ZM14.9968 15.1167C13.9068 16.2078 12.4723 16.8874 10.9375 17.0394C9.40269 17.1915 7.86265 16.8067 6.57975 15.9506C5.29685 15.0946 4.35045 13.8202 3.90179 12.3446C3.45314 10.869 3.52999 9.28345 4.11924 7.85815C4.7085 6.43285 5.77371 5.25596 7.13339 4.52797C8.49307 3.79998 10.0631 3.56594 11.576 3.86573C13.0889 4.16551 14.451 4.98058 15.4303 6.17205C16.4097 7.36352 16.9456 8.8577 16.9468 10.4C16.9498 11.2761 16.779 12.144 16.4443 12.9537C16.1095 13.7633 15.6176 14.4985 14.9968 15.1167Z" fill="#EF3B85"/>
</svg>
