<svg width="26" height="25" viewBox="0 0 26 25" fill="none" xmlns="http://www.w3.org/2000/svg">
<path d="M22.4195 17.9688L19.5966 13.0938C20.1742 12.0328 20.4752 10.8434 20.4716 9.63542C20.4716 7.70155 19.7034 5.84688 18.3359 4.47943C16.9685 3.11198 15.1138 2.34375 13.1799 2.34375C11.2461 2.34375 9.39139 3.11198 8.02394 4.47943C6.65649 5.84688 5.88826 7.70155 5.88826 9.63542C5.88467 10.8434 6.18561 12.0328 6.76326 13.0938L3.94034 17.9688C3.84874 18.1274 3.8006 18.3074 3.80078 18.4906C3.80096 18.6738 3.84946 18.8537 3.94137 19.0122C4.03329 19.1707 4.16538 19.3021 4.32431 19.3933C4.48324 19.4844 4.66339 19.532 4.84659 19.5313H7.83618L9.35701 22.0938C9.40828 22.1787 9.47142 22.2558 9.54451 22.3229C9.73761 22.509 9.99506 22.6135 10.2633 22.6146H10.4091C10.5664 22.5931 10.7166 22.5359 10.8484 22.4474C10.9802 22.359 11.09 22.2416 11.1695 22.1042L13.1799 18.6458L15.1903 22.1354C15.271 22.2709 15.3813 22.3862 15.5131 22.4729C15.6448 22.5595 15.7944 22.615 15.9508 22.6354H16.0966C16.3684 22.6371 16.6301 22.5324 16.8258 22.3438C16.8958 22.2805 16.9556 22.2067 17.0028 22.125L18.5237 19.5625H21.5133C21.6968 19.5632 21.8773 19.5154 22.0364 19.424C22.1956 19.3325 22.3277 19.2006 22.4195 19.0417C22.5168 18.8797 22.5683 18.6942 22.5683 18.5052C22.5683 18.3162 22.5168 18.1308 22.4195 17.9688ZM10.2528 19.5625L9.32576 18.0104C9.23447 17.8564 9.10504 17.7286 8.94995 17.6392C8.79486 17.5498 8.61935 17.5018 8.44034 17.5H6.63826L8.12784 14.9167C9.1536 15.9051 10.4464 16.5714 11.8466 16.8333L10.2528 19.5625ZM13.1799 14.8438C12.1498 14.8438 11.1428 14.5383 10.2863 13.966C9.42983 13.3937 8.76226 12.5803 8.36805 11.6286C7.97385 10.6769 7.8707 9.62964 8.07167 8.61932C8.27263 7.609 8.76868 6.68097 9.49708 5.95257C10.2255 5.22417 11.1535 4.72812 12.1638 4.52716C13.1741 4.3262 14.2214 4.42934 15.1731 4.82354C16.1248 5.21775 16.9382 5.88532 17.5105 6.74182C18.0828 7.59833 18.3883 8.60531 18.3883 9.63542C18.3883 11.0168 17.8395 12.3415 16.8628 13.3183C15.886 14.295 14.5613 14.8438 13.1799 14.8438ZM17.9195 17.5C17.7405 17.5018 17.565 17.5498 17.4099 17.6392C17.2548 17.7286 17.1254 17.8564 17.0341 18.0104L16.107 19.5625L14.5237 16.8021C15.919 16.5348 17.207 15.8691 18.232 14.8854L19.7216 17.4688L17.9195 17.5Z" fill="#EF3B85"/>
</svg>
