<svg width="20" height="20" viewBox="0 0 20 20" fill="none" xmlns="http://www.w3.org/2000/svg">
<path d="M9.52837 1.66669C7.9626 1.66669 6.43199 2.15543 5.1301 3.07111C3.82821 3.98679 2.81351 5.28827 2.21432 6.81099C1.61512 8.33371 1.45835 10.0093 1.76381 11.6258C2.06928 13.2423 2.82327 14.7271 3.93044 15.8926C5.0376 17.058 6.44822 17.8517 7.9839 18.1732C9.51958 18.4948 11.1114 18.3297 12.5579 17.699C14.0045 17.0683 15.2409 16.0002 16.1108 14.6298C16.9807 13.2594 17.445 11.6482 17.445 10C17.445 8.90567 17.2403 7.82204 16.8424 6.81099C16.4446 5.79994 15.8614 4.88129 15.1263 4.10746C14.3912 3.33364 13.5184 2.71981 12.5579 2.30102C11.5974 1.88224 10.568 1.66669 9.52837 1.66669ZM9.52837 16.6667C8.27575 16.6667 7.05126 16.2757 6.00975 15.5432C4.96824 14.8106 4.15648 13.7694 3.67713 12.5512C3.19777 11.3331 3.07235 9.99263 3.31672 8.69942C3.5611 7.40621 4.16429 6.21833 5.05002 5.28598C5.93575 4.35363 7.06425 3.71869 8.29279 3.46145C9.52134 3.20422 10.7948 3.33624 11.952 3.84082C13.1093 4.34541 14.0984 5.19989 14.7943 6.29622C15.4903 7.39255 15.8617 8.68148 15.8617 10C15.8617 11.7681 15.1944 13.4638 14.0067 14.7141C12.819 15.9643 11.2081 16.6667 9.52837 16.6667ZM9.52837 5.00002C9.3184 5.00002 9.11704 5.08782 8.96857 5.2441C8.82011 5.40038 8.7367 5.61234 8.7367 5.83335V9.51669L7.0742 10.525C6.92169 10.616 6.80218 10.7577 6.7344 10.9278C6.66662 11.098 6.65442 11.287 6.6997 11.4653C6.74498 11.6436 6.84518 11.8009 6.98459 11.9128C7.124 12.0247 7.29474 12.0846 7.47003 12.0834C7.60871 12.0844 7.74521 12.047 7.86586 11.975L9.9242 10.725L9.99545 10.65L10.1221 10.5417C10.1531 10.5004 10.1796 10.4557 10.2013 10.4084C10.2271 10.3636 10.2483 10.3161 10.2646 10.2667C10.2861 10.2137 10.2995 10.1574 10.3042 10.1L10.32 10V5.83335C10.32 5.61234 10.2366 5.40038 10.0882 5.2441C9.93969 5.08782 9.73833 5.00002 9.52837 5.00002Z" fill="#EF3B85"/>
</svg>
