<svg width="24" height="23" viewBox="0 0 24 23" fill="none" xmlns="http://www.w3.org/2000/svg">
<path d="M13.2896 11.3183L17.3439 7.38583C17.5214 7.21321 17.6211 6.9791 17.6211 6.73499C17.6211 6.49088 17.5214 6.25677 17.3439 6.08416C17.1663 5.91155 16.9255 5.81458 16.6744 5.81458C16.4233 5.81458 16.1825 5.91155 16.005 6.08416L11.9602 10.0258L7.9153 6.08416C7.73775 5.91155 7.49695 5.81458 7.24587 5.81458C6.99479 5.81458 6.75399 5.91155 6.57644 6.08416C6.3989 6.25677 6.29916 6.49088 6.29916 6.73499C6.29916 6.9791 6.3989 7.21321 6.57644 7.38583L10.6307 11.3183L6.57644 15.2508C6.48807 15.336 6.41793 15.4374 6.37006 15.5491C6.32219 15.6608 6.29755 15.7806 6.29755 15.9017C6.29755 16.0227 6.32219 16.1425 6.37006 16.2542C6.41793 16.3659 6.48807 16.4673 6.57644 16.5525C6.66409 16.6384 6.76837 16.7066 6.88327 16.7531C6.99816 16.7997 7.1214 16.8236 7.24587 16.8236C7.37034 16.8236 7.49357 16.7997 7.60847 16.7531C7.72337 16.7066 7.82765 16.6384 7.9153 16.5525L11.9602 12.6108L16.005 16.5525C16.0927 16.6384 16.1969 16.7066 16.3118 16.7531C16.4267 16.7997 16.55 16.8236 16.6744 16.8236C16.7989 16.8236 16.9221 16.7997 17.037 16.7531C17.1519 16.7066 17.2562 16.6384 17.3439 16.5525C17.4322 16.4673 17.5024 16.3659 17.5502 16.2542C17.5981 16.1425 17.6228 16.0227 17.6228 15.9017C17.6228 15.7806 17.5981 15.6608 17.5502 15.5491C17.5024 15.4374 17.4322 15.336 17.3439 15.2508L13.2896 11.3183Z" fill="white"/>
</svg>
