<svg width="21" height="21" viewBox="0 0 21 21" fill="none" xmlns="http://www.w3.org/2000/svg">
<path d="M18.2802 7.78016C18.2715 7.70361 18.2547 7.62819 18.2302 7.55516V7.48016C18.1901 7.39448 18.1366 7.31571 18.0718 7.24683L13.0718 2.24683C13.0029 2.18201 12.9242 2.12856 12.8385 2.08849C12.8136 2.08496 12.7884 2.08496 12.7635 2.08849C12.6788 2.03994 12.5853 2.00878 12.4885 1.99683H9.11348C8.45044 1.99683 7.81456 2.26022 7.34572 2.72906C6.87688 3.1979 6.61348 3.83379 6.61348 4.49683V5.33016H5.78015C5.11711 5.33016 4.48123 5.59355 4.01238 6.06239C3.54354 6.53123 3.28015 7.16712 3.28015 7.83016V16.1635C3.28015 16.8265 3.54354 17.4624 4.01238 17.9313C4.48123 18.4001 5.11711 18.6635 5.78015 18.6635H12.4468C13.1099 18.6635 13.7457 18.4001 14.2146 17.9313C14.6834 17.4624 14.9468 16.8265 14.9468 16.1635V15.3302H15.7802C16.4432 15.3302 17.0791 15.0668 17.5479 14.5979C18.0168 14.1291 18.2802 13.4932 18.2802 12.8302V7.83016C18.2802 7.83016 18.2802 7.83016 18.2802 7.78016ZM13.2802 4.83849L15.4385 6.99683H14.1135C13.8925 6.99683 13.6805 6.90903 13.5242 6.75275C13.3679 6.59647 13.2802 6.38451 13.2802 6.16349V4.83849ZM13.2802 16.1635C13.2802 16.3845 13.1924 16.5965 13.0361 16.7527C12.8798 16.909 12.6678 16.9968 12.4468 16.9968H5.78015C5.55914 16.9968 5.34718 16.909 5.1909 16.7527C5.03462 16.5965 4.94682 16.3845 4.94682 16.1635V7.83016C4.94682 7.60915 5.03462 7.39718 5.1909 7.2409C5.34718 7.08462 5.55914 6.99683 5.78015 6.99683H6.61348V12.8302C6.61348 13.4932 6.87688 14.1291 7.34572 14.5979C7.81456 15.0668 8.45044 15.3302 9.11348 15.3302H13.2802V16.1635ZM16.6135 12.8302C16.6135 13.0512 16.5257 13.2631 16.3694 13.4194C16.2131 13.5757 16.0012 13.6635 15.7802 13.6635H9.11348C8.89247 13.6635 8.68051 13.5757 8.52423 13.4194C8.36795 13.2631 8.28015 13.0512 8.28015 12.8302V4.49683C8.28015 4.27581 8.36795 4.06385 8.52423 3.90757C8.68051 3.75129 8.89247 3.66349 9.11348 3.66349H11.6135V6.16349C11.6135 6.82653 11.8769 7.46242 12.3457 7.93126C12.8146 8.4001 13.4504 8.66349 14.1135 8.66349H16.6135V12.8302Z" fill="#EF3B85"/>
</svg>
