<svg width="15" height="17" viewBox="0 0 15 17" fill="none" xmlns="http://www.w3.org/2000/svg">
<path fill-rule="evenodd" clip-rule="evenodd" d="M0.399902 3.86364C0.399902 3.43687 0.713303 3.09091 1.0999 3.09091H13.6999C14.0865 3.09091 14.3999 3.43687 14.3999 3.86364C14.3999 4.2904 14.0865 4.63636 13.6999 4.63636H1.0999C0.713303 4.63636 0.399902 4.2904 0.399902 3.86364Z" fill="white"/>
<path fill-rule="evenodd" clip-rule="evenodd" d="M5.9999 1.54545C5.81425 1.54545 5.6362 1.62687 5.50493 1.77178C5.37365 1.9167 5.2999 2.11324 5.2999 2.31818V3.09091H9.4999V2.31818C9.4999 2.11324 9.42615 1.9167 9.29488 1.77178C9.1636 1.62687 8.98555 1.54545 8.7999 1.54545H5.9999ZM10.8999 3.09091V2.31818C10.8999 1.70336 10.6787 1.11372 10.2848 0.67898C9.891 0.244236 9.35686 0 8.7999 0H5.9999C5.44295 0 4.9088 0.244236 4.51498 0.67898C4.12115 1.11372 3.8999 1.70336 3.8999 2.31818V3.09091H2.4999C2.1133 3.09091 1.7999 3.43687 1.7999 3.86364V14.6818C1.7999 15.2966 2.02115 15.8863 2.41498 16.321C2.8088 16.7558 3.34295 17 3.8999 17H10.8999C11.4569 17 11.991 16.7558 12.3848 16.321C12.7787 15.8863 12.9999 15.2966 12.9999 14.6818V3.86364C12.9999 3.43687 12.6865 3.09091 12.2999 3.09091H10.8999ZM3.1999 4.63636V14.6818C3.1999 14.8868 3.27365 15.0833 3.40493 15.2282C3.5362 15.3731 3.71425 15.4545 3.8999 15.4545H10.8999C11.0856 15.4545 11.2636 15.3731 11.3949 15.2282C11.5262 15.0833 11.5999 14.8868 11.5999 14.6818V4.63636H3.1999Z" fill="white"/>
<path fill-rule="evenodd" clip-rule="evenodd" d="M5.9999 6.95455C6.3865 6.95455 6.6999 7.30051 6.6999 7.72727V12.3636C6.6999 12.7904 6.3865 13.1364 5.9999 13.1364C5.6133 13.1364 5.2999 12.7904 5.2999 12.3636V7.72727C5.2999 7.30051 5.6133 6.95455 5.9999 6.95455Z" fill="white"/>
<path fill-rule="evenodd" clip-rule="evenodd" d="M8.7999 6.95455C9.1865 6.95455 9.4999 7.30051 9.4999 7.72727V12.3636C9.4999 12.7904 9.1865 13.1364 8.7999 13.1364C8.4133 13.1364 8.0999 12.7904 8.0999 12.3636V7.72727C8.0999 7.30051 8.4133 6.95455 8.7999 6.95455Z" fill="white"/>
</svg>
