<svg width="25" height="24" viewBox="0 0 25 24" fill="none" xmlns="http://www.w3.org/2000/svg">
<path d="M15.2803 8.79L10.9903 13.09L9.34031 11.44C9.25066 11.3353 9.14034 11.2503 9.01628 11.1903C8.89221 11.1303 8.75708 11.0965 8.61936 11.0912C8.48164 11.0859 8.34431 11.1091 8.21598 11.1594C8.08766 11.2096 7.97111 11.2859 7.87366 11.3833C7.7762 11.4808 7.69994 11.5974 7.64967 11.7257C7.5994 11.854 7.57619 11.9913 7.58151 12.1291C7.58683 12.2668 7.62056 12.4019 7.68058 12.526C7.7406 12.65 7.82563 12.7604 7.93031 12.85L10.2803 15.21C10.3737 15.3027 10.4846 15.376 10.6064 15.4258C10.7282 15.4755 10.8587 15.5008 10.9903 15.5C11.2526 15.4989 11.504 15.3947 11.6903 15.21L16.6903 10.21C16.784 10.117 16.8584 10.0064 16.9092 9.88458C16.96 9.76272 16.9861 9.63201 16.9861 9.5C16.9861 9.36799 16.96 9.23728 16.9092 9.11542C16.8584 8.99356 16.784 8.88296 16.6903 8.79C16.5029 8.60375 16.2495 8.49921 15.9853 8.49921C15.7211 8.49921 15.4677 8.60375 15.2803 8.79ZM12.5603 2C10.5825 2 8.6491 2.58649 7.0046 3.6853C5.36011 4.78412 4.07839 6.3459 3.32151 8.17317C2.56464 10.0004 2.3666 12.0111 2.75245 13.9509C3.13831 15.8907 4.09071 17.6725 5.48924 19.0711C6.88776 20.4696 8.66959 21.422 10.6094 21.8079C12.5492 22.1937 14.5599 21.9957 16.3871 21.2388C18.2144 20.4819 19.7762 19.2002 20.875 17.5557C21.9738 15.9112 22.5603 13.9778 22.5603 12C22.5603 10.6868 22.3016 9.38642 21.7991 8.17317C21.2966 6.95991 20.56 5.85752 19.6314 4.92893C18.7028 4.00035 17.6004 3.26375 16.3871 2.7612C15.1739 2.25866 13.8735 2 12.5603 2V2ZM12.5603 20C10.9781 20 9.43134 19.5308 8.11575 18.6518C6.80015 17.7727 5.77477 16.5233 5.16927 15.0615C4.56377 13.5997 4.40534 11.9911 4.71403 10.4393C5.02271 8.88743 5.78463 7.46197 6.90345 6.34315C8.02227 5.22433 9.44774 4.4624 10.9996 4.15372C12.5514 3.84504 14.16 4.00346 15.6218 4.60896C17.0836 5.21447 18.333 6.23984 19.2121 7.55544C20.0911 8.87103 20.5603 10.4177 20.5603 12C20.5603 14.1217 19.7175 16.1566 18.2172 17.6569C16.7169 19.1571 14.682 20 12.5603 20V20Z" fill="#15B412"/>
</svg>
