<svg width="16" height="16" viewBox="0 0 16 16" fill="none" xmlns="http://www.w3.org/2000/svg">
<rect width="15" height="15" transform="translate(0.880371 0.0200195)" fill="white"/>
<path d="M14.0054 7.52004C13.8396 7.52004 13.6806 7.58589 13.5634 7.7031C13.4462 7.82031 13.3804 7.97928 13.3804 8.14504V11.895C13.3804 12.0608 13.3145 12.2198 13.1973 12.337C13.0801 12.4542 12.9211 12.52 12.7554 12.52H4.00537C3.83961 12.52 3.68064 12.4542 3.56343 12.337C3.44622 12.2198 3.38037 12.0608 3.38037 11.895V3.14504C3.38037 2.97928 3.44622 2.82031 3.56343 2.7031C3.68064 2.58589 3.83961 2.52004 4.00537 2.52004H7.75537C7.92113 2.52004 8.0801 2.45419 8.19731 2.33698C8.31452 2.21977 8.38037 2.0608 8.38037 1.89504C8.38037 1.72928 8.31452 1.57031 8.19731 1.4531C8.0801 1.33589 7.92113 1.27004 7.75537 1.27004H4.00537C3.50809 1.27004 3.03118 1.46759 2.67955 1.81922C2.32792 2.17085 2.13037 2.64776 2.13037 3.14504V11.895C2.13037 12.3923 2.32792 12.8692 2.67955 13.2209C3.03118 13.5725 3.50809 13.77 4.00537 13.77H12.7554C13.2527 13.77 13.7296 13.5725 14.0812 13.2209C14.4328 12.8692 14.6304 12.3923 14.6304 11.895V8.14504C14.6304 7.97928 14.5645 7.82031 14.4473 7.7031C14.3301 7.58589 14.1711 7.52004 14.0054 7.52004ZM4.63037 7.99504V10.645C4.63037 10.8108 4.69622 10.9698 4.81343 11.087C4.93064 11.2042 5.08961 11.27 5.25537 11.27H7.90537C7.98763 11.2705 8.06916 11.2548 8.14531 11.2236C8.22146 11.1925 8.29072 11.1467 8.34912 11.0888L12.6741 6.75754L14.4491 5.02004C14.5077 4.96194 14.5542 4.89281 14.5859 4.81665C14.6177 4.74049 14.634 4.6588 14.634 4.57629C14.634 4.49378 14.6177 4.41209 14.5859 4.33593C14.5542 4.25977 14.5077 4.19064 14.4491 4.13254L11.7991 1.45129C11.741 1.39271 11.6719 1.34622 11.5957 1.31449C11.5196 1.28275 11.4379 1.26642 11.3554 1.26642C11.2729 1.26642 11.1912 1.28275 11.115 1.31449C11.0388 1.34622 10.9697 1.39271 10.9116 1.45129L9.14912 3.22004L4.81162 7.55129C4.7537 7.60969 4.70787 7.67895 4.67676 7.7551C4.64566 7.83125 4.6299 7.91279 4.63037 7.99504ZM11.3554 2.77629L13.1241 4.54504L12.2366 5.43254L10.4679 3.66379L11.3554 2.77629ZM5.88037 8.25129L9.58662 4.54504L11.3554 6.31379L7.64912 10.02H5.88037V8.25129Z" fill="#EF3B85"/>
</svg>
