<svg width="14" height="13" viewBox="0 0 14 13" fill="none" xmlns="http://www.w3.org/2000/svg">
    <path
        d="M12.5054 6.50002C12.3396 6.50002 12.1806 6.56587 12.0634 6.68308C11.9462 6.80029 11.8804 6.95926 11.8804 7.12502V10.875C11.8804 11.0408 11.8145 11.1998 11.6973 11.317C11.5801 11.4342 11.4211 11.5 11.2554 11.5H2.50537C2.33961 11.5 2.18064 11.4342 2.06343 11.317C1.94622 11.1998 1.88037 11.0408 1.88037 10.875V2.12502C1.88037 1.95926 1.94622 1.80029 2.06343 1.68308C2.18064 1.56587 2.33961 1.50002 2.50537 1.50002H6.25537C6.42113 1.50002 6.5801 1.43417 6.69731 1.31696C6.81452 1.19975 6.88037 1.04078 6.88037 0.875023C6.88037 0.709263 6.81452 0.550291 6.69731 0.433081C6.5801 0.315871 6.42113 0.250023 6.25537 0.250023H2.50537C2.00809 0.250023 1.53118 0.447567 1.17955 0.799198C0.827915 1.15083 0.630371 1.62774 0.630371 2.12502V10.875C0.630371 11.3723 0.827915 11.8492 1.17955 12.2008C1.53118 12.5525 2.00809 12.75 2.50537 12.75H11.2554C11.7527 12.75 12.2296 12.5525 12.5812 12.2008C12.9328 11.8492 13.1304 11.3723 13.1304 10.875V7.12502C13.1304 6.95926 13.0645 6.80029 12.9473 6.68308C12.8301 6.56587 12.6711 6.50002 12.5054 6.50002ZM3.13037 6.97502V9.62502C3.13037 9.79078 3.19622 9.94975 3.31343 10.067C3.43064 10.1842 3.58961 10.25 3.75537 10.25H6.40537C6.48763 10.2505 6.56916 10.2347 6.64531 10.2036C6.72146 10.1725 6.79072 10.1267 6.84912 10.0688L11.1741 5.73752L12.9491 4.00002C13.0077 3.94192 13.0542 3.8728 13.0859 3.79663C13.1177 3.72047 13.134 3.63878 13.134 3.55627C13.134 3.47377 13.1177 3.39207 13.0859 3.31591C13.0542 3.23975 13.0077 3.17062 12.9491 3.11252L10.2991 0.431273C10.241 0.372693 10.1719 0.326196 10.0957 0.294466C10.0196 0.262735 9.93788 0.246399 9.85537 0.246399C9.77286 0.246399 9.69117 0.262735 9.61501 0.294466C9.53885 0.326196 9.46972 0.372693 9.41162 0.431273L7.64912 2.20002L3.31162 6.53127C3.2537 6.58967 3.20787 6.65893 3.17676 6.73508C3.14566 6.81123 3.1299 6.89277 3.13037 6.97502ZM9.85537 1.75627L11.6241 3.52502L10.7366 4.41252L8.96787 2.64377L9.85537 1.75627ZM4.38037 7.23127L8.08662 3.52502L9.85537 5.29377L6.14912 9.00002H4.38037V7.23127Z"
        fill="#EF3B85" />
</svg>