<svg width="19" height="20" viewBox="0 0 19 20" fill="none" xmlns="http://www.w3.org/2000/svg">
<path d="M10.2916 12.7867H5.54159C5.33163 12.7867 5.13027 12.8701 4.9818 13.0185C4.83333 13.167 4.74992 13.3684 4.74992 13.5783C4.74992 13.7883 4.83333 13.9897 4.9818 14.1381C5.13027 14.2866 5.33163 14.37 5.54159 14.37H10.2916C10.5016 14.37 10.7029 14.2866 10.8514 14.1381C10.9998 13.9897 11.0833 13.7883 11.0833 13.5783C11.0833 13.3684 10.9998 13.167 10.8514 13.0185C10.7029 12.8701 10.5016 12.7867 10.2916 12.7867ZM7.12492 8.03668H8.70826C8.91822 8.03668 9.11958 7.95327 9.26805 7.8048C9.41652 7.65633 9.49992 7.45497 9.49992 7.24501C9.49992 7.03505 9.41652 6.83368 9.26805 6.68522C9.11958 6.53675 8.91822 6.45334 8.70826 6.45334H7.12492C6.91496 6.45334 6.7136 6.53675 6.56513 6.68522C6.41667 6.83368 6.33326 7.03505 6.33326 7.24501C6.33326 7.45497 6.41667 7.65633 6.56513 7.8048C6.7136 7.95327 6.91496 8.03668 7.12492 8.03668V8.03668ZM16.6249 9.62001H14.2499V2.49501C14.2505 2.35551 14.2142 2.21834 14.1446 2.09739C14.0751 1.97644 13.9749 1.87601 13.8541 1.80626C13.7337 1.73678 13.5972 1.7002 13.4583 1.7002C13.3193 1.7002 13.1828 1.73678 13.0624 1.80626L10.6874 3.16793L8.31242 1.80626C8.19208 1.73678 8.05556 1.7002 7.91659 1.7002C7.77762 1.7002 7.64111 1.73678 7.52076 1.80626L5.14576 3.16793L2.77076 1.80626C2.65041 1.73678 2.51389 1.7002 2.37492 1.7002C2.23596 1.7002 2.09944 1.73678 1.97909 1.80626C1.85828 1.87601 1.75804 1.97644 1.68853 2.09739C1.61902 2.21834 1.5827 2.35551 1.58326 2.49501V15.1617C1.58326 15.7916 1.83348 16.3957 2.27888 16.8411C2.72428 17.2865 3.32837 17.5367 3.95826 17.5367H15.0416C15.6715 17.5367 16.2756 17.2865 16.721 16.8411C17.1664 16.3957 17.4166 15.7916 17.4166 15.1617V10.4117C17.4166 10.2017 17.3332 10.0003 17.1847 9.85188C17.0363 9.70342 16.8349 9.62001 16.6249 9.62001ZM3.95826 15.9533C3.7483 15.9533 3.54693 15.8699 3.39847 15.7215C3.25 15.573 3.16659 15.3716 3.16659 15.1617V3.86459L4.74992 4.76709C4.87211 4.83091 5.00791 4.86424 5.14576 4.86424C5.2836 4.86424 5.41941 4.83091 5.54159 4.76709L7.91659 3.40543L10.2916 4.76709C10.4138 4.83091 10.5496 4.86424 10.6874 4.86424C10.8253 4.86424 10.9611 4.83091 11.0833 4.76709L12.6666 3.86459V15.1617C12.6687 15.4317 12.7169 15.6995 12.8091 15.9533H3.95826ZM15.8333 15.1617C15.8333 15.3716 15.7499 15.573 15.6014 15.7215C15.4529 15.8699 15.2516 15.9533 15.0416 15.9533C14.8316 15.9533 14.6303 15.8699 14.4818 15.7215C14.3333 15.573 14.2499 15.3716 14.2499 15.1617V11.2033H15.8333V15.1617ZM10.2916 9.62001H5.54159C5.33163 9.62001 5.13027 9.70342 4.9818 9.85188C4.83333 10.0003 4.74992 10.2017 4.74992 10.4117C4.74992 10.6216 4.83333 10.823 4.9818 10.9715C5.13027 11.1199 5.33163 11.2033 5.54159 11.2033H10.2916C10.5016 11.2033 10.7029 11.1199 10.8514 10.9715C10.9998 10.823 11.0833 10.6216 11.0833 10.4117C11.0833 10.2017 10.9998 10.0003 10.8514 9.85188C10.7029 9.70342 10.5016 9.62001 10.2916 9.62001Z" fill="#535353"/>
</svg>
