<svg width="21" height="21" viewBox="0 0 21 21" fill="none" xmlns="http://www.w3.org/2000/svg">
<path d="M18.4401 11.6398C18.2201 11.6398 17.9901 11.5698 17.7701 11.5198C17.3246 11.4216 16.8868 11.2912 16.4601 11.1298C15.9962 10.961 15.4862 10.9698 15.0284 11.1544C14.5706 11.339 14.1972 11.6864 13.9801 12.1298L13.7601 12.5798C12.7861 12.0379 11.8911 11.365 11.1001 10.5798C10.3149 9.78878 9.64192 8.89376 9.1001 7.91976L9.5201 7.63976C9.96347 7.42268 10.3109 7.04929 10.4955 6.59145C10.6801 6.13361 10.6889 5.62367 10.5201 5.15976C10.3613 4.73218 10.231 4.29456 10.1301 3.84976C10.0801 3.62976 10.0401 3.39976 10.0101 3.16976C9.88867 2.46538 9.51973 1.8275 8.96972 1.371C8.41972 0.914497 7.7248 0.66937 7.0101 0.679761H4.0101C3.57913 0.675714 3.15235 0.764574 2.75881 0.940291C2.36527 1.11601 2.01421 1.37446 1.72953 1.69804C1.44485 2.02163 1.23324 2.40275 1.10909 2.81547C0.984942 3.2282 0.95118 3.66282 1.0101 4.08976C1.54284 8.27914 3.45613 12.1716 6.44775 15.1524C9.43938 18.1332 13.3388 20.0323 17.5301 20.5498H17.9101C18.6475 20.5508 19.3595 20.2803 19.9101 19.7898C20.2265 19.5068 20.4792 19.1599 20.6516 18.7721C20.8239 18.3842 20.9121 17.9642 20.9101 17.5398V14.5398C20.8979 13.8451 20.6449 13.1763 20.1944 12.6474C19.744 12.1185 19.1239 11.7624 18.4401 11.6398ZM18.9401 17.6398C18.9399 17.7817 18.9095 17.9221 18.8509 18.0514C18.7923 18.1807 18.7068 18.2961 18.6001 18.3898C18.4887 18.4868 18.3581 18.5592 18.2168 18.6023C18.0755 18.6453 17.9267 18.6581 17.7801 18.6398C14.035 18.1596 10.5563 16.4462 7.89282 13.7701C5.2293 11.0939 3.53251 7.6071 3.0701 3.85976C3.05419 3.71328 3.06813 3.56509 3.1111 3.42415C3.15407 3.28321 3.22517 3.15245 3.3201 3.03976C3.41381 2.93309 3.52916 2.8476 3.65848 2.78898C3.7878 2.73035 3.92812 2.69994 4.0701 2.69976H7.0701C7.30265 2.69459 7.52972 2.77064 7.71224 2.91483C7.89476 3.05902 8.02131 3.26233 8.0701 3.48976C8.1101 3.76309 8.1601 4.03309 8.2201 4.29976C8.33562 4.8269 8.48936 5.34494 8.6801 5.84976L7.2801 6.49976C7.1604 6.55468 7.05272 6.63271 6.96326 6.72936C6.87379 6.82601 6.8043 6.93937 6.75877 7.06296C6.71324 7.18654 6.69257 7.31789 6.69795 7.44948C6.70332 7.58107 6.73464 7.71031 6.7901 7.82976C8.2293 10.9125 10.7073 13.3906 13.7901 14.8298C14.0336 14.9298 14.3066 14.9298 14.5501 14.8298C14.6748 14.7852 14.7894 14.7162 14.8873 14.6269C14.9851 14.5377 15.0643 14.4299 15.1201 14.3098L15.7401 12.9098C16.2571 13.0946 16.7847 13.2482 17.3201 13.3698C17.5868 13.4298 17.8568 13.4798 18.1301 13.5198C18.3575 13.5686 18.5608 13.6951 18.705 13.8776C18.8492 14.0601 18.9253 14.2872 18.9201 14.5198L18.9401 17.6398Z" fill="white"/>
</svg>
