<svg width="72" height="65" viewBox="0 0 72 65" fill="none" xmlns="http://www.w3.org/2000/svg">
    <rect x="0.5" y="0.5" width="71" height="64" rx="15.5" stroke="#DADADA"/>
    <path d="M29.7295 30L26.2855 26.184V30H25.1935V21.636H26.2855V25.512L29.7415 21.636H31.1215L27.3295 25.824L31.1575 30H29.7295ZM38.2331 21.636L35.5091 26.844V30H34.4171V26.844L31.6811 21.636H32.8931L34.9571 25.872L37.0211 21.636H38.2331ZM38.9769 25.812C38.9769 24.996 39.1609 24.264 39.5289 23.616C39.8969 22.96 40.3969 22.448 41.0289 22.08C41.6689 21.712 42.3769 21.528 43.1529 21.528C44.0649 21.528 44.8609 21.748 45.5409 22.188C46.2209 22.628 46.7169 23.252 47.0289 24.06H45.7209C45.4889 23.556 45.1529 23.168 44.7129 22.896C44.2809 22.624 43.7609 22.488 43.1529 22.488C42.5689 22.488 42.0449 22.624 41.5809 22.896C41.1169 23.168 40.7529 23.556 40.4889 24.06C40.2249 24.556 40.0929 25.14 40.0929 25.812C40.0929 26.476 40.2249 27.06 40.4889 27.564C40.7529 28.06 41.1169 28.444 41.5809 28.716C42.0449 28.988 42.5689 29.124 43.1529 29.124C43.7609 29.124 44.2809 28.992 44.7129 28.728C45.1529 28.456 45.4889 28.068 45.7209 27.564H47.0289C46.7169 28.364 46.2209 28.984 45.5409 29.424C44.8609 29.856 44.0649 30.072 43.1529 30.072C42.3769 30.072 41.6689 29.892 41.0289 29.532C40.3969 29.164 39.8969 28.656 39.5289 28.008C39.1609 27.36 38.9769 26.628 38.9769 25.812ZM19.237 35.636C20.149 35.636 20.937 35.808 21.601 36.152C22.273 36.488 22.785 36.972 23.137 37.604C23.497 38.236 23.677 38.98 23.677 39.836C23.677 40.692 23.497 41.436 23.137 42.068C22.785 42.692 22.273 43.172 21.601 43.508C20.937 43.836 20.149 44 19.237 44H16.633V35.636H19.237ZM19.237 43.1C20.317 43.1 21.141 42.816 21.709 42.248C22.277 41.672 22.561 40.868 22.561 39.836C22.561 38.796 22.273 37.984 21.697 37.4C21.129 36.816 20.309 36.524 19.237 36.524H17.725V43.1H19.237ZM31.1174 40.46C31.1174 40.668 31.1054 40.888 31.0814 41.12H25.8254C25.8654 41.768 26.0854 42.276 26.4854 42.644C26.8934 43.004 27.3854 43.184 27.9614 43.184C28.4334 43.184 28.8254 43.076 29.1374 42.86C29.4574 42.636 29.6814 42.34 29.8094 41.972H30.9854C30.8094 42.604 30.4574 43.12 29.9294 43.52C29.4014 43.912 28.7454 44.108 27.9614 44.108C27.3374 44.108 26.7774 43.968 26.2814 43.688C25.7934 43.408 25.4094 43.012 25.1294 42.5C24.8494 41.98 24.7094 41.38 24.7094 40.7C24.7094 40.02 24.8454 39.424 25.1174 38.912C25.3894 38.4 25.7694 38.008 26.2574 37.736C26.7534 37.456 27.3214 37.316 27.9614 37.316C28.5854 37.316 29.1374 37.452 29.6174 37.724C30.0974 37.996 30.4654 38.372 30.7214 38.852C30.9854 39.324 31.1174 39.86 31.1174 40.46ZM29.9894 40.232C29.9894 39.816 29.8974 39.46 29.7134 39.164C29.5294 38.86 29.2774 38.632 28.9574 38.48C28.6454 38.32 28.2974 38.24 27.9134 38.24C27.3614 38.24 26.8894 38.416 26.4974 38.768C26.1134 39.12 25.8934 39.608 25.8374 40.232H29.9894ZM33.8908 38.324V42.2C33.8908 42.52 33.9588 42.748 34.0948 42.884C34.2308 43.012 34.4668 43.076 34.8028 43.076H35.6068V44H34.6228C34.0148 44 33.5588 43.86 33.2548 43.58C32.9508 43.3 32.7988 42.84 32.7988 42.2V38.324H31.9468V37.424H32.7988V35.768H33.8908V37.424H35.6068V38.324H33.8908ZM36.5219 40.688C36.5219 40.016 36.6579 39.428 36.9299 38.924C37.2019 38.412 37.5739 38.016 38.0459 37.736C38.5259 37.456 39.0579 37.316 39.6419 37.316C40.2179 37.316 40.7179 37.44 41.1419 37.688C41.5659 37.936 41.8819 38.248 42.0899 38.624V37.424H43.1939V44H42.0899V42.776C41.8739 43.16 41.5499 43.48 41.1179 43.736C40.6939 43.984 40.1979 44.108 39.6299 44.108C39.0459 44.108 38.5179 43.964 38.0459 43.676C37.5739 43.388 37.2019 42.984 36.9299 42.464C36.6579 41.944 36.5219 41.352 36.5219 40.688ZM42.0899 40.7C42.0899 40.204 41.9899 39.772 41.7899 39.404C41.5899 39.036 41.3179 38.756 40.9739 38.564C40.6379 38.364 40.2659 38.264 39.8579 38.264C39.4499 38.264 39.0779 38.36 38.7419 38.552C38.4059 38.744 38.1379 39.024 37.9379 39.392C37.7379 39.76 37.6379 40.192 37.6379 40.688C37.6379 41.192 37.7379 41.632 37.9379 42.008C38.1379 42.376 38.4059 42.66 38.7419 42.86C39.0779 43.052 39.4499 43.148 39.8579 43.148C40.2659 43.148 40.6379 43.052 40.9739 42.86C41.3179 42.66 41.5899 42.376 41.7899 42.008C41.9899 41.632 42.0899 41.196 42.0899 40.7ZM45.6032 36.356C45.3952 36.356 45.2192 36.284 45.0752 36.14C44.9312 35.996 44.8592 35.82 44.8592 35.612C44.8592 35.404 44.9312 35.228 45.0752 35.084C45.2192 34.94 45.3952 34.868 45.6032 34.868C45.8032 34.868 45.9712 34.94 46.1072 35.084C46.2512 35.228 46.3232 35.404 46.3232 35.612C46.3232 35.82 46.2512 35.996 46.1072 36.14C45.9712 36.284 45.8032 36.356 45.6032 36.356ZM46.1312 37.424V44H45.0392V37.424H46.1312ZM49.0844 35.12V44H47.9924V35.12H49.0844ZM53.2735 44.108C52.7695 44.108 52.3175 44.024 51.9175 43.856C51.5175 43.68 51.2015 43.44 50.9695 43.136C50.7375 42.824 50.6095 42.468 50.5855 42.068H51.7135C51.7455 42.396 51.8975 42.664 52.1695 42.872C52.4495 43.08 52.8135 43.184 53.2615 43.184C53.6775 43.184 54.0055 43.092 54.2455 42.908C54.4855 42.724 54.6055 42.492 54.6055 42.212C54.6055 41.924 54.4775 41.712 54.2215 41.576C53.9655 41.432 53.5695 41.292 53.0335 41.156C52.5455 41.028 52.1455 40.9 51.8335 40.772C51.5295 40.636 51.2655 40.44 51.0415 40.184C50.8255 39.92 50.7175 39.576 50.7175 39.152C50.7175 38.816 50.8175 38.508 51.0175 38.228C51.2175 37.948 51.5015 37.728 51.8695 37.568C52.2375 37.4 52.6575 37.316 53.1295 37.316C53.8575 37.316 54.4455 37.5 54.8935 37.868C55.3415 38.236 55.5815 38.74 55.6135 39.38H54.5215C54.4975 39.036 54.3575 38.76 54.1015 38.552C53.8535 38.344 53.5175 38.24 53.0935 38.24C52.7015 38.24 52.3895 38.324 52.1575 38.492C51.9255 38.66 51.8095 38.88 51.8095 39.152C51.8095 39.368 51.8775 39.548 52.0135 39.692C52.1575 39.828 52.3335 39.94 52.5415 40.028C52.7575 40.108 53.0535 40.2 53.4295 40.304C53.9015 40.432 54.2855 40.56 54.5815 40.688C54.8775 40.808 55.1295 40.992 55.3375 41.24C55.5535 41.488 55.6655 41.812 55.6735 42.212C55.6735 42.572 55.5735 42.896 55.3735 43.184C55.1735 43.472 54.8895 43.7 54.5215 43.868C54.1615 44.028 53.7455 44.108 53.2735 44.108Z" fill="#DADADA"/>
</svg>
