<svg width="73" height="66" viewBox="0 0 73 66" fill="none" xmlns="http://www.w3.org/2000/svg">
    <rect x="0.5" y="0.405518" width="72" height="65" rx="16" fill="#EF3B85"/>
    <path d="M29.3487 30.4055L26.5167 26.6855V30.4055H24.4647V21.9815H26.5167V25.6775L29.3247 21.9815H31.7367L28.4727 26.1095L31.8567 30.4055H29.3487ZM40.0559 21.9815L37.1399 27.6215V30.4055H35.0879V27.6215L32.1719 21.9815H34.4999L36.1319 25.5095L37.7519 21.9815H40.0559ZM40.5347 26.1815C40.5347 25.3495 40.7147 24.6095 41.0747 23.9615C41.4347 23.3055 41.9347 22.7975 42.5747 22.4375C43.2227 22.0695 43.9547 21.8855 44.7707 21.8855C45.7707 21.8855 46.6267 22.1495 47.3387 22.6775C48.0507 23.2055 48.5267 23.9255 48.7667 24.8375H46.5107C46.3427 24.4855 46.1027 24.2175 45.7907 24.0335C45.4867 23.8495 45.1387 23.7575 44.7467 23.7575C44.1147 23.7575 43.6027 23.9775 43.2107 24.4175C42.8187 24.8575 42.6227 25.4455 42.6227 26.1815C42.6227 26.9175 42.8187 27.5055 43.2107 27.9455C43.6027 28.3855 44.1147 28.6055 44.7467 28.6055C45.1387 28.6055 45.4867 28.5135 45.7907 28.3295C46.1027 28.1455 46.3427 27.8775 46.5107 27.5255H48.7667C48.5267 28.4375 48.0507 29.1575 47.3387 29.6855C46.6267 30.2055 45.7707 30.4655 44.7707 30.4655C43.9547 30.4655 43.2227 30.2855 42.5747 29.9255C41.9347 29.5575 41.4347 29.0495 41.0747 28.4015C40.7147 27.7535 40.5347 27.0135 40.5347 26.1815ZM18.9488 35.9815C19.8368 35.9815 20.6128 36.1575 21.2768 36.5095C21.9408 36.8615 22.4528 37.3575 22.8128 37.9975C23.1808 38.6295 23.3648 39.3615 23.3648 40.1935C23.3648 41.0175 23.1808 41.7495 22.8128 42.3895C22.4528 43.0295 21.9368 43.5255 21.2648 43.8775C20.6008 44.2295 19.8288 44.4055 18.9488 44.4055H15.7928V35.9815H18.9488ZM18.8168 42.6295C19.5928 42.6295 20.1968 42.4175 20.6288 41.9935C21.0608 41.5695 21.2768 40.9695 21.2768 40.1935C21.2768 39.4175 21.0608 38.8135 20.6288 38.3815C20.1968 37.9495 19.5928 37.7335 18.8168 37.7335H17.8448V42.6295H18.8168ZM30.8236 40.9495C30.8236 41.1415 30.8116 41.3415 30.7876 41.5495H26.1436C26.1756 41.9655 26.3076 42.2855 26.5396 42.5095C26.7796 42.7255 27.0716 42.8335 27.4156 42.8335C27.9276 42.8335 28.2836 42.6175 28.4836 42.1855H30.6676C30.5556 42.6255 30.3516 43.0215 30.0556 43.3735C29.7676 43.7255 29.4036 44.0015 28.9636 44.2015C28.5236 44.4015 28.0316 44.5015 27.4876 44.5015C26.8316 44.5015 26.2476 44.3615 25.7356 44.0815C25.2236 43.8015 24.8236 43.4015 24.5356 42.8815C24.2476 42.3615 24.1036 41.7535 24.1036 41.0575C24.1036 40.3615 24.2436 39.7535 24.5236 39.2335C24.8116 38.7135 25.2116 38.3135 25.7236 38.0335C26.2356 37.7535 26.8236 37.6135 27.4876 37.6135C28.1356 37.6135 28.7116 37.7495 29.2156 38.0215C29.7196 38.2935 30.1116 38.6815 30.3916 39.1855C30.6796 39.6895 30.8236 40.2775 30.8236 40.9495ZM28.7236 40.4095C28.7236 40.0575 28.6036 39.7775 28.3636 39.5695C28.1236 39.3615 27.8236 39.2575 27.4636 39.2575C27.1196 39.2575 26.8276 39.3575 26.5876 39.5575C26.3556 39.7575 26.2116 40.0415 26.1556 40.4095H28.7236ZM35.6381 42.6655V44.4055H34.5941C33.8501 44.4055 33.2701 44.2255 32.8541 43.8655C32.4381 43.4975 32.2301 42.9015 32.2301 42.0775V39.4135H31.4141V37.7095H32.2301V36.0775H34.2821V37.7095H35.6261V39.4135H34.2821V42.1015C34.2821 42.3015 34.3301 42.4455 34.4261 42.5335C34.5221 42.6215 34.6821 42.6655 34.9061 42.6655H35.6381ZM36.3731 41.0455C36.3731 40.3575 36.5011 39.7535 36.7571 39.2335C37.0211 38.7135 37.3771 38.3135 37.8251 38.0335C38.2731 37.7535 38.7731 37.6135 39.3251 37.6135C39.7971 37.6135 40.2091 37.7095 40.5611 37.9015C40.9211 38.0935 41.1971 38.3455 41.3891 38.6575V37.7095H43.4411V44.4055H41.3891V43.4575C41.1891 43.7695 40.9091 44.0215 40.5491 44.2135C40.1971 44.4055 39.7851 44.5015 39.3131 44.5015C38.7691 44.5015 38.2731 44.3615 37.8251 44.0815C37.3771 43.7935 37.0211 43.3895 36.7571 42.8695C36.5011 42.3415 36.3731 41.7335 36.3731 41.0455ZM41.3891 41.0575C41.3891 40.5455 41.2451 40.1415 40.9571 39.8455C40.6771 39.5495 40.3331 39.4015 39.9251 39.4015C39.5171 39.4015 39.1691 39.5495 38.8811 39.8455C38.6011 40.1335 38.4611 40.5335 38.4611 41.0455C38.4611 41.5575 38.6011 41.9655 38.8811 42.2695C39.1691 42.5655 39.5171 42.7135 39.9251 42.7135C40.3331 42.7135 40.6771 42.5655 40.9571 42.2695C41.2451 41.9735 41.3891 41.5695 41.3891 41.0575ZM45.9576 37.0135C45.5976 37.0135 45.3016 36.9095 45.0696 36.7015C44.8456 36.4855 44.7336 36.2215 44.7336 35.9095C44.7336 35.5895 44.8456 35.3255 45.0696 35.1175C45.3016 34.9015 45.5976 34.7935 45.9576 34.7935C46.3096 34.7935 46.5976 34.9015 46.8216 35.1175C47.0536 35.3255 47.1696 35.5895 47.1696 35.9095C47.1696 36.2215 47.0536 36.4855 46.8216 36.7015C46.5976 36.9095 46.3096 37.0135 45.9576 37.0135ZM46.9776 37.7095V44.4055H44.9256V37.7095H46.9776ZM50.5167 35.5255V44.4055H48.4647V35.5255H50.5167ZM54.7278 44.5015C54.1438 44.5015 53.6238 44.4015 53.1678 44.2015C52.7118 44.0015 52.3518 43.7295 52.0878 43.3855C51.8238 43.0335 51.6758 42.6415 51.6438 42.2095H53.6718C53.6958 42.4415 53.8038 42.6295 53.9958 42.7735C54.1878 42.9175 54.4238 42.9895 54.7038 42.9895C54.9598 42.9895 55.1558 42.9415 55.2918 42.8455C55.4358 42.7415 55.5078 42.6095 55.5078 42.4495C55.5078 42.2575 55.4078 42.1175 55.2078 42.0295C55.0078 41.9335 54.6838 41.8295 54.2358 41.7175C53.7558 41.6055 53.3558 41.4895 53.0358 41.3695C52.7158 41.2415 52.4398 41.0455 52.2078 40.7815C51.9758 40.5095 51.8598 40.1455 51.8598 39.6895C51.8598 39.3055 51.9638 38.9575 52.1718 38.6455C52.3878 38.3255 52.6998 38.0735 53.1078 37.8895C53.5238 37.7055 54.0158 37.6135 54.5838 37.6135C55.4238 37.6135 56.0838 37.8215 56.5638 38.2375C57.0518 38.6535 57.3318 39.2055 57.4038 39.8935H55.5078C55.4758 39.6615 55.3718 39.4775 55.1958 39.3415C55.0278 39.2055 54.8038 39.1375 54.5238 39.1375C54.2838 39.1375 54.0998 39.1855 53.9718 39.2815C53.8438 39.3695 53.7798 39.4935 53.7798 39.6535C53.7798 39.8455 53.8798 39.9895 54.0798 40.0855C54.2878 40.1815 54.6078 40.2775 55.0398 40.3735C55.5358 40.5015 55.9398 40.6295 56.2518 40.7575C56.5638 40.8775 56.8358 41.0775 57.0678 41.3575C57.3078 41.6295 57.4318 41.9975 57.4398 42.4615C57.4398 42.8535 57.3278 43.2055 57.1038 43.5175C56.8878 43.8215 56.5718 44.0615 56.1558 44.2375C55.7478 44.4135 55.2718 44.5015 54.7278 44.5015Z" fill="white"/>
</svg>
