<svg width="25" height="24" viewBox="0 0 25 24" fill="none" xmlns="http://www.w3.org/2000/svg">
<path d="M4.45022 16.29C4.35512 16.199 4.24297 16.1276 4.12022 16.08C3.87676 15.98 3.60368 15.98 3.36022 16.08C3.23747 16.1276 3.12533 16.199 3.03022 16.29C2.93918 16.3851 2.86782 16.4972 2.82022 16.62C2.74364 16.8021 2.72272 17.0028 2.76009 17.1968C2.79747 17.3908 2.89147 17.5694 3.03022 17.71C3.12742 17.7983 3.23904 17.8694 3.36022 17.92C3.47992 17.9729 3.60935 18.0002 3.74022 18.0002C3.87109 18.0002 4.00052 17.9729 4.12022 17.92C4.24141 17.8694 4.35302 17.7983 4.45022 17.71C4.58898 17.5694 4.68298 17.3908 4.72035 17.1968C4.75772 17.0028 4.7368 16.8021 4.66022 16.62C4.61263 16.4972 4.54126 16.3851 4.45022 16.29V16.29ZM7.74022 8H21.7402C22.0054 8 22.2598 7.89464 22.4473 7.70711C22.6349 7.51957 22.7402 7.26522 22.7402 7C22.7402 6.73478 22.6349 6.48043 22.4473 6.29289C22.2598 6.10536 22.0054 6 21.7402 6H7.74022C7.47501 6 7.22065 6.10536 7.03312 6.29289C6.84558 6.48043 6.74022 6.73478 6.74022 7C6.74022 7.26522 6.84558 7.51957 7.03312 7.70711C7.22065 7.89464 7.47501 8 7.74022 8ZM4.45022 11.29C4.3096 11.1512 4.13103 11.0572 3.93704 11.0199C3.74305 10.9825 3.54233 11.0034 3.36022 11.08C3.23904 11.1306 3.12742 11.2017 3.03022 11.29C2.93918 11.3851 2.86782 11.4972 2.82022 11.62C2.76732 11.7397 2.73999 11.8691 2.73999 12C2.73999 12.1309 2.76732 12.2603 2.82022 12.38C2.87086 12.5012 2.94189 12.6128 3.03022 12.71C3.12742 12.7983 3.23904 12.8694 3.36022 12.92C3.47992 12.9729 3.60935 13.0002 3.74022 13.0002C3.87109 13.0002 4.00052 12.9729 4.12022 12.92C4.24141 12.8694 4.35302 12.7983 4.45022 12.71C4.53855 12.6128 4.60958 12.5012 4.66022 12.38C4.71313 12.2603 4.74046 12.1309 4.74046 12C4.74046 11.8691 4.71313 11.7397 4.66022 11.62C4.61263 11.4972 4.54126 11.3851 4.45022 11.29V11.29ZM21.7402 11H7.74022C7.47501 11 7.22065 11.1054 7.03312 11.2929C6.84558 11.4804 6.74022 11.7348 6.74022 12C6.74022 12.2652 6.84558 12.5196 7.03312 12.7071C7.22065 12.8946 7.47501 13 7.74022 13H21.7402C22.0054 13 22.2598 12.8946 22.4473 12.7071C22.6349 12.5196 22.7402 12.2652 22.7402 12C22.7402 11.7348 22.6349 11.4804 22.4473 11.2929C22.2598 11.1054 22.0054 11 21.7402 11ZM4.45022 6.29C4.35512 6.19896 4.24297 6.12759 4.12022 6.08C3.93811 6.00342 3.7374 5.9825 3.54341 6.01987C3.34942 6.05725 3.17085 6.15124 3.03022 6.29C2.94189 6.3872 2.87086 6.49881 2.82022 6.62C2.76732 6.7397 2.73999 6.86913 2.73999 7C2.73999 7.13087 2.76732 7.2603 2.82022 7.38C2.87086 7.50119 2.94189 7.6128 3.03022 7.71C3.12742 7.79833 3.23904 7.86936 3.36022 7.92C3.54233 7.99658 3.74305 8.0175 3.93704 7.98013C4.13103 7.94275 4.3096 7.84876 4.45022 7.71C4.53855 7.6128 4.60958 7.50119 4.66022 7.38C4.71313 7.2603 4.74046 7.13087 4.74046 7C4.74046 6.86913 4.71313 6.7397 4.66022 6.62C4.60958 6.49881 4.53855 6.3872 4.45022 6.29V6.29ZM21.7402 16H7.74022C7.47501 16 7.22065 16.1054 7.03312 16.2929C6.84558 16.4804 6.74022 16.7348 6.74022 17C6.74022 17.2652 6.84558 17.5196 7.03312 17.7071C7.22065 17.8946 7.47501 18 7.74022 18H21.7402C22.0054 18 22.2598 17.8946 22.4473 17.7071C22.6349 17.5196 22.7402 17.2652 22.7402 17C22.7402 16.7348 22.6349 16.4804 22.4473 16.2929C22.2598 16.1054 22.0054 16 21.7402 16Z" fill="#EF3B85"/>
</svg>
