<svg width="27" height="27" viewBox="0 0 27 27" fill="none" xmlns="http://www.w3.org/2000/svg">
<path d="M4.6301 18.4551C4.52707 18.3565 4.40558 18.2792 4.2726 18.2276C4.00885 18.1193 3.71301 18.1193 3.44926 18.2276C3.31628 18.2792 3.19479 18.3565 3.09176 18.4551C2.99313 18.5581 2.91582 18.6796 2.86426 18.8126C2.7813 19.0099 2.75864 19.2273 2.79912 19.4375C2.83961 19.6477 2.94144 19.8411 3.09176 19.9934C3.19706 20.0891 3.31798 20.1661 3.44926 20.221C3.57894 20.2783 3.71915 20.3079 3.86093 20.3079C4.00271 20.3079 4.14292 20.2783 4.2726 20.221C4.40388 20.1661 4.52479 20.0891 4.6301 19.9934C4.78042 19.8411 4.88225 19.6477 4.92273 19.4375C4.96322 19.2273 4.94056 19.0099 4.8576 18.8126C4.80604 18.6796 4.72872 18.5581 4.6301 18.4551ZM8.19426 9.47428H23.3609C23.6482 9.47428 23.9238 9.36015 24.127 9.15698C24.3301 8.95382 24.4443 8.67827 24.4443 8.39095C24.4443 8.10363 24.3301 7.82808 24.127 7.62492C23.9238 7.42175 23.6482 7.30762 23.3609 7.30762H8.19426C7.90694 7.30762 7.63139 7.42175 7.42823 7.62492C7.22507 7.82808 7.11093 8.10363 7.11093 8.39095C7.11093 8.67827 7.22507 8.95382 7.42823 9.15698C7.63139 9.36015 7.90694 9.47428 8.19426 9.47428ZM4.6301 13.0385C4.47775 12.8881 4.2843 12.7863 4.07414 12.7458C3.86399 12.7053 3.64655 12.728 3.44926 12.8109C3.31798 12.8658 3.19706 12.9428 3.09176 13.0385C2.99313 13.1415 2.91582 13.263 2.86426 13.3959C2.80695 13.5256 2.77734 13.6658 2.77734 13.8076C2.77734 13.9494 2.80695 14.0896 2.86426 14.2193C2.91912 14.3506 2.99607 14.4715 3.09176 14.5768C3.19706 14.6725 3.31798 14.7494 3.44926 14.8043C3.57894 14.8616 3.71915 14.8912 3.86093 14.8912C4.00271 14.8912 4.14292 14.8616 4.2726 14.8043C4.40388 14.7494 4.52479 14.6725 4.6301 14.5768C4.72579 14.4715 4.80273 14.3506 4.8576 14.2193C4.91491 14.0896 4.94451 13.9494 4.94451 13.8076C4.94451 13.6658 4.91491 13.5256 4.8576 13.3959C4.80604 13.263 4.72872 13.1415 4.6301 13.0385ZM23.3609 12.7243H8.19426C7.90694 12.7243 7.63139 12.8384 7.42823 13.0416C7.22507 13.2447 7.11093 13.5203 7.11093 13.8076C7.11093 14.0949 7.22507 14.3705 7.42823 14.5736C7.63139 14.7768 7.90694 14.891 8.19426 14.891H23.3609C23.6482 14.891 23.9238 14.7768 24.127 14.5736C24.3301 14.3705 24.4443 14.0949 24.4443 13.8076C24.4443 13.5203 24.3301 13.2447 24.127 13.0416C23.9238 12.8384 23.6482 12.7243 23.3609 12.7243ZM4.6301 7.62178C4.52707 7.52316 4.40558 7.44584 4.2726 7.39428C4.07531 7.31132 3.85787 7.28866 3.64771 7.32915C3.43756 7.36963 3.2441 7.47146 3.09176 7.62178C2.99607 7.72708 2.91912 7.848 2.86426 7.97928C2.80695 8.10896 2.77734 8.24917 2.77734 8.39095C2.77734 8.53273 2.80695 8.67294 2.86426 8.80262C2.91912 8.9339 2.99607 9.05482 3.09176 9.16012C3.19706 9.25581 3.31798 9.33276 3.44926 9.38762C3.64655 9.47058 3.86399 9.49324 4.07414 9.45276C4.2843 9.41227 4.47775 9.31044 4.6301 9.16012C4.72579 9.05482 4.80273 8.9339 4.8576 8.80262C4.91491 8.67294 4.94451 8.53273 4.94451 8.39095C4.94451 8.24917 4.91491 8.10896 4.8576 7.97928C4.80273 7.848 4.72579 7.72708 4.6301 7.62178ZM23.3609 18.1409H8.19426C7.90694 18.1409 7.63139 18.2551 7.42823 18.4583C7.22507 18.6614 7.11093 18.937 7.11093 19.2243C7.11093 19.5116 7.22507 19.7872 7.42823 19.9903C7.63139 20.1935 7.90694 20.3076 8.19426 20.3076H23.3609C23.6482 20.3076 23.9238 20.1935 24.127 19.9903C24.3301 19.7872 24.4443 19.5116 24.4443 19.2243C24.4443 18.937 24.3301 18.6614 24.127 18.4583C23.9238 18.2551 23.6482 18.1409 23.3609 18.1409Z" fill="#EF3B85"/>
</svg>
