<svg width="27" height="27" viewBox="0 0 27 27" fill="none" xmlns="http://www.w3.org/2000/svg">
<path fill-rule="evenodd" clip-rule="evenodd" d="M6.02954 5.06962C5.74222 5.06962 5.46667 5.18376 5.26351 5.38692C5.06034 5.59009 4.94621 5.86564 4.94621 6.15295V21.3196C4.94621 21.6069 5.06034 21.8825 5.26351 22.0857C5.46667 22.2888 5.74222 22.403 6.02954 22.403H10.3629C10.9612 22.403 11.4462 22.888 11.4462 23.4863C11.4462 24.0846 10.9612 24.5696 10.3629 24.5696H6.02954C5.16759 24.5696 4.34094 24.2272 3.73144 23.6177C3.12195 23.0082 2.77954 22.1816 2.77954 21.3196V6.15295C2.77954 5.291 3.12195 4.46435 3.73144 3.85486C4.34094 3.24536 5.16759 2.90295 6.02954 2.90295H10.3629C10.9612 2.90295 11.4462 3.38798 11.4462 3.98629C11.4462 4.5846 10.9612 5.06962 10.3629 5.06962H6.02954Z" fill="#535353"/>
<path fill-rule="evenodd" clip-rule="evenodd" d="M17.1801 7.55357C17.6032 7.1305 18.2891 7.1305 18.7122 7.55357L24.1288 12.9702C24.5519 13.3933 24.5519 14.0792 24.1288 14.5023L18.7122 19.919C18.2891 20.342 17.6032 20.342 17.1801 19.919C16.757 19.4959 16.757 18.81 17.1801 18.3869L21.8307 13.7363L17.1801 9.08563C16.757 8.66256 16.757 7.97664 17.1801 7.55357Z" fill="#535353"/>
<path fill-rule="evenodd" clip-rule="evenodd" d="M9.27954 13.7363C9.27954 13.138 9.76457 12.653 10.3629 12.653H23.3629C23.9612 12.653 24.4462 13.138 24.4462 13.7363C24.4462 14.3346 23.9612 14.8196 23.3629 14.8196H10.3629C9.76457 14.8196 9.27954 14.3346 9.27954 13.7363Z" fill="#535353"/>
</svg>
