<svg width="25" height="25" viewBox="0 0 25 25" fill="none" xmlns="http://www.w3.org/2000/svg">
<path d="M19.1002 4.33374H5.10016C4.30451 4.33374 3.54145 4.64981 2.97884 5.21242C2.41623 5.77503 2.10016 6.53809 2.10016 7.33374V17.3337C2.10016 18.1294 2.41623 18.8925 2.97884 19.4551C3.54145 20.0177 4.30451 20.3337 5.10016 20.3337H19.1002C19.8958 20.3337 20.6589 20.0177 21.2215 19.4551C21.7841 18.8925 22.1002 18.1294 22.1002 17.3337V7.33374C22.1002 6.53809 21.7841 5.77503 21.2215 5.21242C20.6589 4.64981 19.8958 4.33374 19.1002 4.33374ZM5.10016 6.33374H19.1002C19.3654 6.33374 19.6197 6.4391 19.8073 6.62663C19.9948 6.81417 20.1002 7.06852 20.1002 7.33374L12.1002 12.2137L4.10016 7.33374C4.10016 7.06852 4.20552 6.81417 4.39305 6.62663C4.58059 6.4391 4.83494 6.33374 5.10016 6.33374ZM20.1002 17.3337C20.1002 17.599 19.9948 17.8533 19.8073 18.0408C19.6197 18.2284 19.3654 18.3337 19.1002 18.3337H5.10016C4.83494 18.3337 4.58059 18.2284 4.39305 18.0408C4.20552 17.8533 4.10016 17.599 4.10016 17.3337V9.61374L11.5802 14.1837C11.7322 14.2715 11.9046 14.3177 12.0802 14.3177C12.2557 14.3177 12.4281 14.2715 12.5802 14.1837L20.1002 9.61374V17.3337Z" fill="white"/>
</svg>
