<?xml version="1.0" encoding="UTF-8"?>
<svg width="752pt" height="752pt" version="1.1" viewBox="0 0 752 752" xmlns="http://www.w3.org/2000/svg">
 <g fill="#fff">
  <path d="m376 178.68c-52.332 0-102.52 20.789-139.53 57.797-37.008 37.004-57.797 87.195-57.797 139.53 0 52.336 20.789 102.53 57.797 139.53 37.004 37.008 87.195 57.797 139.53 57.797 52.336 0 102.53-20.789 139.53-57.797 37.008-37.004 57.797-87.195 57.797-139.53 0-34.637-9.1172-68.664-26.438-98.66-17.32-30-42.23-54.91-72.227-72.227-29.996-17.32-64.023-26.438-98.664-26.438zm0 355.19c-41.867 0-82.02-16.633-111.62-46.238-29.605-29.605-46.238-69.758-46.238-111.62s16.633-82.02 46.238-111.62c29.602-29.605 69.754-46.238 111.62-46.238s82.02 16.633 111.62 46.238c29.605 29.602 46.238 69.754 46.238 111.62s-16.633 82.02-46.238 111.62-69.758 46.238-111.62 46.238z"/>
  <path d="m376 257.61c-5.2305 0-10.25 2.0781-13.953 5.7812-3.6992 3.6992-5.7773 8.7188-5.7773 13.953v90.574l-53.477 53.273c-4.1758 3.5781-6.668 8.7344-6.8828 14.227-0.21094 5.4961 1.8789 10.828 5.7656 14.715 3.8867 3.8867 9.2227 5.9766 14.715 5.7656 5.4922-0.21094 10.648-2.707 14.227-6.8828l59.199-59.199h-0.003906c3.7188-3.6406 5.8477-8.6055 5.9219-13.812v-98.66c0-5.2344-2.0781-10.254-5.7812-13.953-3.6992-3.7031-8.7188-5.7812-13.953-5.7812z"/>
 </g>
</svg>
