<svg width="20" height="20" viewBox="0 0 18 18" fill="none" xmlns="http://www.w3.org/2000/svg">
    <path
        d="M9.16671 0.666687C7.51853 0.666687 5.90737 1.15543 4.53696 2.07111C3.16655 2.98679 2.09845 4.28827 1.46772 5.81099C0.836985 7.33371 0.671957 9.00926 0.9935 10.6258C1.31504 12.2423 2.10872 13.7271 3.27415 14.8926C4.43959 16.058 5.92445 16.8517 7.54096 17.1732C9.15747 17.4948 10.833 17.3297 12.3557 16.699C13.8785 16.0683 15.1799 15.0002 16.0956 13.6298C17.0113 12.2594 17.5 10.6482 17.5 9.00002C17.5 7.90567 17.2845 6.82204 16.8657 5.81099C16.4469 4.79994 15.8331 3.88129 15.0593 3.10746C14.2854 2.33364 13.3668 1.71981 12.3557 1.30102C11.3447 0.882235 10.2611 0.666687 9.16671 0.666687ZM9.16671 15.6667C7.84817 15.6667 6.55924 15.2757 5.46291 14.5432C4.36658 13.8106 3.5121 12.7694 3.00751 11.5512C2.50293 10.3331 2.37091 8.99263 2.62814 7.69942C2.88538 6.40621 3.52032 5.21833 4.45267 4.28598C5.38502 3.35363 6.5729 2.71869 7.86611 2.46145C9.15932 2.20422 10.4998 2.33624 11.7179 2.84082C12.9361 3.34541 13.9773 4.19989 14.7098 5.29622C15.4424 6.39255 15.8334 7.68148 15.8334 9.00002C15.8334 10.7681 15.131 12.4638 13.8808 13.7141C12.6305 14.9643 10.9348 15.6667 9.16671 15.6667ZM9.16671 4.00002C8.9457 4.00002 8.73374 4.08782 8.57746 4.2441C8.42118 4.40038 8.33338 4.61234 8.33338 4.83335V8.51669L6.58338 9.52502C6.42284 9.61599 6.29704 9.75767 6.22569 9.92784C6.15435 10.098 6.1415 10.287 6.18917 10.4653C6.23683 10.6436 6.3423 10.8009 6.48905 10.9128C6.63581 11.0247 6.81553 11.0846 7.00004 11.0834C7.14602 11.0844 7.28971 11.047 7.41671 10.975L9.58338 9.72502L9.65838 9.65002L9.79171 9.54169C9.8243 9.50043 9.85224 9.45572 9.87504 9.40835C9.9022 9.36362 9.92455 9.31613 9.94171 9.26669C9.96438 9.2137 9.97844 9.15744 9.98338 9.10002L10 9.00002V4.83335C10 4.61234 9.91225 4.40038 9.75597 4.2441C9.59969 4.08782 9.38772 4.00002 9.16671 4.00002Z"
        fill="#FFFFFF" />
</svg>