<svg width="25" height="25" viewBox="0 0 25 25" fill="none" xmlns="http://www.w3.org/2000/svg">
<path d="M10.3804 8.80762H16.3804C16.6456 8.80762 16.8999 8.70226 17.0875 8.51472C17.275 8.32719 17.3804 8.07283 17.3804 7.80762C17.3804 7.5424 17.275 7.28805 17.0875 7.10051C16.8999 6.91297 16.6456 6.80762 16.3804 6.80762H10.3804C10.1152 6.80762 9.8608 6.91297 9.67326 7.10051C9.48573 7.28805 9.38037 7.5424 9.38037 7.80762C9.38037 8.07283 9.48573 8.32719 9.67326 8.51472C9.8608 8.70226 10.1152 8.80762 10.3804 8.80762ZM8.38037 12.8076H16.3804C16.6456 12.8076 16.8999 12.7023 17.0875 12.5147C17.275 12.3272 17.3804 12.0728 17.3804 11.8076C17.3804 11.5424 17.275 11.288 17.0875 11.1005C16.8999 10.913 16.6456 10.8076 16.3804 10.8076H8.38037C8.11515 10.8076 7.8608 10.913 7.67326 11.1005C7.48573 11.288 7.38037 11.5424 7.38037 11.8076C7.38037 12.0728 7.48573 12.3272 7.67326 12.5147C7.8608 12.7023 8.11515 12.8076 8.38037 12.8076ZM8.38037 16.8076H16.3804C16.6456 16.8076 16.8999 16.7023 17.0875 16.5147C17.275 16.3272 17.3804 16.0728 17.3804 15.8076C17.3804 15.5424 17.275 15.288 17.0875 15.1005C16.8999 14.913 16.6456 14.8076 16.3804 14.8076H8.38037C8.11515 14.8076 7.8608 14.913 7.67326 15.1005C7.48573 15.288 7.38037 15.5424 7.38037 15.8076C7.38037 16.0728 7.48573 16.3272 7.67326 16.5147C7.8608 16.7023 8.11515 16.8076 8.38037 16.8076ZM20.3804 2.80762H4.38037C4.11515 2.80762 3.8608 2.91297 3.67326 3.10051C3.48573 3.28805 3.38037 3.5424 3.38037 3.80762V21.8076C3.38037 21.9933 3.43209 22.1754 3.52972 22.3333C3.62735 22.4913 3.76705 22.619 3.93316 22.702C4.09926 22.7851 4.28522 22.8203 4.47018 22.8036C4.65514 22.7869 4.8318 22.719 4.98037 22.6076L7.05037 21.0576L9.11037 22.6076C9.28347 22.7374 9.494 22.8076 9.71037 22.8076C9.92674 22.8076 10.1373 22.7374 10.3104 22.6076L12.3804 21.0576L14.4504 22.6076C14.6235 22.7374 14.834 22.8076 15.0504 22.8076C15.2667 22.8076 15.4773 22.7374 15.6504 22.6076L17.7104 21.0576L19.7804 22.6076C19.9297 22.7189 20.107 22.7863 20.2926 22.8022C20.4781 22.8181 20.6643 22.7819 20.8304 22.6976C20.9953 22.6145 21.134 22.4874 21.231 22.3303C21.3281 22.1732 21.3798 21.9923 21.3804 21.8076V3.80762C21.3804 3.5424 21.275 3.28805 21.0875 3.10051C20.8999 2.91297 20.6456 2.80762 20.3804 2.80762ZM19.3804 19.8076L18.3104 19.0076C18.1373 18.8778 17.9267 18.8076 17.7104 18.8076C17.494 18.8076 17.2835 18.8778 17.1104 19.0076L15.0504 20.5576L12.9804 19.0076C12.8073 18.8778 12.5967 18.8076 12.3804 18.8076C12.164 18.8076 11.9535 18.8778 11.7804 19.0076L9.71037 20.5576L7.65037 19.0076C7.47727 18.8778 7.26674 18.8076 7.05037 18.8076C6.834 18.8076 6.62347 18.8778 6.45037 19.0076L5.38037 19.8076V4.80762H19.3804V19.8076Z" fill="white"/>
</svg>
