<svg width="20" height="20" viewBox="0 0 20 20" fill="none" xmlns="http://www.w3.org/2000/svg">
<path d="M17.1838 8.07501L11.9033 4.86668C11.5823 4.67251 11.2183 4.57054 10.848 4.57099C10.4777 4.57143 10.114 4.67427 9.79335 4.8692C9.47267 5.06414 9.20628 5.34433 9.02083 5.68173C8.83538 6.01913 8.7374 6.40188 8.73668 6.79168L5.57002 4.86668C5.24892 4.67251 4.885 4.57054 4.51469 4.57099C4.14439 4.57143 3.78069 4.67427 3.46001 4.8692C3.13934 5.06414 2.87294 5.34433 2.6875 5.68173C2.50205 6.01913 2.40407 6.40188 2.40335 6.79168V13.2083C2.40142 13.5974 2.49793 13.9801 2.68298 14.3169C2.86802 14.6538 3.13493 14.9327 3.45627 15.125C3.77689 15.3268 4.14351 15.4334 4.5171 15.4333C4.88686 15.4313 5.24974 15.3279 5.57002 15.1333L8.73668 13.2083C8.73498 13.5985 8.83152 13.9822 9.01648 14.3203C9.20143 14.6585 9.46818 14.939 9.7896 15.1333C10.1107 15.3294 10.4753 15.4327 10.8465 15.4327C11.2177 15.4327 11.5823 15.3294 11.9033 15.1333L17.1838 11.925C17.5042 11.7295 17.7703 11.4487 17.9552 11.1109C18.1402 10.773 18.2375 10.3899 18.2375 10C18.2375 9.61009 18.1402 9.22701 17.9552 8.88916C17.7703 8.55131 17.5042 8.27055 17.1838 8.07501ZM8.73668 11.2833L4.77835 13.6833C4.69842 13.731 4.6081 13.756 4.51624 13.7558C4.42439 13.7557 4.33414 13.7304 4.25433 13.6826C4.17453 13.6347 4.10791 13.5658 4.06099 13.4827C4.01407 13.3995 3.98847 13.305 3.98668 13.2083V6.79168C3.98847 6.69501 4.01407 6.60048 4.06099 6.51735C4.10791 6.43422 4.17453 6.36535 4.25433 6.31747C4.33414 6.26958 4.42439 6.24434 4.51624 6.2442C4.6081 6.24406 4.69842 6.26904 4.77835 6.31668L8.73668 8.71668V11.2833ZM16.3921 10.45L11.1117 13.6917C11.0306 13.7391 10.9393 13.764 10.8465 13.764C10.7537 13.764 10.6624 13.7391 10.5813 13.6917C10.5008 13.6428 10.4343 13.5723 10.3883 13.4873C10.3424 13.4024 10.3188 13.3061 10.32 13.2083V6.79168C10.3188 6.69395 10.3424 6.59765 10.3883 6.5127C10.4343 6.42775 10.5008 6.35721 10.5813 6.30835C10.6644 6.2621 10.7565 6.23645 10.8504 6.23335C10.9424 6.23251 11.0328 6.25846 11.1117 6.30835L16.3921 9.51668C16.4726 9.56571 16.5395 9.63618 16.586 9.72102C16.6325 9.80585 16.657 9.90207 16.657 10C16.657 10.098 16.6325 10.1942 16.586 10.279C16.5395 10.3638 16.4726 10.4343 16.3921 10.4833V10.45Z" fill="#EF3B85"/>
</svg>
