<svg width="27" height="27" viewBox="0 0 27 27" fill="none" xmlns="http://www.w3.org/2000/svg">
<path d="M13.4529 2.69696C11.3517 2.70095 9.2971 3.31588 7.53922 4.46684C5.78135 5.61781 4.39611 7.25513 3.55225 9.17938C2.70838 11.1036 2.4423 13.2317 2.78642 15.3045C3.13054 17.3773 4.07001 19.3053 5.49039 20.8536C6.50485 21.9533 7.73608 22.8309 9.10649 23.4311C10.4769 24.0313 11.9568 24.3412 13.4529 24.3412C14.949 24.3412 16.4289 24.0313 17.7993 23.4311C19.1697 22.8309 20.4009 21.9533 21.4154 20.8536C22.8358 19.3053 23.7752 17.3773 24.1194 15.3045C24.4635 13.2317 24.1974 11.1036 23.3535 9.17938C22.5097 7.25513 21.1244 5.61781 19.3666 4.46684C17.6087 3.31588 15.554 2.70095 13.4529 2.69696ZM13.4529 22.197C11.2087 22.1936 9.05338 21.3198 7.44039 19.7595C7.93011 18.5673 8.76318 17.5476 9.83375 16.83C10.9043 16.1124 12.1641 15.7292 13.4529 15.7292C14.7417 15.7292 16.0015 16.1124 17.072 16.83C18.1426 17.5476 18.9757 18.5673 19.4654 19.7595C17.8524 21.3198 15.6971 22.1936 13.4529 22.197ZM11.2862 11.3636C11.2862 10.9351 11.4133 10.5162 11.6514 10.1599C11.8895 9.80359 12.2278 9.52588 12.6237 9.36189C13.0197 9.1979 13.4553 9.15499 13.8756 9.23859C14.2959 9.32219 14.6819 9.52855 14.985 9.83156C15.288 10.1346 15.4943 10.5206 15.5779 10.9409C15.6615 11.3612 15.6186 11.7969 15.4546 12.1928C15.2906 12.5887 15.0129 12.9271 14.6566 13.1651C14.3003 13.4032 13.8814 13.5303 13.4529 13.5303C12.8783 13.5303 12.3272 13.302 11.9208 12.8957C11.5145 12.4894 11.2862 11.9383 11.2862 11.3636ZM20.9387 17.8636C19.9708 16.208 18.4811 14.9202 16.7029 14.202C17.2545 13.5765 17.6139 12.8052 17.738 11.9805C17.8621 11.1559 17.7456 10.3129 17.4025 9.55283C17.0593 8.79275 16.5042 8.14782 15.8036 7.69542C15.1031 7.24303 14.2868 7.0024 13.4529 7.0024C12.619 7.0024 11.8027 7.24303 11.1022 7.69542C10.4016 8.14782 9.84644 8.79275 9.50333 9.55283C9.16022 10.3129 9.04371 11.1559 9.1678 11.9805C9.29189 12.8052 9.65129 13.5765 10.2029 14.202C8.42471 14.9202 6.93498 16.208 5.96706 17.8636C5.19567 16.5497 4.78809 15.054 4.78623 13.5303C4.78623 11.2318 5.69932 9.02735 7.32463 7.40204C8.94995 5.77672 11.1543 4.86363 13.4529 4.86363C15.7514 4.86363 17.9558 5.77672 19.5812 7.40204C21.2065 9.02735 22.1196 11.2318 22.1196 13.5303C22.1177 15.054 21.7101 16.5497 20.9387 17.8636Z" fill="#535353"/>
</svg>
