<svg width="25" height="25" viewBox="0 0 25 25" fill="none" xmlns="http://www.w3.org/2000/svg">
<path d="M17.1002 11.2357H18.1002C18.3654 11.2357 18.6197 11.1304 18.8073 10.9428C18.9948 10.7553 19.1002 10.5009 19.1002 10.2357V9.23572C19.1002 8.9705 18.9948 8.71615 18.8073 8.52861C18.6197 8.34107 18.3654 8.23572 18.1002 8.23572H17.1002C16.8349 8.23572 16.5806 8.34107 16.3931 8.52861C16.2055 8.71615 16.1002 8.9705 16.1002 9.23572V10.2357C16.1002 10.5009 16.2055 10.7553 16.3931 10.9428C16.5806 11.1304 16.8349 11.2357 17.1002 11.2357ZM6.10016 12.2357H11.1002C11.3654 12.2357 11.6197 12.1304 11.8073 11.9428C11.9948 11.7553 12.1002 11.5009 12.1002 11.2357C12.1002 10.9705 11.9948 10.7161 11.8073 10.5286C11.6197 10.3411 11.3654 10.2357 11.1002 10.2357H6.10016C5.83494 10.2357 5.58059 10.3411 5.39305 10.5286C5.20552 10.7161 5.10016 10.9705 5.10016 11.2357C5.10016 11.5009 5.20552 11.7553 5.39305 11.9428C5.58059 12.1304 5.83494 12.2357 6.10016 12.2357ZM22.1002 4.23572H2.10016C1.83494 4.23572 1.58059 4.34107 1.39305 4.52861C1.20552 4.71615 1.10016 4.9705 1.10016 5.23572V19.2357C1.10016 19.5009 1.20552 19.7553 1.39305 19.9428C1.58059 20.1304 1.83494 20.2357 2.10016 20.2357H22.1002C22.3654 20.2357 22.6197 20.1304 22.8073 19.9428C22.9948 19.7553 23.1002 19.5009 23.1002 19.2357V5.23572C23.1002 4.9705 22.9948 4.71615 22.8073 4.52861C22.6197 4.34107 22.3654 4.23572 22.1002 4.23572ZM21.1002 18.2357H3.10016V6.23572H21.1002V18.2357ZM6.10016 16.2357H11.1002C11.3654 16.2357 11.6197 16.1304 11.8073 15.9428C11.9948 15.7553 12.1002 15.5009 12.1002 15.2357C12.1002 14.9705 11.9948 14.7161 11.8073 14.5286C11.6197 14.3411 11.3654 14.2357 11.1002 14.2357H6.10016C5.83494 14.2357 5.58059 14.3411 5.39305 14.5286C5.20552 14.7161 5.10016 14.9705 5.10016 15.2357C5.10016 15.5009 5.20552 15.7553 5.39305 15.9428C5.58059 16.1304 5.83494 16.2357 6.10016 16.2357Z" fill="white"/>
</svg>
