<svg width="25" height="25" viewBox="0 0 25 25" fill="none" xmlns="http://www.w3.org/2000/svg">
<g clip-path="url(#clip0_1_5873)">
<path fill-rule="evenodd" clip-rule="evenodd" d="M2.07726 15.6106C3.01494 14.6729 4.28671 14.1461 5.61279 14.1461H12.6128C13.9389 14.1461 15.2106 14.6729 16.1483 15.6106C17.086 16.5483 17.6128 17.82 17.6128 19.1461V21.1461C17.6128 21.6984 17.1651 22.1461 16.6128 22.1461C16.0605 22.1461 15.6128 21.6984 15.6128 21.1461V19.1461C15.6128 18.3505 15.2967 17.5874 14.7341 17.0248C14.1715 16.4622 13.4084 16.1461 12.6128 16.1461H5.61279C4.81714 16.1461 4.05408 16.4622 3.49147 17.0248C2.92886 17.5874 2.61279 18.3505 2.61279 19.1461V21.1461C2.61279 21.6984 2.16508 22.1461 1.61279 22.1461C1.06051 22.1461 0.612793 21.6984 0.612793 21.1461V19.1461C0.612793 17.82 1.13958 16.5483 2.07726 15.6106Z" fill="#535353"/>
<path fill-rule="evenodd" clip-rule="evenodd" d="M9.11279 4.14612C7.45594 4.14612 6.11279 5.48926 6.11279 7.14612C6.11279 8.80297 7.45594 10.1461 9.11279 10.1461C10.7696 10.1461 12.1128 8.80297 12.1128 7.14612C12.1128 5.48926 10.7696 4.14612 9.11279 4.14612ZM4.11279 7.14612C4.11279 4.38469 6.35137 2.14612 9.11279 2.14612C11.8742 2.14612 14.1128 4.38469 14.1128 7.14612C14.1128 9.90754 11.8742 12.1461 9.11279 12.1461C6.35137 12.1461 4.11279 9.90754 4.11279 7.14612Z" fill="#535353"/>
<path fill-rule="evenodd" clip-rule="evenodd" d="M20.6128 7.14612C21.1651 7.14612 21.6128 7.59383 21.6128 8.14612V14.1461C21.6128 14.6984 21.1651 15.1461 20.6128 15.1461C20.0605 15.1461 19.6128 14.6984 19.6128 14.1461V8.14612C19.6128 7.59383 20.0605 7.14612 20.6128 7.14612Z" fill="#535353"/>
<path fill-rule="evenodd" clip-rule="evenodd" d="M16.6128 11.1461C16.6128 10.5938 17.0605 10.1461 17.6128 10.1461H23.6128C24.1651 10.1461 24.6128 10.5938 24.6128 11.1461C24.6128 11.6984 24.1651 12.1461 23.6128 12.1461H17.6128C17.0605 12.1461 16.6128 11.6984 16.6128 11.1461Z" fill="#535353"/>
</g>
<defs>
<clipPath id="clip0_1_5873">
<rect width="24" height="24" fill="white" transform="translate(0.612793 0.146118)"/>
</clipPath>
</defs>
</svg>
