<svg width="20" height="20" viewBox="0 0 17 18" fill="none" xmlns="http://www.w3.org/2000/svg">
    <path
        d="M11.5916 5.97816C11.5141 5.90006 11.422 5.83806 11.3204 5.79575C11.2189 5.75345 11.11 5.73166 10.9999 5.73166C10.8899 5.73166 10.781 5.75345 10.6795 5.79575C10.5779 5.83806 10.4857 5.90006 10.4083 5.97816L8.49994 7.89483L6.59161 5.97816C6.43469 5.82124 6.22186 5.73309 5.99994 5.73309C5.77803 5.73309 5.5652 5.82124 5.40828 5.97816C5.25136 6.13508 5.1632 6.34791 5.1632 6.56983C5.1632 6.79175 5.25136 7.00458 5.40828 7.1615L7.32494 9.06983L5.40828 10.9782C5.33017 11.0556 5.26818 11.1478 5.22587 11.2493C5.18356 11.3509 5.16178 11.4598 5.16178 11.5698C5.16178 11.6798 5.18356 11.7888 5.22587 11.8903C5.26818 11.9919 5.33017 12.084 5.40828 12.1615C5.48575 12.2396 5.57791 12.3016 5.67946 12.3439C5.78101 12.3862 5.88993 12.408 5.99994 12.408C6.10995 12.408 6.21887 12.3862 6.32042 12.3439C6.42197 12.3016 6.51414 12.2396 6.59161 12.1615L8.49994 10.2448L10.4083 12.1615C10.4857 12.2396 10.5779 12.3016 10.6795 12.3439C10.781 12.3862 10.8899 12.408 10.9999 12.408C11.11 12.408 11.2189 12.3862 11.3204 12.3439C11.422 12.3016 11.5141 12.2396 11.5916 12.1615C11.6697 12.084 11.7317 11.9919 11.774 11.8903C11.8163 11.7888 11.8381 11.6798 11.8381 11.5698C11.8381 11.4598 11.8163 11.3509 11.774 11.2493C11.7317 11.1478 11.6697 11.0556 11.5916 10.9782L9.67494 9.06983L11.5916 7.1615C11.6697 7.08403 11.7317 6.99186 11.774 6.89031C11.8163 6.78876 11.8381 6.67984 11.8381 6.56983C11.8381 6.45982 11.8163 6.3509 11.774 6.24935C11.7317 6.1478 11.6697 6.05563 11.5916 5.97816ZM14.3916 3.17816C13.6229 2.38224 12.7033 1.74739 11.6866 1.31065C10.6699 0.873909 9.57645 0.644024 8.46995 0.634409C7.36346 0.624794 6.26613 0.835641 5.24199 1.25465C4.21786 1.67366 3.28743 2.29243 2.50499 3.07487C1.72255 3.85731 1.10377 4.78774 0.684763 5.81188C0.265756 6.83602 0.0549085 7.93334 0.0645236 9.03984C0.0741388 10.1463 0.304024 11.2398 0.740766 12.2565C1.17751 13.2732 1.81236 14.1928 2.60828 14.9615C3.377 15.7574 4.29654 16.3923 5.31324 16.829C6.32994 17.2657 7.42344 17.4956 8.52993 17.5053C9.63643 17.5149 10.7338 17.304 11.7579 16.885C12.782 16.466 13.7125 15.8472 14.4949 15.0648C15.2773 14.2823 15.8961 13.3519 16.3151 12.3278C16.7341 11.3036 16.945 10.2063 16.9354 9.09982C16.9258 7.99332 16.6959 6.89982 16.2591 5.88312C15.8224 4.86642 15.1875 3.94689 14.3916 3.17816ZM13.2166 13.7865C12.1266 14.8777 10.6921 15.5572 9.15727 15.7093C7.62248 15.8613 6.08245 15.4765 4.79955 14.6205C3.51664 13.7644 2.57024 12.49 2.12159 11.0144C1.67293 9.5388 1.74978 7.95328 2.33904 6.52798C2.9283 5.10268 3.99351 3.92579 5.35319 3.1978C6.71287 2.46981 8.2829 2.23577 9.79578 2.53556C11.3087 2.83534 12.6708 3.65041 13.6501 4.84188C14.6295 6.03335 15.1654 7.52753 15.1666 9.06983C15.1696 9.9459 14.9988 10.8139 14.6641 11.6235C14.3293 12.4331 13.8374 13.1683 13.2166 13.7865Z"
        fill="#C60A0A" />
</svg>