<svg width="25" height="25" viewBox="0 0 25 25" fill="none" xmlns="http://www.w3.org/2000/svg">
<path d="M0.179932 12.7821C0.179932 6.15469 5.55251 0.782104 12.1799 0.782104C18.8073 0.782104 24.1799 6.15469 24.1799 12.7821C24.1799 19.4095 18.8073 24.7821 12.1799 24.7821C5.55251 24.7821 0.179932 19.4095 0.179932 12.7821Z" fill="#EF3B85"/>
<path d="M18.8899 7.99209C18.7969 7.89836 18.6863 7.82396 18.5645 7.7732C18.4426 7.72243 18.3119 7.69629 18.1799 7.69629C18.0479 7.69629 17.9172 7.72243 17.7953 7.7732C17.6734 7.82396 17.5628 7.89836 17.4699 7.99209L10.0199 15.4521L6.88988 12.3121C6.79336 12.2188 6.67942 12.1455 6.55456 12.0963C6.42971 12.0471 6.29638 12.023 6.1622 12.0253C6.02802 12.0276 5.89561 12.0564 5.77254 12.1099C5.64946 12.1634 5.53812 12.2406 5.44488 12.3371C5.35164 12.4336 5.27833 12.5476 5.22912 12.6724C5.17992 12.7973 5.15579 12.9306 5.15811 13.0648C5.16043 13.1989 5.18916 13.3314 5.24265 13.4544C5.29615 13.5775 5.37336 13.6888 5.46988 13.7821L9.30988 17.6221C9.40284 17.7158 9.51345 17.7902 9.6353 17.841C9.75716 17.8917 9.88787 17.9179 10.0199 17.9179C10.1519 17.9179 10.2826 17.8917 10.4045 17.841C10.5263 17.7902 10.6369 17.7158 10.7299 17.6221L18.8899 9.46209C18.9914 9.36845 19.0724 9.25479 19.1278 9.12829C19.1832 9.00179 19.2118 8.86519 19.2118 8.72709C19.2118 8.58899 19.1832 8.45238 19.1278 8.32588C19.0724 8.19938 18.9914 8.08573 18.8899 7.99209Z" fill="white"/>
</svg>
