<svg width="26" height="26" viewBox="0 0 26 26" fill="none" xmlns="http://www.w3.org/2000/svg">
<path d="M21.1881 4.66211C21.0671 4.56421 20.9257 4.49468 20.7743 4.45863C20.6228 4.42258 20.4653 4.42092 20.3131 4.45377C19.2 4.68705 18.051 4.69002 16.9367 4.4625C15.8224 4.23499 14.7665 3.78181 13.834 3.13086C13.6596 3.00989 13.4524 2.94507 13.2402 2.94507C13.028 2.94507 12.8208 3.00989 12.6465 3.13086C11.7139 3.78181 10.658 4.23499 9.54371 4.4625C8.42943 4.69002 7.28037 4.68705 6.16728 4.45377C6.01514 4.42092 5.85756 4.42258 5.70614 4.45863C5.55472 4.49468 5.4133 4.56421 5.29228 4.66211C5.17143 4.76015 5.07408 4.88402 5.00738 5.02462C4.94068 5.16522 4.90634 5.31899 4.90687 5.4746V13.235C4.90594 14.7285 5.26184 16.2006 5.94492 17.5287C6.62801 18.8568 7.61851 20.0026 8.83395 20.8704L12.636 23.5788C12.8125 23.7044 13.0236 23.7719 13.2402 23.7719C13.4568 23.7719 13.6679 23.7044 13.8444 23.5788L17.6465 20.8704C18.8619 20.0026 19.8524 18.8568 20.5355 17.5287C21.2186 16.2006 21.5745 14.7285 21.5735 13.235V5.4746C21.5741 5.31899 21.5397 5.16522 21.473 5.02462C21.4063 4.88402 21.309 4.76015 21.1881 4.66211ZM19.4902 13.235C19.491 14.3962 19.2145 15.5408 18.6836 16.5736C18.1527 17.6063 17.3829 18.4974 16.4381 19.1725L13.2402 21.4538L10.0423 19.1725C9.09753 18.4974 8.32768 17.6063 7.79681 16.5736C7.26594 15.5408 6.9894 14.3962 6.9902 13.235V6.67252C9.17398 6.85943 11.3611 6.35275 13.2402 5.22461C15.1193 6.35275 17.3064 6.85943 19.4902 6.67252V13.235ZM14.8444 10.8496L12.0423 13.6621L11.1152 12.7246C10.9191 12.5285 10.653 12.4183 10.3756 12.4183C10.0982 12.4183 9.83218 12.5285 9.63603 12.7246C9.43988 12.9208 9.32969 13.1868 9.32969 13.4642C9.32969 13.7416 9.43988 14.0076 9.63603 14.2038L11.3027 15.8704C11.3995 15.9681 11.5147 16.0456 11.6417 16.0984C11.7686 16.1513 11.9048 16.1786 12.0423 16.1786C12.1798 16.1786 12.3159 16.1513 12.4429 16.0984C12.5698 16.0456 12.685 15.9681 12.7819 15.8704L16.3652 12.3184C16.5613 12.1222 16.6715 11.8562 16.6715 11.5788C16.6715 11.3014 16.5613 11.0353 16.3652 10.8392C16.1691 10.643 15.903 10.5328 15.6256 10.5328C15.3482 10.5328 15.0822 10.643 14.886 10.8392L14.8444 10.8496Z" fill="#15B412"/>
</svg>
