<svg width="27" height="27" viewBox="0 0 27 27" fill="none" xmlns="http://www.w3.org/2000/svg">
<path fill-rule="evenodd" clip-rule="evenodd" d="M12.5318 5.7548C9.54028 5.7548 7.11515 8.17993 7.11515 11.1715V12.2548L7.11515 19.8381H3.86515C2.66854 19.8381 1.69849 18.8681 1.69849 17.6715V13.3381C1.69849 12.1415 2.66854 11.1715 3.86515 11.1715H4.94849C4.94849 6.98331 8.34366 3.58813 12.5318 3.58813H14.6985C18.8866 3.58813 22.2818 6.98331 22.2818 11.1715L23.3652 11.1715C24.5618 11.1715 25.5318 12.1415 25.5318 13.3381V17.6715C25.5318 18.8681 24.5618 19.8381 23.3652 19.8381H22.1453C21.6643 21.7071 19.9676 23.0881 17.9485 23.0881H16.5753C16.2007 23.7358 15.5005 24.1715 14.6985 24.1715C13.5019 24.1715 12.5318 23.2014 12.5318 22.0048C12.5318 20.8082 13.5019 19.8381 14.6985 19.8381C15.5005 19.8381 16.2007 20.2738 16.5753 20.9215H17.9485C19.1451 20.9215 20.1152 19.9514 20.1152 18.7548V12.2548V11.1715C20.1152 8.17993 17.69 5.7548 14.6985 5.7548H12.5318ZM4.94849 13.3381H3.86515V17.6715H4.94849V13.3381ZM12.5318 13.609C12.5318 14.3569 11.9255 14.9631 11.1777 14.9631C10.4298 14.9631 9.82349 14.3569 9.82349 13.609C9.82349 12.8611 10.4298 12.2548 11.1777 12.2548C11.9255 12.2548 12.5318 12.8611 12.5318 13.609ZM16.0527 14.9631C16.8005 14.9631 17.4068 14.3569 17.4068 13.609C17.4068 12.8611 16.8005 12.2548 16.0527 12.2548C15.3048 12.2548 14.6985 12.8611 14.6985 13.609C14.6985 14.3569 15.3048 14.9631 16.0527 14.9631ZM22.2818 13.3381H23.3652V17.6715H22.2818V13.3381Z" fill="#535353"/>
</svg>
