<svg width="65" height="65" viewBox="0 0 65 65" fill="none" xmlns="http://www.w3.org/2000/svg">
<path d="M41.34 22.0675L27.3975 36.0425L22.035 30.68C21.7437 30.3398 21.3851 30.0635 20.9819 29.8684C20.5787 29.6733 20.1395 29.5637 19.6919 29.5464C19.2443 29.5291 18.798 29.6045 18.381 29.7679C17.9639 29.9313 17.5851 30.1791 17.2684 30.4959C16.9517 30.8126 16.7038 31.1914 16.5404 31.6084C16.377 32.0255 16.3016 32.4718 16.3189 32.9194C16.3362 33.367 16.4458 33.8062 16.6409 34.2094C16.836 34.6126 17.1123 34.9711 17.4525 35.2625L25.09 42.9325C25.3937 43.2337 25.7538 43.472 26.1498 43.6337C26.5458 43.7955 26.9698 43.8775 27.3975 43.875C28.2501 43.8714 29.0672 43.5329 29.6725 42.9325L45.9225 26.6825C46.2271 26.3804 46.4689 26.0209 46.6339 25.6249C46.7989 25.2288 46.8839 24.804 46.8839 24.375C46.8839 23.946 46.7989 23.5212 46.6339 23.1251C46.4689 22.7291 46.2271 22.3696 45.9225 22.0675C45.3136 21.4622 44.4899 21.1224 43.6313 21.1224C42.7727 21.1224 41.9489 21.4622 41.34 22.0675ZM32.5 0C26.0721 0 19.7886 1.90609 14.444 5.47724C9.09938 9.04838 4.93378 14.1242 2.47393 20.0628C0.0140817 26.0014 -0.629526 32.536 0.624493 38.8404C1.87851 45.1448 4.97384 50.9357 9.51904 55.481C14.0642 60.0262 19.8552 63.1215 26.1596 64.3755C32.464 65.6295 38.9986 64.9859 44.9372 62.5261C50.8758 60.0662 55.9516 55.9006 59.5228 50.556C63.0939 45.2114 65 38.9279 65 32.5C65 28.232 64.1594 24.0059 62.5261 20.0628C60.8928 16.1197 58.4989 12.5369 55.481 9.51903C52.4631 6.50112 48.8803 4.10719 44.9372 2.47391C40.9941 0.840637 36.768 0 32.5 0ZM32.5 58.5C27.3577 58.5 22.3309 56.9751 18.0552 54.1182C13.7795 51.2613 10.447 47.2006 8.47915 42.4498C6.51127 37.6989 5.99638 32.4711 6.9996 27.4276C8.00281 22.3841 10.4791 17.7514 14.1152 14.1152C17.7514 10.4791 22.3842 8.0028 27.4277 6.99958C32.4712 5.99637 37.6989 6.51125 42.4498 8.47913C47.2007 10.447 51.2613 13.7795 54.1182 18.0552C56.9751 22.3308 58.5 27.3577 58.5 32.5C58.5 39.3956 55.7607 46.0088 50.8848 50.8848C46.0088 55.7607 39.3956 58.5 32.5 58.5Z" fill="#EF3B85"/>
</svg>
