<svg width="20" height="20" viewBox="0 0 20 20" fill="none" xmlns="http://www.w3.org/2000/svg">
<path d="M12.8175 10.8121C13.5937 10.2014 14.1602 9.36406 14.4382 8.41645C14.7163 7.46884 14.6921 6.45812 14.369 5.52491C14.0459 4.59169 13.44 3.78239 12.6355 3.20959C11.831 2.63679 10.868 2.32898 9.88043 2.32898C8.89286 2.32898 7.92985 2.63679 7.12537 3.20959C6.3209 3.78239 5.71495 4.59169 5.39185 5.52491C5.06874 6.45812 5.04454 7.46884 5.32262 8.41645C5.60069 9.36406 6.1672 10.2014 6.94335 10.8121C5.61341 11.3449 4.45299 12.2287 3.5858 13.3691C2.71862 14.5095 2.17717 15.8639 2.01918 17.2879C2.00774 17.3919 2.0169 17.4971 2.04612 17.5975C2.07534 17.6979 2.12405 17.7916 2.18948 17.8732C2.32161 18.038 2.5138 18.1436 2.72376 18.1667C2.93373 18.1898 3.14426 18.1285 3.30906 17.9964C3.47386 17.8642 3.57942 17.672 3.60251 17.4621C3.77635 15.9145 4.51427 14.4853 5.67527 13.4474C6.83628 12.4095 8.33898 11.8357 9.89626 11.8357C11.4536 11.8357 12.9563 12.4095 14.1173 13.4474C15.2783 14.4853 16.0162 15.9145 16.19 17.4621C16.2115 17.6566 16.3044 17.8363 16.4506 17.9664C16.5968 18.0965 16.786 18.1679 16.9817 18.1667H17.0688C17.2763 18.1428 17.466 18.0379 17.5965 17.8747C17.727 17.7116 17.7877 17.5035 17.7654 17.2958C17.6067 15.8678 17.0623 14.5099 16.1907 13.3677C15.319 12.2255 14.153 11.3421 12.8175 10.8121ZM9.88043 10.25C9.25412 10.25 8.64188 10.0643 8.12112 9.71632C7.60037 9.36836 7.19449 8.8738 6.95481 8.29516C6.71513 7.71653 6.65242 7.07982 6.77461 6.46555C6.8968 5.85127 7.19839 5.28703 7.64126 4.84416C8.08412 4.40129 8.64837 4.0997 9.26264 3.97751C9.87692 3.85532 10.5136 3.91803 11.0923 4.15771C11.6709 4.39739 12.1655 4.80327 12.5134 5.32403C12.8614 5.84478 13.0471 6.45702 13.0471 7.08333C13.0471 7.92318 12.7135 8.72864 12.1196 9.3225C11.5257 9.91637 10.7203 10.25 9.88043 10.25Z" fill="#535353"/>
</svg>
