<svg width="25" height="25" viewBox="0 0 25 25" fill="none" xmlns="http://www.w3.org/2000/svg">
<path d="M12.1002 2.32983C10.1606 2.33352 8.26404 2.90114 6.64139 3.96357C5.01874 5.026 3.74006 6.53737 2.9611 8.3136C2.18215 10.0898 1.93654 12.0543 2.25419 13.9676C2.57184 15.8809 3.43904 17.6606 4.75016 19.0898C5.68658 20.1049 6.8231 20.915 8.0881 21.469C9.3531 22.0231 10.7191 22.3092 12.1002 22.3092C13.4812 22.3092 14.8472 22.0231 16.1122 21.469C17.3772 20.915 18.5137 20.1049 19.4502 19.0898C20.7613 17.6606 21.6285 15.8809 21.9461 13.9676C22.2638 12.0543 22.0182 10.0898 21.2392 8.3136C20.4603 6.53737 19.1816 5.026 17.5589 3.96357C15.9363 2.90114 14.0397 2.33352 12.1002 2.32983ZM12.1002 20.3298C10.0286 20.3267 8.03908 19.5201 6.55016 18.0798C7.00221 16.9794 7.7712 16.0381 8.75942 15.3757C9.74763 14.7133 10.9105 14.3596 12.1002 14.3596C13.2899 14.3596 14.4527 14.7133 15.4409 15.3757C16.4291 16.0381 17.1981 16.9794 17.6502 18.0798C16.1612 19.5201 14.1717 20.3267 12.1002 20.3298ZM10.1002 10.3298C10.1002 9.93427 10.2175 9.54759 10.4372 9.21869C10.657 8.8898 10.9693 8.63345 11.3348 8.48207C11.7002 8.3307 12.1024 8.29109 12.4903 8.36826C12.8783 8.44543 13.2347 8.63592 13.5144 8.91562C13.7941 9.19533 13.9846 9.55169 14.0617 9.93965C14.1389 10.3276 14.0993 10.7297 13.9479 11.0952C13.7965 11.4607 13.5402 11.773 13.2113 11.9928C12.8824 12.2125 12.4957 12.3298 12.1002 12.3298C11.5697 12.3298 11.061 12.1191 10.6859 11.744C10.3109 11.369 10.1002 10.8603 10.1002 10.3298ZM19.0102 16.3298C18.1167 14.8016 16.7416 13.6129 15.1002 12.9498C15.6093 12.3725 15.9411 11.6605 16.0556 10.8993C16.1702 10.1381 16.0626 9.35995 15.7459 8.65833C15.4292 7.95672 14.9167 7.36139 14.2701 6.9438C13.6234 6.52621 12.87 6.30408 12.1002 6.30408C11.3304 6.30408 10.5769 6.52621 9.93025 6.9438C9.28358 7.36139 8.77113 7.95672 8.45441 8.65833C8.13769 9.35995 8.03015 10.1381 8.14469 10.8993C8.25923 11.6605 8.59099 12.3725 9.10016 12.9498C7.45876 13.6129 6.08363 14.8016 5.19016 16.3298C4.47811 15.1169 4.10188 13.7363 4.10016 12.3298C4.10016 10.2081 4.94302 8.17327 6.44331 6.67298C7.9436 5.17269 9.97843 4.32983 12.1002 4.32983C14.2219 4.32983 16.2567 5.17269 17.757 6.67298C19.2573 8.17327 20.1002 10.2081 20.1002 12.3298C20.0984 13.7363 19.7222 15.1169 19.0102 16.3298Z" fill="white"/>
</svg>
