<svg width="19" height="20" viewBox="0 0 19 20" fill="none" xmlns="http://www.w3.org/2000/svg">
    <path
        d="M0 19.23L1.34288 14.3536C0.512655 12.9222 0.0771251 11.3013 0.0816618 9.64419C0.0816618 4.4517 4.32808 0.22998 9.54082 0.22998C12.0723 0.22998 14.4496 1.20978 16.2326 2.98877C18.02 4.76777 19.0045 7.13374 19 9.64871C19 14.8412 14.7536 19.0629 9.53629 19.0629H9.53175C7.94842 19.0629 6.39231 18.6656 5.00859 17.9161L0 19.23ZM5.24904 16.2138L5.53486 16.3854C6.74164 17.0988 8.12535 17.4736 9.53629 17.4781H9.54082C13.8734 17.4781 17.403 13.9698 17.403 9.65322C17.403 7.56268 16.5864 5.59857 15.1029 4.11758C13.6194 2.63659 11.6413 1.82385 9.54082 1.82385C5.20821 1.81933 1.6786 5.32765 1.6786 9.64419C1.6786 11.1207 2.09145 12.561 2.88085 13.8072L3.06686 14.1052L2.27292 16.9904L5.24904 16.2138Z"
        fill="white" />
    <path fill-rule="evenodd" clip-rule="evenodd"
        d="M7.17711 5.7069C7.00017 5.31408 6.81417 5.30505 6.64631 5.30054C6.5102 5.29602 6.35142 5.29602 6.19263 5.29602C6.03384 5.29602 5.77978 5.35472 5.56202 5.58951C5.34425 5.8243 4.73633 6.39322 4.73633 7.55363C4.73633 8.70952 5.5847 9.82929 5.70266 9.98732C5.82062 10.1454 7.34043 12.5971 9.74038 13.5408C11.7366 14.3264 12.1449 14.1684 12.5759 14.1278C13.0069 14.0871 13.9732 13.5589 14.1728 13.008C14.3679 12.4571 14.3679 11.9876 14.3089 11.8882C14.2499 11.7889 14.0911 11.7302 13.8552 11.6128C13.6193 11.4954 12.4579 10.9265 12.2401 10.8452C12.0224 10.7685 11.8636 10.7278 11.7093 10.9626C11.5506 11.1974 11.0969 11.7257 10.9608 11.8837C10.8247 12.0417 10.684 12.0598 10.4481 11.9424C10.2122 11.825 9.45003 11.5767 8.54721 10.773C7.84401 10.1499 7.36765 9.37777 7.23155 9.14298C7.09545 8.90819 7.21794 8.78176 7.3359 8.66437C7.44024 8.56052 7.57181 8.38894 7.68976 8.25348C7.80772 8.11803 7.84855 8.01869 7.92568 7.86066C8.0028 7.70263 7.96651 7.56717 7.90753 7.44978C7.84855 7.3369 7.3858 6.17197 7.17711 5.7069Z"
        fill="white" />
</svg>