<svg width="20" height="20" viewBox="0 0 20 20" fill="none" xmlns="http://www.w3.org/2000/svg">
<g clip-path="url(#clip0_1_6540)">
<path d="M0.380371 19.23L1.72325 14.3536C0.893026 12.9222 0.457496 11.3013 0.462033 9.64419C0.462033 4.4517 4.70845 0.22998 9.92119 0.22998C12.4527 0.22998 14.83 1.20978 16.6129 2.98877C18.4004 4.76777 19.3849 7.13374 19.3804 9.64871C19.3804 14.8412 15.1339 19.0629 9.91666 19.0629H9.91212C8.32879 19.0629 6.77268 18.6656 5.38896 17.9161L0.380371 19.23ZM5.62941 16.2138L5.91523 16.3854C7.12201 17.0988 8.50572 17.4736 9.91666 17.4781H9.92119C14.2538 17.4781 17.7834 13.9698 17.7834 9.65322C17.7834 7.56268 16.9668 5.59857 15.4833 4.11758C13.9997 2.63659 12.0217 1.82385 9.92119 1.82385C5.58858 1.81933 2.05898 5.32765 2.05898 9.64419C2.05898 11.1207 2.47182 12.561 3.26122 13.8072L3.44723 14.1052L2.65329 16.9904L5.62941 16.2138Z" fill="white"/>
<path d="M0.711426 18.9004L2.00894 14.191C1.20593 12.8139 0.784014 11.2471 0.784014 9.64869C0.788551 4.63681 4.88525 0.55957 9.92107 0.55957C12.3664 0.55957 14.6575 1.50776 16.3814 3.22354C18.1054 4.93932 19.0536 7.22402 19.0536 9.6532C19.0536 14.6651 14.9523 18.7423 9.92107 18.7423H9.91653C8.38764 18.7423 6.88597 18.3585 5.55216 17.6361L0.711426 18.9004Z" fill="white"/>
<path d="M0.380371 19.23L1.72325 14.3536C0.893026 12.9222 0.457496 11.3013 0.462033 9.64419C0.462033 4.4517 4.70845 0.22998 9.92119 0.22998C12.4527 0.22998 14.83 1.20978 16.6129 2.98877C18.4004 4.76777 19.3849 7.13374 19.3804 9.64871C19.3804 14.8412 15.1339 19.0629 9.91666 19.0629H9.91212C8.32879 19.0629 6.77268 18.6656 5.38896 17.9161L0.380371 19.23ZM5.62941 16.2138L5.91523 16.3854C7.12201 17.0988 8.50572 17.4736 9.91666 17.4781H9.92119C14.2538 17.4781 17.7834 13.9698 17.7834 9.65322C17.7834 7.56268 16.9668 5.59857 15.4833 4.11758C13.9997 2.63659 12.0217 1.82385 9.92119 1.82385C5.58858 1.81933 2.05898 5.32765 2.05898 9.64419C2.05898 11.1207 2.47182 12.561 3.26122 13.8072L3.44723 14.1052L2.65329 16.9904L5.62941 16.2138Z" fill="#535353"/>
<path fill-rule="evenodd" clip-rule="evenodd" d="M7.55748 5.7069C7.38055 5.31408 7.19454 5.30505 7.02668 5.30054C6.89058 5.29602 6.73179 5.29602 6.573 5.29602C6.41421 5.29602 6.16016 5.35472 5.94239 5.58951C5.72463 5.8243 5.1167 6.39322 5.1167 7.55363C5.1167 8.70952 5.96507 9.82929 6.08303 9.98732C6.20099 10.1454 7.7208 12.5971 10.1208 13.5408C12.1169 14.3264 12.5252 14.1684 12.9562 14.1278C13.3872 14.0871 14.3536 13.5589 14.5532 13.008C14.7483 12.4571 14.7483 11.9876 14.6893 11.8882C14.6303 11.7889 14.4715 11.7302 14.2356 11.6128C13.9997 11.4954 12.8383 10.9265 12.6205 10.8452C12.4027 10.7685 12.244 10.7278 12.0897 10.9626C11.9309 11.1974 11.4772 11.7257 11.3411 11.8837C11.205 12.0417 11.0644 12.0598 10.8285 11.9424C10.5926 11.825 9.8304 11.5767 8.92758 10.773C8.22438 10.1499 7.74802 9.37777 7.61192 9.14298C7.47582 8.90819 7.59831 8.78176 7.71627 8.66437C7.82061 8.56052 7.95218 8.38894 8.07013 8.25348C8.18809 8.11803 8.22892 8.01869 8.30605 7.86066C8.38317 7.70263 8.34688 7.56717 8.2879 7.44978C8.22892 7.3369 7.76617 6.17197 7.55748 5.7069Z" fill="#535353"/>
</g>
<defs>
<clipPath id="clip0_1_6540">
<rect width="19" height="19" fill="white" transform="translate(0.380371 0.22998)"/>
</clipPath>
</defs>
</svg>
